<?xml version="1.0" encoding="UTF-8" standalone="no"?>
<svg
   xmlns:dc="http://purl.org/dc/elements/1.1/"
   xmlns:cc="http://creativecommons.org/ns#"
   xmlns:rdf="http://www.w3.org/1999/02/22-rdf-syntax-ns#"
   xmlns:svg="http://www.w3.org/2000/svg"
   xmlns="http://www.w3.org/2000/svg"
   xmlns:xlink="http://www.w3.org/1999/xlink"
   xmlns:sodipodi="http://sodipodi.sourceforge.net/DTD/sodipodi-0.dtd"
   xmlns:inkscape="http://www.inkscape.org/namespaces/inkscape"
   version="1.1"
   width="512"
   height="512"
   id="svg3662"
   inkscape:version="0.91 r13725"
   sodipodi:docname="_kosovo.svg">
  <metadata
     id="metadata3684">
    <rdf:RDF>
      <cc:Work
         rdf:about="">
        <dc:format>image/svg+xml</dc:format>
        <dc:type
           rdf:resource="http://purl.org/dc/dcmitype/StillImage" />
        <dc:title>Flag of Kosovo</dc:title>
      </cc:Work>
    </rdf:RDF>
  </metadata>
  <sodipodi:namedview
     pagecolor="#ffffff"
     bordercolor="#666666"
     borderopacity="1"
     objecttolerance="10"
     gridtolerance="10"
     guidetolerance="10"
     inkscape:pageopacity="0"
     inkscape:pageshadow="2"
     inkscape:window-width="3775"
     inkscape:window-height="2136"
     id="namedview3682"
     showgrid="false"
     showguides="true"
     inkscape:guide-bbox="true"
     inkscape:zoom="3.3316667"
     inkscape:cx="368.37419"
     inkscape:cy="312.006"
     inkscape:window-x="65"
     inkscape:window-y="24"
     inkscape:window-maximized="1"
     inkscape:current-layer="svg3662">
    <sodipodi:guide
       position="-10.805403,600.30015"
       orientation="0,1"
       id="guide3686" />
    <sodipodi:guide
       position="600,439.11956"
       orientation="1,0"
       id="guide3688" />
    <sodipodi:guide
       position="300.45022,444.82241"
       orientation="1,0"
       id="guide3343" />
    <sodipodi:guide
       position="-60.330164,300.15007"
       orientation="0,1"
       id="guide3345" />
    <sodipodi:guide
       position="535.16758,356.27814"
       orientation="0,1"
       id="guide3366" />
  </sodipodi:namedview>
  <title
     id="title3664">Flag of Kosovo</title>
  <defs
     id="defs3666">
    <path
       id="star"
       d="m 0,-36 21.160269,65.124612 -55.398303,-40.249224 68.476068,0 -55.398303,40.249224 z"
       inkscape:connector-curvature="0"
       style="fill:#ffffff" />
  </defs>
  <rect
     width="512.23615"
     height="511.75586"
     id="rect3669"
     x="0"
     y="0.24412045"
     style="fill:#244aa5" />
  <path
     d="m 167.47442,246.77634 c 0,0 1.33364,-0.8988 1.82156,-1.01864 0.48792,-0.11984 2.21191,-0.65912 2.21191,-0.65912 0,0 1.10595,-0.56924 1.69145,-0.56924 0.61804,0 1.82157,0.65912 2.21191,1.22836 0.35781,0.56924 2.30949,1.55792 2.30949,1.55792 0,0 1.33364,0.4494 1.59387,0 0.26022,-0.4494 0.84573,-0.77896 1.46376,-0.77896 0.61803,0 0.71561,-0.56924 0.71561,-1.01864 0,-0.4494 0.26023,-1.01864 0.71562,-1.55792 0.48792,-0.56924 1.46376,-0.8988 1.46376,-0.8988 0,0 1.33365,-0.56924 1.46376,-1.3482 0.13011,-0.77896 1.46376,-1.3482 2.2119,-1.46804 0.71562,-0.11984 0,-0.4494 1.95168,-0.23968 1.95168,0.23968 2.21191,-0.4494 2.30949,-1.01864 0.13011,-0.56924 0,-1.13848 1.23607,-1.01864 1.23606,0.11984 1.82156,0.11984 1.82156,-0.56924 0,-0.65912 1.10596,-1.01864 -0.84572,-1.55792 -1.95168,-0.56924 -1.82157,-0.11984 -1.95168,-1.01864 -0.13012,-0.8988 0,-0.77896 -1.33365,-0.8988 -1.33365,-0.11984 -0.61803,-0.77896 -0.71562,-1.46804 -0.13011,-0.65912 -0.48792,-1.01864 -0.71561,-1.46804 -0.26023,-0.4494 -0.97584,-0.4494 -0.97584,-1.10852 0,-0.65912 -0.13012,-1.01864 -0.84573,-1.01864 -0.71562,0 -0.97584,0 -0.97584,-0.65912 0,-0.65912 0.13011,-1.22836 0.84573,-1.22836 0.71561,0 1.10595,-0.56924 0.97584,-1.22836 -0.13012,-0.65912 -0.13012,-2.12716 -0.13012,-2.12716 l 0.97584,-1.13848 c 0,0 2.92752,-2.36684 3.18775,-2.81624 0.26022,-0.4494 1.23606,-0.77896 1.69145,0.11984 0.48792,0.8988 0.71562,1.13848 1.10596,1.55792 0.3578,0.4494 1.46376,0.11984 1.69145,-0.32956 0.26023,-0.4494 0.35781,-2.0972 1.00837,-2.996 0.65056,-0.86884 1.10595,-1.31824 1.26859,-2.03728 0.16264,-0.71904 0.48792,-1.31824 1.26859,-1.31824 0.78068,0 1.2686,-1.01864 1.2686,-1.61784 0,-0.5992 0.32528,-1.16844 1.26859,-1.31824 0.94331,-0.1498 1.43123,-0.71904 1.75651,0.1498 0.32528,0.86884 0.65056,0.86884 1.26859,1.16844 0.65056,0.2996 1.59387,0.71904 2.04927,0.2996 0.48792,-0.4494 0.71561,-1.16844 1.43123,-0.71904 0.68309,0.4494 1.17101,0 1.33365,-0.86884 0.16264,-0.86884 0.32528,-2.03728 0.32528,-2.03728 0,0 0.16264,-0.5992 1.26859,-0.5992 1.10595,0 0.32528,-0.71904 0.94331,-1.16844 0.65056,-0.4494 0.65056,-0.86884 1.43123,-0.5992 0.78067,0.2996 2.04927,-0.35952 1.43123,-1.07856 -0.65056,-0.71904 -2.04926,-1.88748 -1.26859,-2.78628 0.78067,-0.86884 1.10595,-2.33688 0.32528,-2.48668 -0.78067,-0.1498 -1.91915,0.1498 -2.04926,-0.71904 -0.16264,-0.86884 -0.48792,-1.46804 0.48792,-1.61784 0.94331,-0.1498 2.53718,-0.1498 3.0251,-0.5992 0.48792,-0.4494 2.04927,-0.71904 2.04927,-2.03728 0,-1.31824 0.48792,-1.46804 0.65056,-2.18708 0.16264,-0.71904 0.16264,-2.247 -0.48792,-2.96604 -0.65056,-0.71904 -1.59388,-1.76764 -1.75652,-2.18708 -0.16264,-0.4494 -0.78067,-1.16844 -1.75651,-1.46804 -0.94331,-0.2996 -1.75651,-0.4494 -1.75651,-1.16844 0,-0.71904 0.65056,0.1498 0.65056,-1.76764 0,-1.88748 -1.26859,-2.18708 -1.26859,-2.18708 l -1.91915,-1.16844 c 0,0 -3.38292,-0.8988 -4.2937,-0.8988 -0.91078,0 -1.95168,-0.95872 -0.91078,-1.55792 1.04089,-0.5992 1.30112,-1.67776 0.91078,-2.51664 -0.39034,-0.83888 -0.65056,-1.43808 -2.08179,-1.7976 -1.43123,-0.35952 -1.82157,-0.71904 -1.17101,-1.55792 0.65056,-0.83888 0.78067,-1.43808 1.56134,-0.83888 0.78068,0.5992 2.0818,0.83888 3.12269,0.35952 1.0409,-0.47936 1.43123,-0.83888 1.95168,-0.35952 0.52045,0.47936 1.17101,0.95872 1.95168,0.23968 0.78067,-0.71904 2.21191,-0.83888 2.86247,-0.47936 0.65056,0.35952 2.2119,0.23968 2.73235,0 0.52045,-0.23968 1.56134,-1.07856 1.56134,-1.55792 0,-0.47936 0.65056,-1.31824 1.30112,-1.67776 0.65056,-0.35952 1.43123,-1.55792 2.08179,-1.55792 0.65056,0 0.91079,-0.71904 0.91079,-1.1984 0,-0.47936 0.52045,-1.43808 0.65056,-1.7976 0.13011,-0.35952 1.43123,-0.86884 2.34201,-0.11984 0.91079,0.71904 2.0818,0.95872 2.0818,0.95872 0,0 1.30112,0.23968 1.95168,0 0.65056,-0.23968 1.56134,-0.47936 2.47212,0.11984 0.91079,0.5992 2.21191,0.5992 2.21191,0.5992 0,0 0.26022,-0.95872 0.26022,-1.43808 0,-0.47936 0.26023,-1.31824 -0.26022,-1.67776 -0.52045,-0.35952 -1.17101,-0.83888 -0.13011,-1.55792 1.04089,-0.71904 1.04089,-0.5992 2.08179,-0.5992 1.04089,0 1.69145,0.11984 2.47213,0.11984 0.78067,0 2.08179,0.71904 2.08179,1.43808 0,0.71904 0.52045,1.1984 1.17101,1.55792 0.65056,0.35952 1.43123,0.71904 1.171,1.31824 -0.26022,0.5992 -0.26022,1.07856 0.52045,0.95872 0.78067,-0.11984 1.0409,0.35952 1.0409,0.95872 0,0.5992 0.26022,0.95872 1.04089,1.1984 0.78068,0.23968 1.17101,0.71904 1.17101,1.31824 0,0.5992 -0.13011,0.95872 0.13011,1.55792 0.26023,0.5992 1.0409,1.55792 1.0409,1.55792 0,0 1.43123,1.67776 -0.39034,0.83888 -1.82156,-0.83888 -2.2119,-1.1984 -2.86246,-1.07856 -0.65056,0.11984 -1.0409,0.47936 -1.0409,0.47936 0,0 -0.91078,0.23968 -1.56134,0.23968 -0.65056,0 -1.30112,1.31824 -0.26022,1.55792 1.04089,0.23968 1.43123,0.47936 1.43123,1.31824 0,0.83888 -0.39034,0.5992 -0.91079,1.1984 -0.52044,0.5992 -0.91078,0.23968 -1.82156,0.23968 -0.91079,0 -1.17101,0.71904 -1.17101,1.43808 0,0.71904 0.39033,0.5992 0.78067,1.1984 0.39034,0.5992 1.0409,0.71904 1.69146,0.11984 0.65056,-0.5992 1.171,-0.95872 1.56134,0.11984 0.39034,1.07856 0.91078,1.07856 1.69146,1.07856 0.78067,0 1.04089,0 1.69145,-0.35952 0.65056,-0.35952 1.43123,0 1.56135,0.95872 0.13011,0.95872 0.78067,1.07856 1.43123,1.43808 0.65056,0.35952 1.04089,0.5992 1.17101,1.1984 0.13011,0.5992 0.52044,0.83888 1.171,0.47936 0.65056,-0.35952 1.69146,-0.5992 2.0818,-0.11984 0.39033,0.47936 1.04089,1.43808 1.04089,1.43808 l 0.13011,1.1984 2.47213,0.83888 c 0,0 0.26023,0.5992 0.26023,1.07856 0,0.47936 0.39033,0.71904 1.04089,0.5992 0.65056,-0.11984 1.82157,0 1.82157,0 0,0 0.91078,-0.35952 0.91078,-1.07856 0,-0.71904 0.39034,-0.95872 1.0409,-0.95872 0.65056,0 2.08179,0.47936 2.47213,-0.23968 0.39033,-0.71904 1.56134,-0.95872 2.47213,-0.5992 0.91078,0.35952 3.2528,1.31824 3.2528,1.31824 0,0 -0.26023,0.11984 0.52044,1.31824 0.78068,1.1984 2.21191,1.1984 2.21191,1.1984 0,0 0.13011,1.07856 0.39033,1.55792 0.26023,0.47936 1.43124,0.71904 2.0818,0.23968 0.65056,-0.47936 1.56134,-1.07856 2.34201,-1.07856 0.78067,0 1.30112,0 1.30112,-0.47936 0,-0.47936 -0.78067,-0.83888 -0.78067,-1.55792 0,-0.71904 0.78067,-0.71904 0.91078,-1.43808 0.13012,-0.71904 0.91079,0 1.43124,0.35952 0.52044,0.35952 1.171,0.95872 1.171,1.43808 0,0.47936 1.0409,2.15712 1.69146,2.3968 0.65056,0.23968 2.34202,0.35952 2.86246,-0.23968 0.52045,-0.5992 1.82157,-0.83888 1.69146,0.5992 -0.13011,1.43808 -0.39034,1.55792 0.52045,2.03728 0.91078,0.47936 1.04089,2.15712 0.26022,2.63648 -0.78067,0.47936 -1.04089,0.5992 -1.04089,1.43808 0,0.83888 -0.26023,1.7976 0.39033,2.27696 0.65056,0.47936 1.0409,0.83888 1.0409,1.31824 0,0.47936 0.78067,2.63648 0.78067,2.63648 0,0 0.39034,2.15712 0.26022,2.63648 -0.13011,0.47936 -0.39033,1.31824 0.78068,1.1984 1.171,-0.11984 1.43123,-0.11984 1.43123,0.83888 0,0.95872 0.39033,1.31824 -0.26023,1.67776 -0.65056,0.35952 -1.04089,1.55792 -0.39033,1.7976 0.65056,0.23968 1.17101,0.5992 1.30112,1.07856 0.13011,0.47936 1.17101,1.31824 1.82157,0.83888 0.65056,-0.47936 0.78067,-0.71904 1.30112,-0.83888 0.52044,-0.11984 0.91078,-0.47936 0.39033,-1.07856 -0.52045,-0.5992 -0.65056,-1.1984 -0.13011,-1.55792 0.52045,-0.35952 0.78067,-1.55792 0.78067,-1.55792 0,0 0.78067,-1.07856 1.69146,0 0.91078,1.07856 1.04089,0.71904 1.69145,0.71904 0.65056,0 0.91079,0.5992 0.91079,1.1984 0,0.5992 1.30112,0.47936 1.30112,1.43808 0,0.95872 0.26022,3.23568 0.26022,3.23568 0,0 0,1.31824 0.78067,1.7976 0.78068,0.47936 0.65056,0.5992 0.26023,1.1984 -0.39034,0.5992 -0.26023,1.55792 -0.26023,2.03728 0,0.47936 0.26023,0.71904 -0.39033,1.1984 -0.65056,0.47936 -0.91079,1.07856 -0.52045,1.7976 0.39034,0.71904 0.26022,1.1984 1.30112,2.03728 1.0409,0.83888 0.91078,1.1984 0.91078,1.7976 0,0.5992 1.0409,1.43808 1.0409,2.03728 0,0.5992 0.78067,1.31824 1.43123,1.43808 0.65056,0.11984 1.43123,1.1984 1.43123,1.7976 0,0.5992 0.13012,2.15712 0.13012,2.15712 0,0 -0.13012,0.35952 0.65056,0.35952 0.78067,0 1.30112,0.83888 1.56134,-0.11984 0.26022,-0.95872 1.0409,-1.07856 1.56134,-1.31824 0.52045,-0.23968 1.56135,-0.71904 2.0818,-0.35952 0.52044,0.35952 1.171,0.35952 1.69145,0.35952 0.52045,0 2.99258,0.11984 2.99258,0.11984 0,0 0.65056,-0.11984 1.04089,0.83888 0.39034,0.95872 1.56135,2.03728 0.91079,2.51664 -0.65056,0.47936 -0.65056,1.43808 0.13011,1.43808 0.78067,0 1.56134,0 1.56134,0.5992 0,0.5992 0.13012,1.07856 0.78068,0.71904 0.65056,-0.35952 1.04089,-0.47936 1.30112,0 0.26022,0.47936 0.78067,0.47936 1.43123,0.83888 0.65056,0.35952 0.91078,0.11984 1.30112,-0.35952 0.39033,-0.47936 1.95168,-0.95872 1.95168,-0.95872 0,0 2.08179,-0.47936 2.86246,-0.23968 0.78067,0.23968 1.82157,0.71904 1.82157,0.71904 0,0 0.52045,1.1984 0.26022,1.91744 -0.26022,0.71904 -0.52044,0.5992 -0.26022,1.67776 0.26022,1.07856 -0.26022,1.1984 -0.78067,1.07856 -0.52045,-0.11984 -1.0409,-0.11984 -1.0409,0.83888 0,0.95872 -0.52045,1.1984 -0.52045,2.03728 0,0.83888 0,0.71904 -0.52044,1.07856 -0.52045,0.35952 -0.65056,0.95872 0.13011,1.07856 0.78067,0.11984 0.52045,0.95872 0.52045,1.43808 0,0.47936 -0.13012,1.55792 -0.13012,1.55792 0,0 0.13012,0.5992 -0.78067,0.5992 -0.91078,0 -1.69145,-0.11984 -1.82157,0.47936 -0.13011,0.5992 -1.171,1.55792 -0.26022,2.15712 0.91078,0.5992 0.65056,0.95872 0.13011,1.1984 -0.52045,0.23968 -0.91078,1.43808 0.13011,1.7976 1.0409,0.35952 0.91079,0.71904 0.26023,1.1984 -0.65056,0.47936 -1.95168,0.83888 -1.95168,1.55792 0,0.71904 -0.26023,0.71904 -1.0409,0.83888 -0.78067,0.11984 -1.17101,1.07856 -0.26022,2.27696 0.91078,1.1984 1.17101,0.95872 1.82157,0.95872 0.65056,0 0.65056,-0.95872 0.65056,-0.95872 0,0 2.2119,0.11984 2.86246,0.11984 0.65056,0 1.56134,0 2.08179,-0.35952 0.52045,-0.35952 1.95168,-0.95872 1.95168,0.11984 0,1.07856 0.26023,0.95872 0.91079,1.43808 0.65056,0.47936 0.78067,0.11984 1.30112,0.83888 0.52044,0.71904 0.65056,0.11984 1.04089,-0.71904 0.39034,-0.83888 1.17101,-1.67776 1.82157,-0.71904 0.65056,0.95872 0.65056,0.71904 1.43123,0.71904 0.78067,0 1.0409,0.35952 1.0409,0.95872 0,0.5992 0.78067,0.5992 1.69145,0.47936 0.91079,-0.11984 1.0409,0.47936 1.43124,1.07856 0.39033,0.5992 0.52044,0.47936 1.04089,0.47936 0.52045,0 1.0409,0 1.43123,-0.47936 0.39034,-0.47936 0.91079,-1.07856 1.43124,-0.35952 0.52044,0.71904 1.56134,0.5992 1.82156,-0.23968 0.26023,-0.83888 1.43124,-1.55792 2.0818,-0.5992 0.65056,0.95872 1.171,0.95872 1.82156,1.07856 0.65056,0.11984 1.56135,0.11984 1.95168,0.71904 0.39034,0.5992 1.69146,1.55792 0.78068,2.27696 -0.91079,0.71904 -1.95168,1.67776 -1.17101,1.91744 0.78067,0.23968 1.30112,0.47936 1.82157,1.07856 0.52044,0.5992 2.2119,0.83888 2.99257,0.95872 0.78067,0.11984 1.43123,0.23968 2.34202,-0.47936 0.91078,-0.71904 1.82157,-0.71904 1.69145,0.23968 -0.13011,0.95872 0.39034,2.03728 0.39034,2.03728 0,0 0.65056,1.55792 0.65056,2.15712 0,0.5992 -0.13011,0.71904 1.0409,1.43808 1.171,0.71904 1.04089,1.1984 1.95168,0.47936 0.91078,-0.71904 1.171,-1.07856 1.171,-1.67776 0,-0.5992 0,-1.91744 0,-1.91744 0,0 1.30112,-0.23968 1.82157,-0.5992 0.52045,-0.35952 2.60224,-1.43808 3.12269,-0.95872 0.52045,0.47936 1.17101,0.35952 1.69146,0.11984 0.52044,-0.23968 1.56134,-0.23968 2.08179,-0.23968 0.52045,0 1.43123,0.11984 2.47213,-0.71904 1.04089,-0.83888 1.04089,-0.5992 1.69145,0 0.65056,0.5992 0.65056,1.31824 0.26023,1.7976 -0.39034,0.47936 0,1.55792 0.91078,1.55792 0.91078,0 1.17101,0.47936 1.17101,1.07856 0,0.5992 0.13011,1.43808 0.26022,1.91744 0.13011,0.47936 0.13011,0.71904 1.56135,1.07856 1.43123,0.35952 1.171,1.1984 1.43123,1.7976 0.26022,0.5992 0.26022,1.07856 -0.52045,1.07856 -0.78067,0 -1.0409,0.35952 -1.17101,0.95872 -0.13011,0.5992 -1.30112,0.83888 -1.30112,0.83888 l -1.17101,-0.23968 c 0,0 -0.78067,0 -1.171,0.47936 -0.39034,0.47936 -1.17101,1.43808 -0.65056,2.27696 0.52044,0.83888 0.52044,1.31824 0,1.67776 -0.52045,0.35952 -0.78068,2.15712 -1.30112,1.7976 -0.52045,-0.35952 -1.17101,0.11984 -1.69146,0.35952 -0.52045,0.23968 -0.39034,1.91744 0.65056,2.51664 1.0409,0.5992 1.30112,1.43808 1.30112,1.43808 l 1.17101,1.7976 c 0,0 -0.39034,0.35952 -0.65056,0.95872 -0.26023,0.5992 -1.0409,1.7976 -0.26023,2.03728 0.78068,0.23968 0.39034,1.55792 -0.39033,1.55792 -0.78067,0 -1.69146,-0.35952 -1.82157,0.5992 -0.13011,0.95872 -0.52045,0.71904 -1.30112,0.5992 -0.78067,-0.11984 -2.73235,-0.5992 -3.2528,0.35952 -0.52045,0.95872 -0.65056,1.31824 -1.56134,1.1984 -0.91079,-0.11984 -0.52045,1.43808 -0.26023,2.03728 0.26023,0.5992 1.17101,1.43808 1.17101,1.43808 0,0 0.78067,0.5992 0.78067,1.7976 0,1.1984 -0.52045,1.07856 -1.04089,0.23968 -0.52045,-0.83888 -1.56135,-0.71904 -1.69146,0.23968 -0.13011,0.95872 -0.26022,2.3968 -1.17101,2.3968 -0.91078,0 -1.30112,0.23968 -1.69145,0.71904 -0.39034,0.47936 -1.0409,1.31824 -1.0409,1.7976 0,0.47936 -0.13011,0.95872 -0.78067,1.07856 -0.65056,0.11984 -0.78067,1.43808 -0.78067,1.43808 0,0 -1.56135,0.23968 -1.69146,0.83888 -0.13011,0.5992 0.13011,1.55792 -1.17101,1.67776 -1.30112,0.11984 -2.08179,0.95872 -2.47213,1.55792 -0.39033,0.5992 -0.52044,1.07856 0,1.67776 0.52045,0.5992 0.91079,2.51664 1.56135,2.87616 0.65056,0.35952 1.17101,0.47936 1.04089,1.43808 -0.13011,0.95872 -0.91078,1.67776 0.13012,1.67776 1.04089,0 1.69145,0.23968 1.30112,1.07856 -0.39034,0.83888 -0.39034,0.95872 -1.17101,1.31824 -0.78067,0.35952 -1.17101,0.35952 -1.17101,1.31824 0,0.95872 0.26022,0.95872 -0.39034,1.31824 -0.65056,0.35952 -0.65056,0.83888 -0.65056,1.55792 0,0.71904 -0.26022,0.47936 -1.04089,1.31824 -0.78067,0.83888 -1.82157,0.83888 -2.47213,0.5992 -0.65056,-0.23968 -0.78067,-0.23968 -0.91078,-0.95872 -0.13012,-0.71904 -1.30112,-0.71904 -1.95168,-0.5992 -0.65056,0.11984 -1.56135,0.83888 -1.56135,0.83888 0,0 -1.17101,0.71904 -0.65056,1.31824 0.52045,0.5992 0.26023,1.55792 -0.65056,1.43808 -0.91078,-0.11984 -2.99257,0.95872 -3.64313,-0.11984 -0.65056,-1.07856 -2.47213,-1.7976 -2.73236,-0.35952 -0.26022,1.43808 0.78068,1.31824 0.65056,2.75632 -0.13011,1.43808 -0.39033,1.43808 -0.91078,1.91744 -0.52045,0.47936 -0.52045,0.83888 -0.65056,1.43808 -0.13011,0.5992 -0.26022,1.91744 0.65056,2.3968 0.91078,0.47936 1.30112,1.7976 1.30112,2.51664 0,0.71904 0,1.43808 0.91078,1.43808 0.91079,0 1.69146,-0.11984 1.82157,-0.95872 0.13011,-0.83888 1.95168,-1.31824 2.08179,0.35952 0.13012,1.67776 0.13012,2.51664 0.78068,3.23568 0.65056,0.71904 1.171,1.67776 1.69145,2.03728 0.52045,0.35952 1.39871,3.41544 1.39871,3.41544 -1.2686,0.26964 -1.59388,1.91744 -2.40708,2.247 -0.45539,0.17976 -0.94331,0.03 -1.36617,0.32956 -0.32528,0.23968 -0.32528,0.68908 -0.78067,0.8988 -0.94332,0.41944 -0.78068,-1.0486 -1.91916,-0.50932 -1.04089,0.47936 -1.13848,1.67776 -2.63476,1.16844 -0.78068,-0.26964 -1.2686,-3.32556 -1.49629,-4.0446 -0.13011,-0.41944 -0.94331,-1.67776 -1.20354,-2.06724 -0.87825,-1.31824 -2.63477,0 -3.18774,-0.38948 -0.87826,-0.5992 -0.48792,-1.61784 -1.82157,-1.73768 -2.69982,-0.17976 -0.78067,1.6478 -1.91915,2.06724 -2.17938,0.77896 -2.17938,-2.03728 -3.80578,-0.749 -0.61803,0.47936 0.97584,0.77896 0.58551,1.61784 -0.32528,0.68908 -1.91916,1.73768 -1.82157,2.5466 0.13011,1.10852 1.33365,1.43808 1.69145,2.36684 0.97584,2.45672 -0.65056,4.16444 -3.09016,2.247 -1.36617,-1.07856 -1.6264,-3.08588 -3.74072,-2.93608 -0.48792,0.03 -0.65056,0.53928 -1.13848,0.5992 -0.48792,0.03 -0.87825,-0.4494 -1.3987,-0.2996 -0.78067,0.26964 -0.0976,0.80892 -0.26022,1.25832 0,0 -1.0409,0.86884 -1.20354,1.10852 -0.5855,0.77896 -0.39034,1.46804 -1.23606,2.0972 -0.71562,0.53928 -1.2686,0.20972 -2.04927,1.0486 -0.8132,0.86884 -0.87825,2.15712 -1.91915,2.996 -0.52045,0.41944 -0.87826,-1.25832 -1.52882,-0.1498 -0.0976,0.1498 -0.19516,0.2996 -0.26022,0.4494 -0.16264,0.32956 -0.19517,0.47936 -0.0325,0.83888 1.36618,2.63648 -1.49629,3.62516 -2.37454,5.48268 -0.39034,0.77896 0.68309,1.498 0.26022,2.0972 -0.29275,0.4494 -1.56134,1.67776 -1.65893,1.9474 -0.0976,0.26964 -0.22769,0.86884 -0.45539,1.07856 -0.22769,0.23968 -1.00837,0.11984 -1.07342,0.47936 -0.0651,0.41944 0.8132,0.749 1.04089,1.01864 0.29276,0.32956 -0.13011,0.77896 -0.0325,0.86884 1.46376,1.46804 0.5855,1.01864 1.33364,2.30692 0.0976,0.17976 0.55298,-0.1498 0.71562,0.32956 0.16264,0.4494 -0.35781,0.41944 -0.16264,0.92876 0.0325,0.1498 1.07342,1.498 1.07342,1.52796 0.0651,0.4494 -1.9842,1.37816 -2.4396,1.37816 -1.23606,0.03 1.07343,-2.5466 -0.94331,-2.5466 -0.87825,0 -0.94331,2.00732 -1.17101,2.21704 -0.0976,0.0899 -0.91078,0 -1.10595,0 -1.30112,0 -2.14685,1.61784 -2.66729,1.76764 -0.32528,0.11984 -1.0409,-0.17976 -1.59388,-0.0899 -0.52044,0.0899 -1.13848,0.5992 -1.6264,0.5992 -0.32528,0 -0.48792,-0.20972 -0.74814,-0.35952 -0.5855,-0.32956 -1.65893,-0.47936 -2.30949,-0.68908 -0.35781,-0.11984 -1.04089,0.4494 -1.26859,0.2996 -0.42286,-0.26964 0.29275,-1.01864 -0.68309,-1.55792 -0.13011,-0.0599 -0.84573,-1.7976 -0.8132,-1.88748 0.32528,-1.13848 0.68309,-2.36684 0.52045,-3.56524 -0.19517,-1.22836 -2.11432,-2.27696 -2.63477,-3.26564 -0.39033,-0.749 -0.74814,-2.72636 -1.49629,-3.23568 -0.8132,-0.53928 -1.56134,-1.58788 -1.9842,-2.3968 -0.13012,-0.23968 0.26022,-0.65912 -0.0325,-1.07856 -0.32528,-0.4494 -0.94331,-0.62916 -1.10595,-1.22836 -0.13012,-0.47936 0,-2.03728 -0.55298,-2.36684 -0.61803,-0.35952 -4.58645,-0.83888 -5.56229,-0.92876 -0.52045,-0.03 -0.91078,-0.03 -1.30112,-0.41944 -0.16264,-0.1498 -0.42286,-0.77896 -0.55297,-0.77896 -0.39034,-0.03 -0.84573,0.17976 -1.23607,0.20972 -0.29275,0.03 -0.78067,-0.17976 -1.04089,0 -1.2686,0.86884 -1.59388,1.97736 -2.79741,2.90612 -1.23607,0.92876 -2.60224,0.8988 -3.83831,1.97736 -0.78067,0.68908 -1.30112,2.33688 -2.08179,3.11584 -0.32528,0.32956 -0.84573,0 -0.97584,0.1498 -0.65056,0.80892 -1.56134,1.28828 -2.2119,2.03728 -0.13011,0.1498 -0.0976,0.4494 -0.26023,0.56924 l -1.3987,0.35952 c -0.35781,0.0599 -1.0409,-0.03 -1.33365,0.0599 -0.65056,0.20972 -0.61803,0.8988 -2.82993,1.3482 -0.16264,0.03 -0.4554,0.17976 -0.58551,0.26964 -0.26022,0.17976 -0.45539,0.4494 -0.71561,0.62916 -0.16264,0.11984 -0.65056,-0.0899 -0.94332,-0.0599 -0.55297,0.0899 -0.87825,0.56924 -1.3987,0.62916 -1.17101,0.1498 -3.05763,-0.53928 -3.96842,-0.17976 -0.55297,0.20972 -2.08179,1.91744 -2.63476,2.0972 -0.35781,0.11984 -0.61804,-0.03 -1.00837,-0.17976 -0.19517,0.23968 -0.65056,2.0972 -0.8132,2.51664 0,0.03 -2.50466,2.12716 -2.69983,2.36684 -0.32528,0.35952 -0.45539,0.749 -0.84572,1.13848 -0.26023,0.26964 -0.68309,0.50932 -1.10596,0.50932 -0.52044,0 -1.30112,-0.38948 -1.78904,-0.47936 -0.94331,-0.1498 -3.77324,-0.26964 -4.61897,-0.0899 -0.87826,0.17976 -0.61803,2.6964 -2.79741,2.93608 -1.26859,0.1498 -2.4396,0.38948 -3.74072,0.50932 -0.13011,0 -0.91078,-0.53928 -1.69146,-0.32956 -0.29275,0.0899 -1.23606,1.0486 -1.23606,1.3482 l 0,0.53928 c 0,0.0899 0.26022,0.41944 0.2277,0.4494 -0.48792,0.56924 -1.59388,1.46804 -1.95168,2.12716 -0.0976,0.17976 -0.2277,0.38948 -0.39034,0.50932 -0.29275,0.20972 -1.78904,0.77896 -1.91915,1.0486 -0.35781,0.8988 1.04089,1.73768 0.91078,2.0972 -0.39033,1.16844 -1.95168,2.27696 -2.4396,3.35552 -0.19517,0.4494 0.52045,1.9474 0.48792,2.45672 -0.16264,1.40812 -0.65056,3.20572 -0.5855,4.58388 0,0.26964 0.19517,1.67776 0.29275,1.82756 0.16264,0.26964 0.52045,0.41944 0.74814,0.65912 0.2277,0.23968 1.95168,3.5952 2.01674,3.95472 0.32528,2.48668 -3.28533,1.61784 -1.20354,4.10452 0.32528,0.38948 0.58551,0.80892 0.94332,1.13848 0.45539,0.4494 3.12268,2.3968 3.15521,2.60652 0.0651,0.35952 -2.14685,0.71904 -2.53718,1.10852 -1.0409,1.01864 -1.91915,2.90612 -2.92752,3.95472 -0.61803,0.65912 -1.17101,-0.0599 -1.98421,1.46804 -0.29275,0.56924 0,1.85752 -0.35781,2.21704 -0.52045,0.53928 -0.94331,-0.17976 -1.46376,0.0599 -0.22769,0.0899 -0.35781,0.749 -0.5855,0.92876 -0.58551,0.50932 -5.78999,3.26564 -6.27791,3.02596 -0.26022,-0.11984 -0.55297,-0.98868 -0.5855,-1.25832 -0.0651,-0.2996 -0.39034,-0.95872 -0.65056,-1.16844 -1.33365,-1.13848 -3.38291,-1.3482 -4.68403,0.03 -0.32528,0.35952 -0.35781,0.8988 -0.78067,1.25832 -0.71562,0.5992 -1.52882,1.13848 -2.21191,1.73768 -0.13011,0.11984 -0.52045,0.56924 -0.68309,0.53928 -0.52044,-0.0599 -1.78904,-1.498 -2.11432,-1.88748 -0.5855,-0.68908 -2.27696,-2.33688 -2.4396,-3.11584 0,-2.66644 -2.08179,-5.45272 -2.96004,-8.05924 l 1.30112,0.03 c 1.46376,-0.98868 1.04089,-3.41544 3.67566,-2.45672 0.32528,-0.4494 0.29275,-0.92876 0.91078,-1.25832 0.2277,-0.11984 0.65056,-0.23968 0.78068,-0.4494 0.87825,-1.3482 1.91915,-6.50132 1.00836,-7.81956 -0.8132,-1.1984 -1.65892,-1.13848 -2.30948,-3.11584 -0.19517,-0.53928 0.16264,-1.16844 0,-1.76764 -0.13012,-0.47936 -1.00837,-3.32556 -1.13848,-3.53528 -0.16264,-0.23968 -0.71562,-0.53928 -0.74815,-0.68908 -0.0325,-0.23968 -0.22769,-3.32556 -0.13011,-3.56524 -0.87826,-2.3968 -3.8383,-3.92476 -4.00094,-4.1944 -0.35781,-0.56924 -0.71562,-1.31824 -1.10596,-1.9474 -0.45539,-0.749 -0.45539,-1.13848 -0.71561,-1.85752 -0.0976,-0.32956 -0.58551,-0.5992 -0.61803,-0.95872 -0.0651,-0.62916 1.72398,-1.9474 1.65892,-3.05592 -0.0325,-0.35952 -1.13848,-1.43808 -0.91078,-2.03728 0.2277,-0.62916 1.36618,-2.03728 1.33365,-2.72636 -0.0651,-0.92876 -1.78904,-2.93608 -2.01674,-3.92476 -0.0976,-0.47936 0.68309,-0.86884 0.48792,-1.1984 -0.22769,-0.41944 -2.04926,-2.06724 -2.34201,-2.5466 -0.2277,-0.35952 0.68308,-0.83888 0.0325,-1.498 -0.5855,-0.5992 -0.0976,-0.38948 -0.26022,-0.8988 -0.19517,-0.56924 -0.84573,-1.07856 -1.10595,-1.67776 -0.2277,-0.50932 -1.78904,-6.1418 -1.75651,-6.47136 -0.26023,-0.38948 -0.71562,-0.71904 -0.94332,-1.10852 -0.22769,-0.38948 -0.32528,-1.13848 -0.52044,-1.43808 -0.0325,-0.03 -1.75652,-0.53928 -2.0818,-1.0486 -0.26022,-0.41944 -0.32528,-1.7976 -0.78067,-2.48668 -0.22769,-0.32956 -0.5855,-0.26964 -0.84573,-0.50932 -0.22769,-0.17976 -0.19516,-0.50932 -0.3578,-0.71904 -0.52045,-0.71904 -1.56135,-0.0599 -2.27696,-2.6964 -0.94332,-0.65912 -1.82157,-1.22836 -2.63477,-2.03728 -0.16264,-0.1498 -0.26023,-0.32956 -0.45539,-0.41944 -0.65056,-0.26964 -1.6264,-0.35952 -2.17938,-0.83888 -0.32528,0 -2.04926,-0.0599 -2.24443,-0.17976 -0.19517,-0.11984 -0.39034,-0.86884 -0.52045,-0.8988 -0.91078,-0.17976 -2.40707,-0.0899 -3.18774,-0.749 -0.61804,-0.53928 -0.74815,-3.1458 -1.8541,-2.78628 -0.13011,-0.0599 -0.29275,-0.11984 -0.45539,-0.0899 -0.71562,-0.92876 -3.18775,-1.0486 -4.19611,-1.6478 -0.29276,-0.17976 -1.23607,-0.03 -1.23607,-0.2996 0.2277,-0.50932 0.16264,-0.92876 0.19517,-1.43808 -0.55298,-0.53928 -0.91078,-1.16844 -1.30112,-1.55792 -0.94331,-0.20972 -0.5855,-0.2996 -1.17101,-0.65912 -1.6264,-0.11984 -1.78904,0.1498 -2.82993,1.10852 -0.26023,0.23968 -0.78068,0.2996 -1.10596,0.47936 -0.55297,0.2996 -0.71561,1.28828 -1.49628,0.83888 -0.26023,-0.1498 -0.42287,-0.38948 -0.61804,-0.56924 -0.45539,-0.38948 -0.71561,-0.17976 -0.94331,-0.8988 -1.33365,-0.71904 -5.00931,1.76764 -5.88757,0.03 -0.61803,-0.32956 -1.07342,0.0899 -1.59387,-0.4494 -0.26022,-0.26964 0.71562,-3.26564 -1.95168,-4.494 0.61803,-0.47936 1.26859,-0.80892 1.8541,-1.25832 0.16264,-0.32956 -0.0325,-0.83888 -0.0325,-1.16844 0,-0.50932 0.32528,-1.498 0.2277,-1.85752 -0.0976,-0.35952 -0.48792,-0.65912 -0.61804,-1.07856 -0.16264,-0.41944 0.0325,-0.95872 -0.19516,-1.40812 -0.16264,-0.11984 -0.65056,-0.41944 -0.84573,-0.41944 -0.68309,-0.56924 -1.43123,-0.92876 -1.98421,-1.61784 -0.13011,-0.1498 -0.2277,-0.41944 -0.39034,-0.53928 -0.48792,-0.35952 -2.08179,-0.83888 -2.01673,-1.58788 0.0325,-0.23968 0.35781,-0.26964 0.45539,-0.50932 0.0976,-0.2996 0.0325,-0.68908 0.26022,-0.95872 0.74815,-1.01864 2.40708,-0.56924 2.14685,-2.45672 -0.13011,-0.83888 -0.71561,-1.55792 -0.87825,-2.45672 -0.29276,-0.20972 -0.32528,-0.56924 -0.58551,-0.77896 -1.6264,-0.1498 -1.3987,-1.82756 -1.98421,-2.21704 -1.72398,-1.16844 -3.05763,-0.4494 -1.13848,-2.75632 0.26023,-0.749 -1.65892,-1.9474 -2.04926,-2.36684 -0.68309,-0.65912 -0.35781,-2.03728 -0.61803,-2.75632 -0.13011,-0.35952 -1.26859,-0.98868 -1.6264,-1.498 -0.0976,-0.1498 -0.39034,-0.92876 -0.55298,-1.01864 l 0.0325,-0.23968 c 0.35781,-0.26964 0.16264,-0.80892 0.0651,-1.16844 -0.2277,-0.20972 -0.71562,-0.1498 -0.87826,-0.2996 -1.56134,-1.40812 -3.44797,-2.03728 -5.49723,-2.8462 -0.55298,-0.20972 -0.39034,-0.65912 -0.84573,-0.86884 -0.39034,-0.17976 -3.15522,-1.40812 -3.35038,-1.3482 -0.32528,-0.0899 -0.55298,-1.31824 -0.78068,-1.70772 -0.19516,-0.35952 -0.97584,-1.01864 -0.97584,-1.0486 0.0651,-1.13848 -0.65056,-1.28828 -1.52881,-1.88748 0.065,-0.1498 -0.0976,-0.50932 -0.0976,-0.68908 0,-0.1498 0.58551,-2.12716 0.68309,-2.3968 0.16264,-0.41944 0.71562,-0.80892 0.61803,-1.28828 -0.13011,-0.749 -0.22769,-1.91744 -0.48792,-2.57656 -0.87825,-2.33688 -1.91915,-2.03728 -1.36617,-5.0932 0.13011,-0.62916 -0.0976,-0.98868 0.39033,-1.55792 -0.065,-0.03 0.2277,-0.32956 0.26023,-0.38948 0.29275,-0.26964 1.10595,-0.71904 1.26859,-0.92876 0.48792,-0.65912 0.78067,-2.15712 1.3987,-2.63648 0.4554,-0.35952 1.75652,-1.0486 1.98421,-1.3482 0.19517,-0.23968 0.48792,-0.98868 0.32528,-1.28828 -0.45539,-0.26964 -0.91078,-0.1498 -1.36617,-0.20972 -0.16264,-0.03 -0.74815,-0.4494 -1.20354,-0.53928 -0.13011,-0.1498 -0.35781,-0.32956 -0.35781,-0.53928 l -0.19517,-0.17976 c -0.52044,-0.0599 -1.10595,-0.38948 -1.56134,-0.53928 -0.5855,-0.23968 -1.3987,-0.26964 -1.95168,-0.5992 -1.0409,-0.5992 -2.2119,-2.247 -3.22027,-2.48668 -1.36618,-0.2996 -2.24443,0.11984 -3.54555,0.17976 -0.84573,0.0599 -0.84573,-0.4494 -1.52882,-0.65912 -0.91078,-0.26964 -0.2277,0.47936 -2.30949,-0.17976 -0.26022,-0.20972 0.13011,-0.92876 0.16264,-1.1984 -0.32528,-0.0899 -0.71561,0.0899 -1.10595,0 -1.72398,-0.41944 -1.07342,-1.97736 -1.52882,-2.996 -0.19516,-0.23968 -0.91078,-0.17976 -1.23606,-0.20972 -0.0976,-0.03 -0.13011,-0.17976 -0.0976,-0.23968 l 0.16264,-0.11984 c 0.29275,-0.4494 -0.74815,-1.58788 -0.71562,-1.73768 0.0651,-0.35952 2.17938,-0.68908 2.47213,-0.71904 0.0976,-0.26964 -0.19517,-0.50932 -0.2277,-0.77896 -0.065,-0.5992 0.32528,-1.37816 0.52045,-1.91744 l -0.0651,-0.17976 c -0.5855,-0.32956 -0.78067,-0.80892 -1.30112,-1.1984 0.0325,-0.26964 0.39034,-0.4494 0.4554,-0.71904 1.00836,-2.78628 2.56971,-0.56924 3.93588,-3.1458 0.13012,-0.23968 0.52045,-0.86884 0.65056,-1.28828 l 0.26023,-0.0599 c 0.26022,0.0599 0.61803,0.26964 0.87825,0.17976 0.19517,-0.26964 0.61804,-0.35952 0.94332,-0.4494 l 0.48792,0.11984 c 2.53718,-0.53928 1.95168,-1.46804 3.41544,-2.51664 0.39033,-0.26964 1.52881,-0.38948 2.04926,-0.56924 0.55298,0.23968 1.33365,1.10852 2.37454,1.498 0.74815,0.2996 3.31786,0.83888 3.74072,1.07856 0.55298,0.2996 0.65056,1.01864 1.13848,1.28828 1.46376,0.77896 0.61804,-0.53928 2.01674,-0.26964 1.43123,0.2996 2.60224,1.46804 3.93589,2.03728 0.22769,0.0899 0.78067,-0.03 1.04089,-0.0899 0.42287,-0.0899 2.69983,-0.50932 2.92752,-0.41944 0.26023,0.0899 0.65056,0.32956 0.91079,0.38948 0.32528,0.0599 0.5855,-0.62916 0.8132,-0.5992 0.97584,0.1498 1.00837,0.53928 2.30949,0.41944 0.065,0 0.68308,-3.65512 1.30112,-3.83488 0.3578,-0.0899 1.33364,0.86884 1.6264,0.92876 0.48792,0.11984 -0.0325,-0.749 -0.0651,-0.80892 -0.13011,-0.2996 -0.8132,-2.5466 -0.78067,-2.75632 0.0325,-0.11984 0.65056,0.17976 0.94331,0.0899 0.71562,-0.23968 1.69146,-0.41944 2.2119,-0.98868 0.0651,-0.0599 1.17101,-1.6478 1.20354,-1.70772 0.0651,-0.26964 -0.29275,-0.8988 -0.13011,-1.10852 0.16264,-0.17976 0.78067,-0.41944 1.07342,-0.71904 0.42287,-0.41944 0.48792,-1.13848 1.07343,-1.43808 2.30948,-0.20972 3.12268,-2.00732 5.20448,-2.247 0.13011,0 0.5855,-0.0899 0.68308,-0.0599 l 0.42287,0.68908 c 0.13011,0.17976 1.52881,1.01864 1.75651,0.95872 0.19517,-0.03 0.29275,-0.35952 0.48792,-0.41944 0.42286,0.0599 1.59387,-0.65912 1.72398,-1.01864 0.0325,-0.0599 -0.26022,-0.41944 -0.13011,-0.65912 0.0976,-0.17976 1.56135,-1.25832 1.78904,-1.37816 0.52045,0 1.07343,-0.11984 1.56135,0.0599 0.29275,0.11984 0.32528,0.56924 0.65056,0.62916 0.3578,0.03 1.00836,-0.11984 1.26859,-0.0599 0.29275,0.0599 0.42286,-0.53928 0.78067,-0.56924 z"
     id="path3671"
     inkscape:connector-curvature="0"
     style="fill:#d0a650" />
  <use
     height="100%"
     width="100%"
     id="use3674"
     y="121.826"
     x="461.83499"
     xlink:href="#star"
     transform="matrix(0.75328,0,0,0.75328,-67.477312,17.736422)" />
  <use
     height="100%"
     width="100%"
     id="use3676"
     y="136.356"
     x="544.23297"
     xlink:href="#star"
     transform="matrix(0.75328,0,0,0.75328,-60.811355,16.090463)" />
  <use
     height="100%"
     width="100%"
     id="use3678"
     y="164.972"
     x="622.85699"
     xlink:href="#star"
     transform="matrix(0.75328,0,0,0.75328,-53.717884,12.848843)" />
  <use
     xlink:href="#star"
     x="461.83499"
     y="121.826"
     id="use3370"
     width="100%"
     height="100%"
     transform="matrix(-0.75328,0,0,0.75328,562.30473,17.436273)" />
  <use
     xlink:href="#star"
     x="544.23297"
     y="136.356"
     id="use3372"
     width="100%"
     height="100%"
     transform="matrix(-0.75328,0,0,0.75328,553.63877,15.790314)" />
  <use
     xlink:href="#star"
     x="622.85699"
     y="164.972"
     id="use3374"
     width="100%"
     height="100%"
     transform="matrix(-0.75328,0,0,0.75328,552.5453,12.548694)" />
</svg>
