<?xml version="1.0" encoding="UTF-8" standalone="no"?>
<!-- Created with Sodipodi ("http://www.sodipodi.com/") -->

<!-- /Creative Commons Public Domain -->

<!--
<rdf:RDF xmlns="http://web.resource.org/cc/"
     xmlns:dc="http://purl.org/dc/elements/1.1/"
     xmlns:rdf="http://www.w3.org/1999/02/22-rdf-syntax-ns#">
<Work rdf:about="">
    <dc:title>New Zealand, Australia, United Kingdom, United States, 
Bosnia and Herzegovina, Azerbaijan, Armenia, Bahamas, Belgium, Benin, 
Bulgaria, Estonia, Finland, Gabon, Gambia, Germany, Greece, Greenland, 
Guinea, Honduras, Israel, Jamaica, Jordan, and Romania Flags</dc:title>
    <dc:rights><Agent>
       <dc:title>Daniel McRae</dc:title>
    </Agent></dc:rights>
    <license rdf:resource="http://web.resource.org/cc/PublicDomain" />
</Work>

<License rdf:about="http://web.resource.org/cc/PublicDomain">
    <permits rdf:resource="http://web.resource.org/cc/Reproduction" />
    <permits rdf:resource="http://web.resource.org/cc/Distribution" />
    <permits rdf:resource="http://web.resource.org/cc/DerivativeWorks" />
</License>
</rdf:RDF>
-->

<svg
   xmlns:dc="http://purl.org/dc/elements/1.1/"
   xmlns:cc="http://creativecommons.org/ns#"
   xmlns:rdf="http://www.w3.org/1999/02/22-rdf-syntax-ns#"
   xmlns:svg="http://www.w3.org/2000/svg"
   xmlns="http://www.w3.org/2000/svg"
   xmlns:xlink="http://www.w3.org/1999/xlink"
   xmlns:sodipodi="http://sodipodi.sourceforge.net/DTD/sodipodi-0.dtd"
   xmlns:inkscape="http://www.inkscape.org/namespaces/inkscape"
   id="svg153"
   sodipodi:version="0.29win"
   width="480"
   height="480"
   sodipodi:docname="_united_nations.svg"
   version="1.1"
   inkscape:version="0.91 r13725">
  <sodipodi:namedview
     id="base"
     showgrid="false"
     inkscape:zoom="0.5"
     inkscape:cx="232.0364"
     inkscape:cy="245.0738"
     inkscape:window-width="3775"
     inkscape:window-height="2136"
     inkscape:window-x="65"
     inkscape:window-y="24"
     inkscape:window-maximized="1"
     inkscape:current-layer="svg153"
     showguides="true"
     inkscape:guide-bbox="true">
    <sodipodi:guide
       position="682,570"
       orientation="1,0"
       id="guide5457" />
  </sodipodi:namedview>
  <metadata
     id="metadata3151">
    <rdf:RDF>
      <cc:Work
         rdf:about="">
        <dc:format>image/svg+xml</dc:format>
        <dc:type
           rdf:resource="http://purl.org/dc/dcmitype/StillImage" />
        <dc:title></dc:title>
      </cc:Work>
    </rdf:RDF>
  </metadata>
  <desc
     id="desc3066">
    The United States of America flag, produced by Daniel McRae
  </desc>
  <defs
     id="defs155">
    <clipPath
       clipPathUnits="userSpaceOnUse"
       id="clipPath6304">
      <rect
         id="rect6306"
         height="130"
         x="0"
         style="fill:#000000;fill-opacity:0.67000002;stroke:none"
         width="130"
         y="-1.2695313e-06" />
    </clipPath>
    <clipPath
       clipPathUnits="userSpaceOnUse"
       id="clipPath4293">
      <rect
         id="rect4295"
         height="512"
         x="0"
         style="fill:#000000;fill-opacity:0.67000002;stroke:none"
         width="682.66669"
         y="5.2306668e-06" />
    </clipPath>
    <clipPath
       clipPathUnits="userSpaceOnUse"
       id="clipPath4164">
      <rect
         style="opacity:0.744;fill:#000000;fill-opacity:1;stroke:#000000;stroke-width:2.14086294;stroke-linejoin:round;stroke-miterlimit:4;stroke-dasharray:none;stroke-opacity:1"
         id="rect4166"
         width="995.30212"
         height="557.94745"
         x="-160.83763"
         y="59.011711" />
    </clipPath>
    <clipPath
       clipPathUnits="userSpaceOnUse"
       id="clipPath4168">
      <rect
         style="opacity:0.744;fill:#000000;fill-opacity:1;stroke:#000000;stroke-width:2.14086294;stroke-linejoin:round;stroke-miterlimit:4;stroke-dasharray:none;stroke-opacity:1"
         id="rect4170"
         width="995.30212"
         height="557.94745"
         x="-160.83763"
         y="59.011711" />
    </clipPath>
    <clipPath
       clipPathUnits="userSpaceOnUse"
       id="clipPath4172">
      <rect
         style="opacity:0.744;fill:#000000;fill-opacity:1;stroke:#000000;stroke-width:2.14086294;stroke-linejoin:round;stroke-miterlimit:4;stroke-dasharray:none;stroke-opacity:1"
         id="rect4174"
         width="995.30212"
         height="557.94745"
         x="-160.83763"
         y="59.011711" />
    </clipPath>
    <clipPath
       id="clip_white">
      <path
         id="path4629"
         d="m 0,0 -11,-5.5 0,11 11,-5.5 0.2,-11 10,0 z"
         inkscape:connector-curvature="0" />
    </clipPath>
    <clipPath
       id="clip_color">
      <path
         id="path4632"
         d="m 0,0 -11,-11 0,22 11,-11 0,-11 11,0 z"
         inkscape:connector-curvature="0" />
    </clipPath>
    <circle
       r="145.6633"
       id="rb"
       cx="0"
       cy="0"
       style="fill:none;stroke:#013ba6;stroke-width:39.03036118" />
    <circle
       r="145.6633"
       id="rw"
       cx="0"
       cy="0"
       style="fill:none;stroke:#ffffff;stroke-width:17.34682655" />
    <clipPath
       id="o">
      <path
         id="path4724"
         d="m 0,-200 0,400 200,0 0,-400 z m -200,0 0,400 100,0 0,-400 z"
         inkscape:connector-curvature="0" />
    </clipPath>
    <clipPath
       id="h">
      <path
         id="path4727"
         d="m -200,-200 400,0 0,250 -400,0 z"
         inkscape:connector-curvature="0" />
    </clipPath>
    <clipPath
       id="i1">
      <path
         id="path4730"
         d="m 0,0 -200,-150 0,300 z"
         inkscape:connector-curvature="0" />
    </clipPath>
    <clipPath
       id="i2">
      <path
         id="path4733"
         d="m 0,0 -200,-200 0,400 z"
         inkscape:connector-curvature="0" />
    </clipPath>
    <clipPath
       id="l1">
      <path
         id="path4736"
         d="m 0,0 -50,-200 -150,0 0,350 z"
         inkscape:connector-curvature="0" />
    </clipPath>
    <clipPath
       id="l2">
      <path
         id="path4739"
         d="m 0,0 0,-200 -200,0 0,400 z"
         inkscape:connector-curvature="0" />
    </clipPath>
  </defs>
  <rect
     id="rect5"
     height="480"
     width="481.64743"
     y="0"
     x="0"
     style="fill:#4b92db;fill-rule:evenodd;stroke:none" />
  <g
     id="g4303"
     transform="matrix(0.53333333,0,0,0.6,-80.550264,2.229701)">
    <g
       id="branches-olive">
      <path
         inkscape:connector-curvature="0"
         d="m 663.85296,587.03061 c -2.6938,3.07789 -6.17965,5.95542 -9.46619,8.6077 -21.23248,-21.94305 -46.15966,-46.26232 -69.85339,-46.26232 -14.68962,0 -25.26978,11.18247 -37.61316,19.07207 -17.12945,10.94875 -40.62604,17.11471 -60.76155,9.07899 -10.83022,-4.11181 -21.32307,-10.16897 -29.16467,-20.00887 15.84826,10.92988 39.58091,12.3989 57.47189,4.97653 19.77572,-8.20428 39.90389,-19.09846 62.44104,-19.09846 33.22191,0 64.79633,22.4724 86.94603,43.63436 z M 418.31123,518.01637 c 21.99574,25.03833 57.87067,16.98283 87.23346,23.23624 4.08708,0.87043 7.92673,2.2277 12.31363,1.55399 -3.49104,-2.21317 -8.11811,-2.46288 -12.15065,-3.98204 -22.78289,-8.58288 -26.33489,-32.9661 -38.80319,-49.7476 15.92509,10.58731 29.11884,25.08204 44.0112,38.70353 10.36472,9.48023 23.27776,13.53648 36.66995,16.26142 -3.21803,1.17614 -7.4278,0.89873 -10.89355,1.7585 -24.05596,5.96772 -50.72732,15.38772 -76.32434,6.94056 -16.51902,-5.45137 -33.70936,-18.36144 -42.05651,-34.7246 z m -35.25816,-57.95044 c 13.72021,31.0633 48.19128,33.49604 71.11114,52.55246 4.35824,3.6236 8.67829,6.95821 13.46589,9.1911 l 0.24706,-0.25017 c -5.28898,-4.78552 -11.01252,-10.48869 -15.10916,-16.44101 -13.09999,-19.03396 -8.74058,-45.05135 -18.84103,-65.23149 9.17657,10.988 17.78396,22.30262 23.06807,34.88342 8.50335,20.2454 11.39181,43.34164 30.4633,58.72588 -20.64105,-6.80976 -44.45204,-5.4544 -63.03909,-17.62856 -19.53758,-12.79675 -37.64469,-32.99516 -41.36618,-55.80163 z m -14.69705,-62.84601 c 1.98376,27.36777 31.1208,41.98736 45.01398,64.48409 2.96731,4.80486 6.02083,9.76515 10.32987,13.64547 -0.67163,-2.91387 -3.06923,-5.4956 -4.38897,-8.35441 -4.45607,-9.65268 -6.47284,-20.82355 -5.36062,-32.31004 1.35322,-13.97546 7.17932,-26.95254 4.94331,-41.65477 11.97521,25.84803 8.11231,58.16158 15.03338,86.11027 1.5311,6.18289 5.29625,11.5932 7.61634,17.44897 -11.76596,-8.95063 -27.18531,-16.89557 -40.10037,-27.07554 -12.49005,-9.84497 -23.33146,-21.38399 -28.9668,-36.3985 -4.06068,-10.81905 -5.11667,-23.72412 -4.12012,-35.89554 z m 0.81385,-50.42545 c 1.40556,-6.10802 2.481,-12.42989 5.13847,-18.03341 -5.03154,25.81689 12.14351,44.466 18.00746,66.8021 2.20979,8.4172 2.96577,17.36074 6.36962,25.2148 0.31765,0.17025 0.59273,-0.15986 0.78893,-0.41419 -8.47379,-23.77084 3.94797,-45.73963 16.04862,-64.47681 3.1807,-4.92513 4.71181,-10.65998 6.19729,-16.45762 1.30798,10.76067 -0.98237,23.21736 -2.97304,34.32182 -2.56285,14.29621 -7.44921,27.69476 -11.33265,41.48764 -2.55677,8.61705 -1.88306,18.34172 -0.57094,27.36985 l -1.23323,-0.9841 c -9.00944,-16.63201 -26.7842,-29.62498 -32.15224,-47.77733 -4.29027,-14.50781 -7.25821,-31.26884 -4.28829,-47.05275 z m 9.50253,-27.77158 c 0,-19.53651 7.607,-35.47408 19.0175,-50.02372 0.33115,-0.16505 0.56679,-0.49723 0.99448,-0.41938 -12.56173,19.10782 -1.12831,43.22806 -2.74259,64.90139 l -1.65677,22.24384 c 0.24603,0.16194 0.24603,0.82942 0.82942,0.57405 0.74223,-2.47996 0.96749,-5.11783 1.39933,-7.67863 3.02406,-17.93268 18.77089,-30.41447 32.12525,-43.07485 3.15888,-2.99473 5.47169,-6.53571 6.96132,-10.34129 -1.11074,8.93262 -3.60252,18.08966 -7.61219,26.2072 -10.27917,20.81007 -30.13216,37.60836 -33.70313,61.25775 -1.7315,-22.66529 -15.61262,-39.51441 -15.61262,-63.64636 z m 33.11143,-65.90312 c 6.31666,-7.00335 13.39633,-12.45896 21.82445,-14.61712 -16.36626,11.25376 -15.47764,31.3665 -20.48845,48.18322 -1.83219,6.14897 -4.52497,11.90982 -5.95647,18.2649 l 0.41419,0.33115 c 2.72287,-7.18451 7.39468,-14.09066 13.48146,-19.83343 11.51143,-10.86085 28.81796,-17.43445 34.51387,-33.32112 -0.26056,22.0767 -19.07854,38.85848 -36.26614,51.84138 -7.70883,5.82298 -14.26001,13.64133 -18.25763,21.83692 0.66796,-6.09998 0.97133,-11.17418 0.42665,-17.12822 -1.76421,-19.285 -2.90827,-40.90457 10.30807,-55.55768 z m 66.42839,-37.11632 c -12.1465,10.6579 -20.25114,24.37608 -29.58198,36.70835 -7.76061,10.25695 -18.40919,16.61229 -27.56708,25.21896 4.94331,-10.25617 5.85603,-22.00815 12.13404,-31.9301 10.73525,-16.96631 28.47747,-23.55181 45.01502,-29.99721 z"
         style="fill:#ffffff"
         id="path4878" />
    </g>
    <use
       height="100%"
       width="100%"
       y="0"
       x="0"
       xlink:href="#branches-olive"
       transform="matrix(-1,0,0,1,1202.2,0)"
       id="use4880" />
  </g>
  <path
     id="path51"
     d="m 319.14841,264.2377 -1.91339,-1.1745 c -4.05669,9.4116 -9.42826,17.9766 -15.85386,25.3848 l -11.17814,-12.5754 c 5.47627,-6.3486 9.89174,-13.5546 13.14454,-21.3426 l -1.90464,-1.17126 c -3.21558,7.7226 -7.54187,14.7492 -12.75947,20.8032 l -10.12587,-11.3916 c 4.34694,-5.08392 7.79627,-10.8846 10.28587,-17.1534 l -1.88971,-1.16004 c -2.43808,6.1782 -5.8016,11.7966 -9.91146,16.6122 l -11.1904,-12.5892 c 3.11205,-3.71016 5.51466,-7.9788 7.14986,-12.5982 l -1.89013,-1.16004 c -1.56245,4.50438 -3.87211,8.5938 -6.76533,12.0624 l -10.1568,-11.4246 c 2.89338,-3.63252 4.57141,-8.19 4.80885,-13.059 l 14.37653,0 c -0.12223,4.37016 -0.91802,8.5506 -2.26304,12.4218 l 1.89014,1.16004 c 1.51301,-4.27986 2.36741,-8.8578 2.48965,-13.5822 l 15.848,0 c -0.14261,7.8714 -1.70261,15.3564 -4.3864,22.1574 l 1.88971,1.16004 c 2.8817,-7.2606 4.47413,-15.1506 4.61509,-23.3184 l 14.34933,0 c -0.15092,11.085 -2.42394,21.5958 -6.36533,31.0596 l 1.90464,1.17126 c 4.16645,-9.9744 6.43093,-20.907 6.58027,-32.2308 l 15.84693,0 c -0.15799,14.5914 -3.21349,28.407 -8.53973,40.764 l 1.91424,1.17402 c 5.7296,-13.2762 8.7712,-27.9372 8.7712,-43.1298 0,-12.9198 -2.20027,-25.4538 -6.3808,-37.0818 l -1.96368,0.9495 c 3.93738,10.9728 6.07146,22.773 6.20266,34.9404 l -15.84906,0 c -0.12848,-9.7068 -1.824,-19.1196 -4.92566,-27.894 l -1.94912,0.93972 c 2.9919,8.4828 4.62966,17.5764 4.75606,26.9544 l -14.35094,0 c -0.12223,-7.1484 -1.36165,-14.0844 -3.59808,-20.574 l -1.94912,0.94206 c 2.1271,6.1932 3.30667,12.8118 3.43056,19.632 l -15.8496,0 c -0.11225,-4.35846 -0.84608,-8.5968 -2.14746,-12.5892 l -1.94875,0.94062 c 1.19536,3.69798 1.86725,7.617 1.97952,11.6484 l -14.37653,0 c -0.2374,-4.86972 -1.91547,-9.4266 -4.80886,-13.059 l 10.16694,-11.436 c 3.13952,3.75648 5.51413,8.1186 7.03946,12.8472 l 1.94875,-0.94062 c -1.63232,-5.0016 -4.15856,-9.6162 -7.49227,-13.5912 l 11.20694,-12.6066 c 4.78224,5.59986 8.43253,12.1014 10.85173,19.1544 l 1.94912,-0.94206 c -2.52581,-7.326 -6.328,-14.0808 -11.30293,-19.8972 l 10.1472,-11.4174 c 6.28426,7.2912 11.11253,15.7518 14.34826,24.9348 l 1.94912,-0.93972 c -3.34325,-9.4572 -8.32266,-18.171 -14.79946,-25.6776 l 11.20533,-12.6084 c 7.9248,9.1332 14.03787,19.731 18.16587,31.2396 l 1.96368,-0.9495 c -4.36187,-12.1434 -10.88267,-23.2968 -19.3632,-32.8368 -8.51147,-9.5766 -18.46934,-16.929 -29.3104,-21.837 l -0.7808,2.23632 c 10.25226,4.64568 19.69333,11.5308 27.82666,20.463 l -11.20533,12.6078 c -6.56,-7.152 -14.16,-12.696 -22.41067,-16.452 l -0.77333,2.21712 c 7.97813,3.6414 15.33227,9.0036 21.68693,15.9384 l -10.14666,11.4156 c -4.93275,-5.33838 -10.6208,-9.4842 -16.78667,-12.3222 l -0.77461,2.21712 c 5.89973,2.71992 11.3408,6.687 16.064,11.7906 l -11.20534,12.606 c -3.152,-3.34254 -6.75626,-5.96562 -10.65066,-7.7952 l -0.77499,2.21898 c 3.62928,1.71102 6.9856,4.15218 9.928,7.2618 l -10.16533,11.436 c -3.23099,-3.25554 -7.28054,-5.1429 -11.61014,-5.40858 l 0,-16.173 c 4.13152,0.14313 8.13174,1.13052 11.84747,2.88414 l 0.77499,-2.21898 c -3.95942,-1.86114 -8.22294,-2.90328 -12.6224,-3.04878 l 0,-17.8296 c 6.41706,0.145 12.63466,1.61232 18.41493,4.2771 l 0.77461,-2.21712 c -6.02346,-2.77278 -12.50453,-4.29624 -19.18986,-4.44126 l 0,-16.152 c 8.50986,0.14594 16.76106,2.0553 24.4352,5.5554 l 0.77333,-2.21712 c -7.9184,-3.60864 -16.42827,-5.57412 -25.20907,-5.72052 l 0,-17.8314 c 10.79467,0.14687 21.26454,2.54034 31,6.9504 l 0.7808,-2.23632 c -10.3008,-4.66578 -21.40053,-7.1244 -32.8384,-7.1244 -14.13066,0 -27.48213,3.79296 -39.32213,10.4862 l 0.96587,2.0796 c 11.45706,-6.4584 24.1328,-9.9768 37.2976,-10.1556 l 0,17.832 c -10.73654,0.17962 -20.8816,3.11052 -29.92907,8.1648 l 0.96251,2.07396 c 8.9136,-4.96422 18.75306,-7.6836 28.9664,-7.8588 l 0,16.1454 c -7.98347,0.17681 -15.5376,2.33688 -22.29867,6.0492 l 0.96832,2.08332 c 6.58187,-3.59418 13.8192,-5.58066 21.33067,-5.75094 l 0,17.8314 c -4.98096,0.16558 -9.70507,1.49304 -13.97067,3.74478 l 0.97333,2.0913 c 4.0351,-2.11002 8.43734,-3.29622 12.99734,-3.4548 l 0,16.1754 c -2.23019,0.13939 -4.35734,0.7119 -6.31787,1.64226 l 0.97168,2.09034 c 2.00528,-0.92382 4.17189,-1.41024 6.4048,-1.41024 4.51573,0 8.76053,1.97808 11.95413,5.56992 3.19318,3.59232 4.95147,8.3694 4.95147,13.4502 0,10.4868 -7.5824,19.0212 -16.9056,19.0212 -4.51696,0 -8.76267,-1.97904 -11.95573,-5.57136 -3.19312,-3.59418 -4.9519,-8.3694 -4.9519,-13.4502 0,-5.08068 1.75872,-9.858 4.9519,-13.4502 1.61525,-1.81626 3.49914,-3.2148 5.5504,-4.15968 l -0.97168,-2.09034 c -1.94832,0.92568 -3.73115,2.20494 -5.28534,3.771 l -10.1712,-11.4426 c 2.62768,-2.77794 5.58667,-5.02404 8.77654,-6.6918 l -0.97334,-2.0913 c -3.43056,1.81158 -6.56373,4.21908 -9.29066,7.1112 l -11.21707,-12.6198 c 3.93365,-4.25088 8.37013,-7.7052 13.14827,-10.3164 l -0.96832,-2.08332 c -5.04624,2.77002 -9.6528,6.4008 -13.6592,10.734 l -10.16534,-11.4348 c 5.13067,-5.60034 10.92054,-10.1634 17.15627,-13.635 l -0.96251,-2.07396 c -6.52746,3.64752 -12.48906,8.3946 -17.66933,14.0502 l -11.2288,-12.633 c 6.43734,-7.0698 13.7008,-12.8436 21.5296,-17.2578 l -0.96587,-2.0796 c -17.11306,9.675 -31.04533,25.4418 -39.52906,44.7702 l 1.84144,1.11792 c 3.95648,-9.0528 9.18933,-17.4462 15.62667,-24.867 l 11.22986,12.6336 c -5.22378,6.0546 -9.58826,13.0494 -12.8752,20.7336 l 1.8344,1.1142 c 3.13078,-7.3578 7.32854,-14.1726 12.51413,-20.1888 l 10.16587,11.4354 c -4.09744,4.79532 -7.48747,10.3548 -10.00053,16.4616 l 1.83856,1.11606 c 2.36698,-5.80518 5.6016,-11.181 9.64213,-15.9126 l 11.21707,12.6198 c -2.8672,3.42204 -5.20256,7.413 -6.86027,11.8038 l 1.85349,1.12776 c 1.52342,-4.11852 3.70704,-7.9272 6.49227,-11.2602 l 10.1712,11.4414 c -2.79232,3.51138 -4.56517,8.0508 -4.81131,13.0536 l -14.37973,0 c 0.12764,-4.61244 0.99205,-9.0816 2.52747,-13.2354 l -1.8535,-1.12776 c -1.67472,4.43562 -2.6568,9.2814 -2.79109,14.3628 l -15.848,0 c 0.14261,-8.0238 1.74208,-15.7716 4.63963,-22.8744 l -1.83856,-1.11606 c -3.01563,7.3248 -4.76811,15.4392 -4.91611,23.991 l -14.3536,0 c 0.15051,-11.1504 2.42438,-21.9072 6.59094,-31.6992 l -1.8344,-1.1142 c -4.26336,9.96 -6.7152,21.0774 -6.87094,32.8134 l -15.8512,0 c 0.15592,-14.5626 3.1807,-28.5948 8.73974,-41.313 l -1.84144,-1.11792 c -5.77867,13.1676 -9.04107,27.9714 -9.04107,43.6224 0,9.5736 1.21531,18.9306 3.53696,27.8688 l 2.07595,-0.58749 c -2.18283,-8.376 -3.37403,-17.1318 -3.47003,-26.0892 l 15.84853,0 c 0.0977,7.4688 1.12054,14.7666 2.99814,21.7338 l 2.05514,-0.58281 c -1.83813,-6.7782 -2.83722,-13.8816 -2.93658,-21.1512 l 14.35093,0 c 0.10352,5.92122 0.97168,11.6988 2.53456,17.1972 l 2.0585,-0.58421 c -1.52384,-5.30796 -2.37157,-10.8912 -2.47466,-16.6128 l 15.848,0 c 0.1106,4.2345 0.80661,8.355 2.03936,12.2472 l 2.05973,-0.58515 c -1.19451,-3.70128 -1.87056,-7.6266 -1.9824,-11.6616 l 14.37813,0 c 0.23741,4.86924 1.91424,9.4266 4.80758,13.059 l -10.16587,11.4372 c -3.13616,-3.75504 -5.5104,-8.1114 -7.03787,-12.8346 l -2.05973,0.58515 c 1.62693,5.1321 4.19099,9.8682 7.6,13.9332 l -11.20533,12.6072 c -5.45067,-6.384 -9.44,-13.95 -11.80267,-22.17 l -2.05851,0.58421 c 2.4535,8.6316 6.6368,16.572 12.36854,23.274 l -10.1488,11.418 c -7.58933,-8.8044 -13.07093,-19.3074 -16.168,-30.7392 l -2.05515,0.58282 c 3.19147,11.8422 8.8624,22.7262 16.72533,31.8402 l -11.20586,12.6072 c -9.91787,-11.4324 -17.0016,-25.1538 -20.896,-40.0914 l -2.07595,0.58749 c 4.08496,15.7266 11.62134,30.1422 22.20694,42.0486 7.16853,8.0664 15.36213,14.559 24.24479,19.3434 l 1.0519,-2.0988 c -8.40694,-4.5072 -16.18347,-10.581 -23.03413,-18.1062 l 11.20533,-12.6054 c 5.824,6.3594 12.46506,11.4306 19.64586,15.1248 l 1.04566,-2.08662 c -7.01707,-3.58248 -13.50667,-8.5212 -19.19254,-14.7222 l 10.14774,-11.4168 c 4.75605,5.14752 10.21706,9.183 16.13066,12.0096 l 1.04486,-2.0829 c -5.744,-2.712 -11.056,-6.612 -15.67467,-11.604 l 11.20693,-12.6072 c 3.60102,3.82194 7.79307,6.7002 12.3376,8.5314 l 1.05899,-2.11002 c -4.3864,-1.70868 -8.432,-4.44126 -11.89867,-8.1054 l 10.16587,-11.4378 c 3.22891,3.25788 7.27787,5.1438 11.608,5.41092 l 0,16.1754 c -3.41019,-0.11881 -6.73067,-0.81948 -9.8752,-2.04216 l -1.05899,2.11002 c 3.47382,1.40184 7.15094,2.18814 10.9344,2.31348 l 0,17.8278 c -6.55786,-0.14734 -12.912,-1.67502 -18.79946,-4.45344 l -1.04486,2.0829 c 6.20854,2.9688 12.91467,4.60308 19.84427,4.75368 l 0,16.1454 c -9.4432,-0.16371 -18.5632,-2.4987 -26.93013,-6.7698 l -1.04566,2.08662 c 8.68534,4.46466 18.1632,6.9006 27.976,7.0656 l 0,17.8272 c -12.58773,-0.17027 -24.736,-3.3804 -35.79253,-9.306 l -1.05189,2.0988 c 11.6848,6.2922 24.56533,9.6186 37.90346,9.6186 13.99147,0 27.472,-3.67788 39.6048,-10.584 l -1.00202,-2.18622 c -11.31467,6.4464 -24.05227,10.1724 -37.54507,10.359 l 0,-17.8278 c 10.69813,-0.17775 20.99627,-3.06282 30.3008,-8.328 l -0.98912,-2.15724 c -8.84427,5.01096 -18.78507,7.9176 -29.31147,8.1018 l 0,-16.1454 c 8.02667,-0.174 15.752,-2.3406 22.7504,-6.2676 l -0.9833,-2.14698 c -6.584,3.69426 -13.96,5.85246 -21.76694,6.0318 l 0,-17.8278 c 5.11195,-0.16839 10.03307,-1.55244 14.512,-4.01886 l -0.97664,-2.13432 c -4.11365,2.25876 -8.69386,3.59838 -13.536,3.77052 l 0,-16.173 c 4.32944,-0.26709 8.3792,-2.15304 11.61014,-5.41092 l 10.1552,11.4258 c -2.43147,2.56746 -5.20342,4.72566 -8.22934,6.3882 l 0.97664,2.13432 c 3.17275,-1.74798 6.12694,-4.03152 8.76054,-6.8262 l 11.18826,12.5874 c -3.7353,4.0371 -8.01546,7.4298 -12.6944,10.0536 l 0.98331,2.14698 c 4.79888,-2.69142 9.25973,-6.2034 13.22613,-10.4952 l 10.12587,11.3904 c -4.93275,5.38188 -10.59467,9.9108 -16.7904,13.4166 l 0.98912,2.15724 c 6.29173,-3.55908 12.13227,-8.196 17.32053,-13.8636 l 11.17814,12.5754 c -6.23627,6.8478 -13.4064,12.6144 -21.25387,17.0838 l 1.00203,2.18622 c 8.22346,-4.6812 15.83626,-10.8312 22.544,-18.378 7.05173,-7.9314 12.74186,-16.983 16.97333,-26.787 z"
     style="fill:#ffffff"
     inkscape:connector-curvature="0" />
  <polygon
     id="polygon59"
     transform="matrix(0.41783466,0,0,0.477066,26.095687,94.857701)"
     points="524.04,216.67 522.77,216.72 522.83,218.22 524.11,218.16 "
     style="fill:#ffffff" />
  <rect
     id="rect61"
     height="0.60732001"
     width="0.70821333"
     y="197.27171"
     x="243.74901"
     style="fill:#ffffff" />
  <polygon
     id="polygon63"
     transform="matrix(0.41783466,0,0,0.477066,26.095687,94.857701)"
     points="517.85,214.23 519.34,214.45 519.52,213.19 518.03,212.98 "
     style="fill:#ffffff" />
  <rect
     id="rect65"
     transform="matrix(-0.98703463,-0.16050744,0.12377958,-0.99230974,0,0)"
     height="0.60686839"
     width="0.62697482"
     y="-155.57632"
     x="-264.63483"
     style="fill:#ffffff" />
  <rect
     id="rect67"
     height="0.60780001"
     width="0.70821333"
     y="196.05371"
     x="236.83702"
     style="fill:#ffffff" />
  <polygon
     id="polygon69"
     transform="matrix(0.41783466,0,0,0.477066,26.095687,94.857701)"
     points="500.67,214.66 502.15,214.87 502.33,213.61 500.85,213.4 "
     style="fill:#ffffff" />
  <rect
     id="rect71"
     transform="matrix(-0.96147484,-0.27489293,0.21422812,-0.97678366,0,0)"
     height="0.60311264"
     width="0.738949"
     y="-126.09556"
     x="-272.88266"
     style="fill:#ffffff" />
  <rect
     id="rect73"
     transform="matrix(-0.14355499,-0.98964234,0.98258711,-0.18580249,0,0)"
     height="0.53449655"
     width="0.61398512"
     y="203.29189"
     x="-239.17888"
     style="fill:#ffffff" />
  <polygon
     id="polygon75"
     transform="matrix(0.41783466,0,0,0.477066,26.095687,94.857701)"
     points="331.22,348.34 331.22,351.1 332.5,351.1 332.28,347.92 330.58,347.28 330.58,346.22 329.52,346.22 329.52,348.34 "
     style="fill:#ffffff" />
  <polygon
     id="polygon77"
     transform="matrix(0.41783466,0,0,0.477066,26.095687,94.857701)"
     points="341.62,359.8 340.13,355.98 343.31,357.46 344.38,360.43 345.86,361.5 347.35,364.68 346.5,366.16 344.17,364.04 342.47,361.71 "
     style="fill:#ffffff" />
  <polygon
     id="polygon79"
     transform="matrix(0.41783466,0,0,0.477066,26.095687,94.857701)"
     points="393.81,421.33 394.88,424.09 393.39,424.94 392.54,423.67 390.42,423.03 390.21,421.12 388.51,418.57 391.06,419 "
     style="fill:#ffffff" />
  <path
     inkscape:connector-curvature="0"
     id="path81"
     d="m 237.27969,204.7597 -0.97483,0 -0.17757,-2.22648 0.53189,-0.40646 0,-1.113 -3.10325,0 -0.0886,-1.11252 0.44458,-0.3039 -0.7103,-0.30389 -0.53232,0.8091 -0.17591,0.91122 -0.88704,0.20323 0,0.50522 -0.62005,0 0,1.31574 -2.4832,2.32812 -4.96427,-0.20133 c -0.35599,0.91026 -1.24304,-0.10257 -1.24304,-0.10257 -0.17591,-0.60684 -1.41642,0 -1.41642,0 0,1.11492 -1.6847,-0.50521 -1.6847,-0.50521 l -3.10368,-2.53134 c -1.77285,-1.8219 -4.43237,0.50712 -4.52053,1.01232 0.0882,1.41738 -2.03904,0.3039 -2.03904,0.3039 0,0 -1.77285,-0.60684 -2.03947,0.20323 -0.26532,0.8091 -1.41978,0.6078 -1.41978,0.6078 l -0.17758,0.40455 -0.88704,0.20228 -0.17591,0.60684 -1.06464,0.20323 2.65909,-0.10162 c 0.70992,-0.10113 -0.26657,1.72128 -0.70864,1.62012 l -1.2401,0.10114 -0.44458,0.50522 -1.15237,0 -0.53149,0.8115 -1.68346,-0.10162 c 0,0 -0.97648,0.91074 -0.88662,1.21416 0.0886,0.30389 -0.17758,1.21512 -0.44416,1.21512 -0.26616,0 -0.79808,0.91074 -0.62048,1.21416 0.17842,0.30389 -0.53148,1.31622 -0.53148,1.31622 l -0.17674,1.01328 -0.53148,0.20132 0,2.7336 -1.06464,0.81006 0,1.21416 -1.59696,1.92354 0.17841,1.61868 -1.32912,1.62012 0.17591,1.61964 -0.79766,0.30389 -0.17632,0.70842 -0.35432,2.12484 0.88624,0.10257 c 0.44206,-0.20323 0.35432,1.31574 0,1.51704 -0.356,0.20323 -1.3312,0.60732 -0.79808,1.01184 0.53232,0.40647 -1.41899,0.30437 -1.41899,-0.30341 0,-0.60588 -1.06421,-1.113 -1.32912,-0.90978 -0.26657,0.20132 -0.71029,-0.91122 -0.71029,-0.91122 -0.97483,-1.113 -3.98944,0.10066 -3.98944,0.10066 l -0.44457,1.61964 c -0.97398,0.20323 -1.59446,2.02512 -1.59446,2.02512 -0.79808,0.30389 -1.41856,1.41642 -1.15237,1.72032 0.26532,0.30389 -0.44457,0.40455 -0.44457,0.40455 l 0,2.22792 -0.44249,0.70842 0.0877,2.42874 c 0.53274,0 0.44458,1.11444 0.44458,1.11444 -0.88704,0.10066 -0.71072,1.41738 -0.71072,1.41738 l -1.86101,0.708 -0.35432,0.60684 -2.30475,-0.10162 -0.62048,0.70938 -0.62213,-0.70938 -4.43275,0 -0.17591,-0.50569 -0.88704,-0.2037 -0.0894,-1.11252 -1.32912,0.10066 -0.26574,0.60732 -1.41936,0.10066 c 0.0886,1.0128 -1.41856,2.53182 -1.59445,2.12772 -0.17967,-0.40551 -1.15403,-1.5204 -0.70992,-1.7208 0.44374,-0.20371 1.59696,-0.40694 1.59696,-0.40694 l 0,-0.70794 -3.28165,-0.10066 -0.35349,0.6078 -1.33163,0.10018 0,1.62012 -0.61962,0.20275 c -0.44416,0.30246 0.0877,1.41738 0.0877,1.41738 0.62048,0.70752 -0.0877,1.82046 -0.0877,1.82046 -0.53274,0.6078 0.44206,1.72272 0.44206,1.72272 0.7103,0.20085 -0.44206,0.80862 -0.44206,0.80862 0.1759,1.01184 0.70864,1.31574 0.70864,1.31574 -0.53274,1.01184 0.35599,1.5171 0.35599,1.5171 l 0.0877,1.72266 0.62048,0.40551 0,1.11108 0.35433,0.70938 1.41856,0 -0.0886,-2.53038 c -1.24181,-1.62012 1.06299,-2.02512 1.15323,-1.41882 0.0894,0.6078 1.06421,0.9117 1.06421,0.9117 0.17758,1.51896 1.68512,2.42874 2.1272,0.91212 0.44374,-1.5204 0.79808,-0.6078 1.06422,0.0997 0.26616,0.70938 1.94874,2.43066 1.94874,2.43066 l 1.33078,0 0.17841,1.41738 c 1.50672,-0.10161 1.9488,0.10305 2.56928,2.42874 0.62213,2.32716 2.3056,2.9349 2.3056,2.9349 l 1.24181,-0.10113 c 0,-1.21272 1.24139,0.20466 1.24139,0.81246 0,0.60492 2.39333,2.93346 2.39333,2.93346 l 2.39291,0.60636 2.21909,2.02704 1.68304,-0.20276 0.71029,0 c 0.44207,-1.72266 2.57094,0.0997 2.74683,0.70752 0.17883,0.6078 1.59696,1.62012 1.77285,1.113 0.17841,-0.50522 1.15323,-0.20085 1.3312,1.31574 0.17675,1.5204 0.79638,1.21602 0.79638,1.21602 l 5.0545,-0.10114 1.77286,-1.72272 4.52218,-0.0997 c 2.30475,-0.10113 0.88624,-3.64476 0.44416,-3.64476 -0.79808,-0.70752 0.2649,-3.64338 0.2649,-3.64338 l -6.472,-6.7818 c -1.50672,0 -0.17757,-2.43066 -0.17757,-2.43066 1.15237,-0.81054 -0.26658,-2.12436 -0.26658,-2.12436 0.17841,-1.2165 -0.62048,-2.6334 -0.62048,-2.6334 -1.59445,-1.21464 -1.15237,-3.54366 -1.15237,-3.54366 l 0,-1.62012 c -1.32912,-1.41546 0.53231,-1.62012 0.53231,-1.62012 0.61963,-1.21224 -0.44415,-2.12388 -0.44415,-2.12388 l -0.0882,-1.31622 -1.41899,-0.20323 -0.17591,-4.75776 -3.19141,-5.16138 c -0.62214,-0.20418 -0.17842,-1.41738 -0.17842,-1.41738 0.79808,-0.50664 -0.17841,-1.71984 -0.17841,-1.71984 l -0.0882,-2.22744 1.86101,-0.2037 0.44415,-0.80862 0.88624,0 -0.0882,-2.63244 c 0.44249,-1.31574 1.5063,-0.6078 1.5063,-0.6078 l 1.24138,0.10161 0.70992,-1.51848 0.17591,-1.21512 -0.97397,-0.10018 c -1.06421,-0.70938 -0.53232,-3.34044 -0.53232,-3.34044 1.68469,-2.83524 3.63387,-1.21554 3.63387,-1.21554 l 1.24261,-0.10019 c 1.86101,1.41642 0.17591,4.04838 0.17591,4.04838 -0.35432,0.6078 -0.17591,2.53086 -0.17591,2.53086 l 0.44248,3.23784 -1.15237,1.11492 c -0.97483,0.6078 -0.97483,2.02416 0.0894,2.32806 0.70864,0.10018 0.44249,2.02422 -0.62176,0.708 -1.59445,0 0.88832,1.61964 0.17842,1.2132 1.59653,0.9117 1.24011,-0.8091 1.24011,-0.8091 l 2.1297,-1.92354 c 0.79808,-0.708 2.21702,1.51944 2.21702,1.82334 0,0.30342 3.5457,0.10018 3.5457,0.10018 0.97483,0.70842 1.32912,2.53134 1.32912,2.53134 0.97648,-1.41834 3.01467,-0.10256 1.50795,0.708 1.41728,1.01232 1.41728,1.92306 1.41728,1.92306 1.15403,-0.40455 1.15403,0.60732 1.15403,0.91122 0,0.30389 0.35432,-1.518 0.35432,-1.518 -1.32998,-1.11396 1.77285,-1.51848 0.88704,0.50617 l -0.53274,0.9117 0.88704,0.8091 0.0878,2.32902 c 1.95125,-0.20323 1.41898,-2.93682 1.41898,-2.93682 l 0.88662,-0.20132 c 0,-0.9117 0.61962,-0.40551 0.61962,-0.40551 -0.61962,-3.4425 1.41936,-4.04838 1.41936,-4.04838 1.15238,-0.30389 1.24054,-3.03846 1.24054,-3.03846 -0.79638,-0.40455 -0.35474,-1.82094 0.53232,-0.6054 0.88581,1.21272 -0.53232,-2.43114 -0.53232,-2.43114 l -0.70864,-0.708 -0.97483,-0.10113 -0.0894,-1.11348 -1.59445,0 -0.26658,1.41786 -0.62048,0.20227 -0.17842,-0.40551 -0.26532,1.11348 -1.5953,0 -0.0882,-1.21464 0.97483,-0.30341 0.35474,-0.60732 0.26532,-1.62012 1.15323,0 1.50672,-0.50521 c 0.0877,-1.72128 0.88661,-1.31574 0.88661,-1.31574 l 0.53149,0.50569 0.79808,0.70842 0.089,0.60636 -0.53274,0.30341 -0.0877,0.81102 0.26616,1.113 0.70864,0 c 0.26574,-1.61964 2.12885,-1.61964 2.66032,-0.60732 l 0.53232,-1.4169 c -1.24096,-0.70842 -0.023,-1.82286 0.33133,-1.31622 0.35433,0.50665 1.17536,-1.31574 1.17536,-1.31574 0,0 0.62048,0.91122 0,-0.30389 -0.62048,-1.21511 0.44249,-1.8219 0.44249,-1.8219 -0.17633,-1.21416 1.15323,-1.01232 1.15323,-1.01232 l 0.0894,-1.61868 -1.24262,-0.10257 c -0.26407,1.41738 -1.32869,0.20323 -0.7968,-0.10018 0.53274,-0.30437 1.06299,-0.9117 1.06299,-0.9117 l 0,-1.01232 0.53232,-0.20228 0.0882,-1.01232 1.33077,0 1.15238,-0.60684 0.26657,-0.50665 1.24011,-0.10065 1.77285,-1.82286 -0.1759,-0.8091 c -1.06422,0 0,-0.91122 0,-0.91122 l 0.17507,-1.51518 z"
     style="fill:#ffffff" />
  <path
     inkscape:connector-curvature="0"
     id="path83"
     d="m 201.55169,224.7997 -1.59611,-0.20228 0.0894,0.708 0.44248,0 c 0.70864,1.41786 0.089,4.85892 0.089,4.85892 0,0 -1.06299,0.10018 -1.24139,-0.50569 -0.17591,-0.60732 -0.62048,1.31622 -0.26616,1.62012 0.35432,0.30198 1.59653,0 1.68469,1.11396 0.0878,1.11252 0.79808,-0.70938 0.79808,-0.70938 l 0,-6.8838 z"
     style="fill:#ffffff" />
  <polygon
     id="polygon85"
     transform="matrix(0.41783466,0,0,0.477066,26.095687,94.857701)"
     points="421.4,288.71 418.21,290.84 416.09,289.57 416.09,294.66 419.49,299.11 420.76,296.14 421.19,294.23 419.7,293.6 419.91,290.42 421.19,290.2 "
     style="fill:#ffffff" />
  <polygon
     id="polygon87"
     transform="matrix(0.41783466,0,0,0.477066,26.095687,94.857701)"
     points="421.61,303.78 421.61,301.66 420.13,301.87 419.91,303.57 "
     style="fill:#ffffff" />
  <polygon
     id="polygon89"
     transform="matrix(0.41783466,0,0,0.477066,26.095687,94.857701)"
     points="419.7,313.97 419.7,312.48 417.9,312.69 417.9,314.18 "
     style="fill:#ffffff" />
  <path
     inkscape:connector-curvature="0"
     id="path91"
     d="m 202.50636,241.5277 c 0.20766,0 0.37479,-0.1913 0.37479,-0.42793 0,-0.23853 -0.16713,-0.43032 -0.37479,-0.43032 -0.20767,0 -0.37605,0.19131 -0.37605,0.43032 0,0.23663 0.16838,0.42793 0.37605,0.42793 z"
     style="fill:#ffffff" />
  <ellipse
     id="circle93"
     cy="243.22523"
     cx="203.12386"
     style="fill:#ffffff"
     rx="0.37605119"
     ry="0.42935938" />
  <ellipse
     id="circle95"
     cy="231.66116"
     cx="203.14476"
     style="fill:#ffffff"
     rx="0.37605119"
     ry="0.42935938" />
  <polygon
     id="polygon97"
     transform="matrix(0.41783466,0,0,0.477066,26.095687,94.857701)"
     points="485.27,268.35 484,271.53 479.54,271.74 478.69,275.56 479.32,278.74 483.14,280.23 483.57,278.11 484.84,277.47 485.06,275.35 485.9,273.86 487.18,272.38 487.6,270.68 489.72,269.41 492.27,268.98 493.33,267.71 493.76,265.17 493.91,263.26 494.82,261.98 497.36,260.92 497.36,256.89 496.09,256.89 495.88,255.4 493.54,255.19 493.12,256.25 492.06,256.25 491.84,257.95 493.12,257.95 493.33,259.22 492.48,260.07 492.06,261.13 490.36,261.56 486.54,265.17 486.33,266.86 "
     style="fill:#ffffff" />
  <path
     inkscape:connector-curvature="0"
     id="path99"
     d="m 235.77036,223.5877 0,-1.41738 -0.17842,-1.31622 -1.32832,-0.70794 -0.97482,1.01232 -0.17842,1.41738 0,0.91026 -0.88624,0.20323 -0.17841,2.73264 -0.70821,0.30437 0.0886,1.01232 -0.97483,0.30341 -0.97483,0.3039 -0.17758,1.31574 -0.70821,0.50569 -0.35683,1.21506 -0.44248,2.93538 c 0,0 0.79888,1.7208 1.24139,0.91074 0.44373,-0.8091 1.15237,-0.91074 1.15237,-0.91074 l 0.26616,-0.7089 2.39376,0.10114 c 0.17758,-1.11444 1.32997,-0.70794 1.32997,-0.20228 0,0.50617 0.88704,0.10066 0.88704,0.10066 l 0.62006,-1.113 0.9744,0 0.0886,-1.21416 0.44415,-0.30389 0,-1.82286 c 1.41899,-0.50569 1.24011,-2.02416 1.24011,-2.02416 l 0.35683,-0.50522 -0.178,-0.70794 c -0.71029,-0.30485 -0.35641,-1.01424 0.0878,-0.8115 0.44457,0.20227 -0.62048,-0.91122 -0.62048,-0.91122 -0.53148,0.50712 -0.97397,-0.60684 -0.97397,-0.60684 l -1.3312,0 z"
     style="fill:#ffffff" />
  <path
     inkscape:connector-curvature="0"
     id="path101"
     d="m 237.18902,235.8337 c -0.0882,1.21416 -1.41893,1.61964 -1.41893,1.61964 l -0.97483,-0.30341 -0.53148,-0.50617 -0.089,-1.41786 0.79723,-0.10019 0.17758,0.6078 2.03947,0.10019 z"
     style="fill:#ffffff" />
  <path
     inkscape:connector-curvature="0"
     id="path103"
     d="m 241.97836,229.3597 c 0.19178,0.8826 0.17591,-1.41882 0.53065,-1.31622 0.35432,0.10066 0.0894,-1.41642 0.0894,-1.41642 l -1.5961,1.31382 c 0.79765,0.10257 0.88581,1.01424 0.97605,1.41882 z"
     style="fill:#ffffff" />
  <path
     inkscape:connector-curvature="0"
     id="path105"
     d="m 246.67702,224.0917 c 0.35432,0.9117 0.26658,2.22792 1.59446,3.24024 0.44917,0.34111 -0.26574,1.01232 -0.70992,0.708 -0.44249,-0.30341 -1.68262,-2.53134 -1.68262,-2.53134 l 0,-1.31574 c 0.26574,-0.8091 0.64427,-0.49328 0.79808,-0.10114 z"
     style="fill:#ffffff" />
  <polygon
     id="polygon107"
     transform="matrix(0.41783466,0,0,0.477066,26.095687,94.857701)"
     points="530.67,334.76 529.4,334.33 527.92,335.4 528.55,336.03 529.18,337.09 "
     style="fill:#ffffff" />
  <line
     id="line109"
     y2="254.46371"
     x2="244.45836"
     y1="253.2457"
     x1="244.45836"
     style="fill:#ffffff" />
  <polygon
     id="polygon111"
     transform="matrix(0.41783466,0,0,0.477066,26.095687,94.857701)"
     points="553.29,328.93 554.99,327.87 554.31,326.8 552.62,327.85 "
     style="fill:#ffffff" />
  <path
     inkscape:connector-curvature="0"
     id="path113"
     d="m 282.93836,272.8837 0.79888,0.4036 0.0877,1.7208 c 1.06464,1.21464 4.52219,0.20275 4.52219,-0.10113 0,-0.30437 -0.17841,-3.74496 -0.17841,-3.74496 l -0.44416,-0.50664 -0.0877,-2.53224 c 0.35433,-1.31574 -1.68512,-3.23928 -1.86186,-2.83236 -0.17758,0.40359 -1.32998,0.0992 -1.32998,0.50521 0,0.4036 -0.70821,2.42874 -0.35432,3.13812 0.35432,0.7089 -0.26657,0.7089 -0.35432,1.4169 -0.0882,0.70842 -0.97562,1.92498 -0.79808,2.53272 z"
     style="fill:#ffffff" />
  <path
     inkscape:connector-curvature="0"
     id="path115"
     d="m 280.98636,268.8337 c -0.16797,0.7671 -0.79638,1.21464 -1.15072,0.91026 -0.35683,-0.30437 0.44081,0.50521 0.61962,0.91212 0.17675,0.4036 0.70822,0.4036 0.88662,0 0.1759,-0.40741 0.0882,-1.31574 0.26657,-1.7208 0.17591,-0.40551 -0.53273,-0.50665 -0.62213,-0.10162 z"
     style="fill:#ffffff" />
  <rect
     id="rect117"
     height="1.9240201"
     width="0.6196267"
     y="250.26372"
     x="276.86371"
     style="fill:#ffffff" />
  <path
     inkscape:connector-curvature="0"
     id="path119"
     d="m 286.04236,230.7757 c -0.38691,-0.58966 1.77285,-1.61964 2.1272,-0.40456 0.35432,1.2132 0,1.01232 -0.35432,0.91122 -0.35558,-0.10209 -1.24054,0.30246 -1.77286,-0.50664 z"
     style="fill:#ffffff" />
  <polygon
     id="polygon123"
     transform="matrix(0.41783466,0,0,0.477066,26.095687,94.857701)"
     points="626.69,256.48 626.47,257.73 628.8,258.15 629.03,256.9 "
     style="fill:#ffffff" />
  <polygon
     id="polygon125"
     transform="matrix(0.41783466,0,0,0.477066,26.095687,94.857701)"
     points="617.12,259.76 618.82,260.82 619.14,261.02 619.46,260.84 620.74,260.13 620.9,260.52 622.08,260.05 621.65,258.99 621.38,258.32 620.75,258.67 619.17,259.55 617.79,258.69 "
     style="fill:#ffffff" />
  <path
     inkscape:connector-curvature="0"
     id="path127"
     d="m 288.78902,194.3317 -1.33077,0 c 0,0 0.44374,0.20228 -0.79637,-1.11396 -1.24304,-1.31574 -2.03947,0.30389 -2.03947,0.30389 l -1.41856,0.20228 0,1.61964 -0.71029,0.30341 0.0898,1.0128 0.97483,-0.10066 c 0,0 0,1.21416 0.26615,0.70842 0.26659,-0.50665 2.4832,0.10018 2.30518,1.31574 -0.0723,0.49901 2.21744,1.82094 1.95125,3.44058 1.15237,0.20323 0.88661,1.51944 0.88661,1.51944 l 1.5063,0.20227 0.44415,-1.01232 0.44249,0.10162 0,-0.6078 -0.97648,-0.30342 -0.17591,-3.23976 -0.62048,-0.50616 0.17674,-0.81006 -0.70864,-0.30389 0.35474,-1.31574 -0.62134,-1.41642 z"
     style="fill:#ffffff" />
  <path
     inkscape:connector-curvature="0"
     id="path129"
     d="m 292.68769,204.6577 -0.70864,-0.10019 -1.59819,0.30342 -0.88453,1.92306 c 0,0 0.44248,0.30388 0.79637,1.01232 0.35433,0.70938 0.53232,4.85844 -0.53148,5.56788 -1.06298,0.7089 0.0894,0.30246 0.0894,0.30246 l -0.17842,2.22744 c 0.26658,1.01232 0.70864,0.50712 0.97483,0 0.26825,-0.50474 0.5344,-0.60636 0.88875,-1.11252 0.35432,-0.50712 0.88581,-1.41738 0.97482,-2.12676 0.0877,-0.708 0.53149,-1.82094 0.26533,-2.12484 -0.26533,-0.30389 0.26658,-1.72032 0.26658,-1.72032 0,0 0.35432,-0.81102 0,-1.62012 -0.35433,-0.81054 0.0882,-1.72128 0.35432,-2.12676 l -0.70907,-0.40503 z"
     style="fill:#ffffff" />
  <rect
     id="rect133"
     transform="matrix(0.11117796,-0.99380051,0.98953197,0.14431382,0,0)"
     height="0.53442699"
     width="0.81520033"
     y="315.32715"
     x="-164.29994"
     style="fill:#ffffff" />
  <rect
     id="rect135"
     transform="matrix(-0.86809209,-0.49640319,0.40170312,-0.91576995,0,0)"
     height="0.6628021"
     width="0.54654461"
     y="-38.081646"
     x="-355.98172"
     style="fill:#ffffff" />
  <path
     inkscape:connector-curvature="0"
     id="path137"
     d="m 292.95436,203.5477 -0.356,-0.9117 c 0,0 0,-0.80862 0.17758,-1.21512 0.17842,-0.40455 -0.35432,-0.80862 -0.61962,-0.91026 -0.26616,-0.10162 -0.17675,-0.91074 -0.26616,-1.31622 -0.0882,-0.40456 -0.70822,-0.708 -0.70822,-0.708 0,0 -0.17883,-1.51848 -0.17883,-1.8219 0,-0.30389 -0.79765,-0.70842 -0.53148,-1.0128 0.26657,-0.30341 0.44415,-0.70794 0.71029,-0.91122 0.26616,-0.20228 -0.26658,-1.61964 0.17591,-1.31622 0.44415,0.30437 0.44415,0.81006 0.62176,1.21512 0.17675,0.40455 -0.0894,1.82238 0.35474,2.12628 0.44207,0.30293 -0.0898,1.31478 0.62005,1.31478 0.70864,0 0.26658,1.92402 0.26658,1.92402 0,0 -0.17842,1.41642 0.26407,1.51848 0.44416,0.10114 0.17842,2.53038 0.17842,2.53038 l -0.70907,-0.50569 z"
     style="fill:#ffffff" />
  <path
     inkscape:connector-curvature="0"
     id="path139"
     d="m 287.19436,187.1437 c 0.2649,0.40455 0.79722,0.70794 0.79722,1.11396 0,0.40551 -0.17674,0.708 0.356,0.80958 0.53064,0.10066 0.88624,-0.10162 1.06299,0.40455 0.17757,0.50569 0.17757,1.31574 0.0894,1.7208 -0.0894,0.4055 0.0882,1.01232 0.53065,1.01232 0.44415,0 0.53232,0.10162 0.53232,0.40551 0,0.30293 0.53231,-1.11444 0.53231,-1.11444 -0.44457,-0.40456 -0.79888,-1.31622 -0.79888,-1.31622 0,0 -0.44248,-1.4169 -0.44248,-1.61916 0,-0.20228 -0.62005,-0.40551 -0.88581,-0.50617 -0.26657,-0.10161 -0.71072,-1.01184 -0.71072,-1.01184 l -1.06299,0.10114 z"
     style="fill:#ffffff" />
  <path
     inkscape:connector-curvature="0"
     id="path141"
     d="m 288.07969,186.2377 c -0.26657,-0.40598 -0.53273,-0.70938 -0.88704,-0.91074 -0.35348,-0.20323 -0.61963,-0.40551 -0.97563,-0.40551 -0.35432,0 -0.70821,-0.4055 -0.53232,-0.91074 0.17842,-0.50665 -0.26657,-0.7089 -0.26657,-1.11444 0,-0.40456 0.26657,-0.40456 0.71029,-0.10066 0.44416,0.30389 0.35433,0.40455 0.71072,0.9117 0.35348,0.50568 0.53023,1.01184 0.88416,0.91026 0.35641,-0.10162 0.62214,0.91074 0.97648,0.60732 0.35432,-0.30342 0.26658,0.70842 0.26658,0.70842 l -0.88662,0.30437 z"
     style="fill:#ffffff" />
  <path
     inkscape:connector-curvature="0"
     id="path143"
     d="m 277.70636,197.6737 c 0.48886,0.55912 -2.6591,0.40408 -2.6591,0 0,-0.40455 0.26658,-1.82094 1.06299,-1.51944 0.79808,0.30485 0.88581,-1.82094 0.88581,-1.82094 0,0 -0.70821,0.10019 -0.0877,-0.30389 0.62048,-0.40455 0,-1.01232 -0.26658,-1.31574 -0.26532,-0.30437 -0.53148,-0.81006 -0.53148,-0.81006 l 1.24224,0 c 0.53232,-0.4055 0.70821,-2.32806 0.70821,-2.32806 1.06299,0.40455 1.59531,-0.4055 1.59531,-0.4055 0,0 0.18008,0.60732 0.53397,1.11444 0.35433,0.50521 -0.88832,0.70794 -0.44457,1.01232 0.44457,0.30389 0.62048,1.21416 0.44457,1.5171 -0.17841,0.30389 -1.15488,0.10161 -1.15488,-0.30294 0,-0.40551 -0.35433,0.50616 0,1.01232 0.35432,0.50616 -0.44249,1.21416 -0.62048,1.21416 -0.17758,0 -1.32827,0.20323 -0.35432,0.81006 0.97483,0.60684 2.04069,0.30485 2.04069,0.30485 0,0 0.79723,-0.10257 1.06299,0.40455 0.26658,0.50569 -0.0882,0.60732 -0.53148,0.60732 -0.44249,0 -2.57174,-0.20324 -2.57174,-0.20324 0,0 -0.62005,0.7089 -0.35432,1.0128 z"
     style="fill:#ffffff" />
  <path
     inkscape:connector-curvature="0"
     id="path145"
     d="m 272.03169,198.5857 c 0.44458,-0.10114 1.50629,-0.20323 1.68469,0.10066 0.17842,0.30342 -0.62048,0.708 -0.62048,0.708 l -1.06421,0.20323 c -0.35432,-0.50665 -0.44248,-0.91074 0,-1.01184 z"
     style="fill:#ffffff" />
  <path
     inkscape:connector-curvature="0"
     id="path147"
     d="m 283.47169,190.0837 c 0.70864,-0.40455 2.21536,-0.40455 2.1272,-1.01232 -0.0877,-0.60732 0.88624,-0.80958 0.88624,-0.80958 l 0.26616,1.21416 0.79808,0.60732 0.089,1.11348 c 0,0 0.26532,-0.20228 -0.70864,0.10162 -0.97648,0.30388 -0.35432,0.8091 -0.35432,0.8091 l -2.12885,0.10113 -0.26616,-1.01232 -0.70864,-1.11252 z"
     style="fill:#ffffff" />
  <path
     inkscape:connector-curvature="0"
     id="path149"
     d="m 280.01036,184.6177 c 0.53898,0 -0.17591,2.32806 1.24053,2.1258 1.41899,-0.20323 0.0902,0.70842 1.15323,0.8091 1.06421,0.10257 0.79808,-0.91074 1.15237,-1.61868 0.356,-0.70842 0.17842,-1.11396 -0.44248,-1.31622 -0.62214,-0.20228 -0.62214,-0.20228 -0.79808,-1.01328 -0.17675,-0.8091 -0.88662,-1.01232 -0.88662,-1.01232 l -0.26658,-1.21368 -1.15237,0.8091 -1.15238,1.7208 c 0,1.31718 0.62006,0.70938 1.15238,0.70938 z"
     style="fill:#ffffff" />
  <rect
     id="rect153"
     transform="matrix(0.40166516,-0.9157866,0.86811577,0.49636178,0,0)"
     height="0.54915988"
     width="0.66333354"
     y="338.06906"
     x="-27.699417"
     style="fill:#ffffff" />
  <rect
     id="rect155"
     height="0.70841998"
     width="0.53231996"
     y="192.2077"
     x="281.42905"
     style="fill:#ffffff" />
  <rect
     id="rect157"
     transform="matrix(0.09770546,0.99521538,-0.9919085,0.12695479,0,0)"
     height="0.53291255"
     width="0.91468471"
     y="-263.17975"
     x="213.15193"
     style="fill:#ffffff" />
  <rect
     id="rect159"
     height="0.50712001"
     width="0.53231996"
     y="188.15771"
     x="280.36771"
     style="fill:#ffffff" />
  <rect
     id="rect161"
     transform="matrix(-0.08601387,-0.99629394,0.99372607,-0.11184137,0,0)"
     height="0.89215583"
     width="0.60714591"
     y="261.84253"
     x="-218.24094"
     style="fill:#ffffff" />
  <rect
     id="rect163"
     transform="matrix(-0.89777394,-0.44045654,0.35222252,-0.93591629,0,0)"
     height="0.75683391"
     width="0.54264545"
     y="-58.269669"
     x="-325.45044"
     style="fill:#ffffff" />
  <rect
     id="rect165"
     transform="matrix(-0.0861878,-0.99627891,0.9937007,-0.11206659,0,0)"
     height="0.89344233"
     width="0.60570425"
     y="251.06291"
     x="-225.01305"
     style="fill:#ffffff" />
  <polygon
     id="polygon169"
     transform="matrix(0.41783466,0,0,0.477066,26.095687,94.857701)"
     points="544.22,211.7 539.56,211.91 539.62,213.18 544.28,212.97 "
     style="fill:#ffffff" />
  <rect
     id="rect171"
     transform="matrix(-0.19049392,-0.98168838,0.96946245,-0.2452398,0,0)"
     height="0.53649563"
     width="0.92704183"
     y="208.5065"
     x="-252.48911"
     style="fill:#ffffff" />
  <rect
     id="rect173"
     transform="matrix(-0.28013669,-0.95996012,0.93464968,-0.35556993,0,0)"
     height="0.28415734"
     width="0.60019755"
     y="185.15822"
     x="-274.17355"
     style="fill:#ffffff" />
  <path
     inkscape:connector-curvature="0"
     id="path175"
     d="m 254.29836,195.6517 -0.0882,0.70842 0.97398,0.10162 c 0,0 0.44248,0.40551 0.44248,0.708 0,0.30388 0.62213,0.60732 0.97648,0.60732 0.35433,0 1.32912,-0.81006 1.32912,-0.81006 0,0 0.44416,-1.41738 0.0898,-1.31622 -0.356,0.10066 -1.06464,0.70842 -1.15238,0.10066 -0.0898,-0.60732 -1.15237,-0.3039 -1.15237,-0.3039 l -1.41899,0.20419 z"
     style="fill:#ffffff" />
  <path
     inkscape:connector-curvature="0"
     id="path177"
     d="m 258.73036,194.5357 c 0,0.30294 -0.17591,0.708 0.35432,0.81006 0.5344,0.10018 1.50922,-0.40455 1.59696,0.20228 0.0898,0.60684 0.0898,1.01328 0.79808,1.31718 0.70821,0.30294 1.15322,0.40455 1.68469,0.40455 0.53065,0 1.68512,-0.20371 1.68512,-0.20371 0,0 1.25435,0.22089 1.50629,0.50713 0.97483,1.113 1.59531,1.41642 1.86102,0.91074 0.26616,-0.50665 -0.0882,-1.61916 -0.17633,-2.02416 -0.0894,-0.40599 -1.33077,-2.32902 -1.77413,-1.92402 -0.44249,0.40551 -0.53107,0 -1.32955,0.30294 -0.79808,0.30389 -2.48277,0.10257 -2.5705,-0.30294 -0.0882,-0.40551 -1.32955,-0.60636 -1.32955,-1.01232 0,-0.40551 -0.88581,-0.91074 -0.79808,-0.3039 0.0882,0.60684 -0.62005,0.91074 -0.80016,0.70938 -0.17591,-0.20275 -0.70821,0.60684 -0.70821,0.60684 z"
     style="fill:#ffffff" />
  <path
     inkscape:connector-curvature="0"
     id="path179"
     d="m 279.12502,181.5757 0.62176,-2.22552 c -0.88581,-0.20323 -0.70986,-1.31574 -0.70986,-1.31574 -0.0882,-0.91164 -1.32912,-1.92354 -1.77286,-1.61964 -0.44248,0.30246 -0.26658,-2.12676 -0.26658,-2.12676 0,0 0.79888,-0.60636 1.15323,-0.30294 0.35474,0.30294 -3.01381,-5.06118 -3.72373,-4.55502 -0.70864,0.50617 -2.30352,-0.50617 -2.21536,-1.41786 0.0882,-0.91026 -3.19184,-3.94776 -3.19184,-3.94776 0,0 -1.06422,-0.80862 -1.24096,-0.20132 -0.17758,0.60684 -0.5319,1.01232 0,1.31478 0.53106,0.30437 0.44248,-0.50569 1.06256,0.20228 0.62048,0.70842 1.7745,1.62012 1.33077,2.22744 -0.44373,0.60828 -0.97605,0.81054 -0.97605,0.81054 l 0.62176,0.81006 0.97482,0 0.17758,1.71984 c 0,0 1.06299,0.6078 1.32955,1.31622 0.26616,0.708 0.26616,1.11348 0,1.51896 -0.26658,0.40455 -0.79637,1.113 -0.70864,1.82094 0.0882,0.70842 0.79808,1.01232 0.79808,1.01232 l 0.70821,0.10162 0.53274,0.30436 0,1.3167 c 0.70821,-0.20323 1.86058,0.9093 1.77285,1.61868 -0.0882,0.70842 0.17591,0.30342 1.06256,1.01232 0.88789,0.70842 0.62213,0.81006 1.24224,1.31622 0.62091,0.50474 1.15323,0.20133 1.41728,-0.71082 z"
     style="fill:#ffffff" />
  <path
     inkscape:connector-curvature="0"
     id="path181"
     d="m 264.49569,167.8117 c -0.0882,-0.40551 -0.26657,-1.82334 0.26616,-1.72224 0.53148,0.10257 0.17758,0 0.79808,0.30437 0.62048,0.30437 0.70864,-0.50569 0.70864,-0.50569 l 0.97605,0 1.24054,1.11252 -0.17758,0.91164 -0.88661,0.10019 c -0.44249,-0.80862 -1.32955,-0.50522 -1.15238,0.20371 0.17758,0.708 -0.44248,2.02422 -0.79637,2.12484 -0.35474,0.10161 -1.50923,0.10161 -1.41899,-0.50522 0.0882,-0.60732 0.44249,-2.02416 0.44249,-2.02416 z"
     style="fill:#ffffff" />
  <path
     inkscape:connector-curvature="0"
     id="path183"
     d="m 263.78636,165.0757 0,-0.8091 c 0,0 -0.0902,-0.80958 -0.53232,-0.80958 -0.44207,0 -1.24053,-0.60684 -1.06464,-1.01232 0.17884,-0.4055 -1.50629,-0.81006 -1.50629,-0.81006 0,0 -1.50629,-1.61964 -0.97483,-1.41642 0.53232,0.20227 0.26658,-0.70938 0.26658,-0.70938 0,0 -1.06464,0.20227 -1.33077,0.10161 -0.26658,-0.10161 -0.17841,-1.01232 -0.17841,-1.01232 0,0 -1.06214,-0.30389 -1.06214,0 0,0.30389 0.35433,0.30389 0.53023,0.91026 0.17842,0.60684 0.0898,1.62012 0.88875,1.8219 0.79808,0.20323 0.97397,0.40455 1.06421,0.81006 0.0882,0.4055 1.06299,0.50617 1.06299,0.50617 l 0.70986,0.40455 2.12678,2.02464 z"
     style="fill:#ffffff" />
  <polygon
     id="polygon185"
     transform="matrix(0.41783466,0,0,0.477066,26.095687,94.857701)"
     points="545.95,125.55 545.32,123.85 543.62,123.43 543.62,125.34 "
     style="fill:#ffffff" />
  <path
     inkscape:connector-curvature="0"
     id="path187"
     d="m 253.94636,150.5017 c -0.92678,-0.79146 1.2401,0.6078 1.2401,0.6078 0.70864,0 1.15238,0.60732 1.15238,0.9117 0,0.30341 0.9752,0.20228 0.9752,0.20228 l 0.0902,-0.70938 -0.71072,-1.01232 -0.61963,-0.50474 c 0,0 -0.97482,-0.10162 -0.97482,-0.4055 -4.3e-4,-0.30294 -0.79851,1.21464 -1.1528,0.91026 z"
     style="fill:#ffffff" />
  <path
     inkscape:connector-curvature="0"
     id="path189"
     d="m 270.25569,151.1077 c -0.25905,0.8859 -0.35432,2.12628 -0.79808,2.12628 -0.44248,0 -0.26616,1.31718 -0.26616,1.31718 0,0 1.15445,0 1.5088,0.10019 0.35348,0.10018 0.35348,1.11252 0.35348,1.11252 1.33078,-0.10019 1.8631,1.92402 1.6847,2.43018 -0.17758,0.50569 0.53232,0.50569 0.53232,0.50569 0,0 0,1.62012 -0.17842,2.02422 -0.17591,0.4055 1.15323,0.70938 1.50752,1.31622 0.35432,0.6078 -0.17841,2.63196 -0.44332,2.73312 -0.26575,0.10162 0.70821,0.40456 0.62048,0.91074 -0.0898,0.50712 0.26616,0 0.35432,0.81054 0.0882,0.8091 0.26658,2.5299 0.26658,2.5299 l 1.24011,0.10209 c 0.17841,-1.31574 2.46394,-1.36632 2.83749,-1.21512 1.50715,0.60732 2.66117,3.23928 2.66117,3.84612 0,0.60684 -0.97648,0.70938 -0.97648,0.70938 l 0.17841,2.93442 c 1.5063,0.50665 2.74768,2.93682 2.57094,3.3414 -0.17758,0.40455 1.06256,0.30437 1.06256,0.30437 0.17841,-1.82334 1.68512,-1.21554 1.77285,-0.6078 0.0907,0.6078 0.35474,1.92354 0.35474,1.92354 l 0.44374,0.90978 0.62048,0.7089 0.97483,-0.10114 0.26657,0.6078 1.15238,0.20323 c 0,0 0.97648,1.2132 1.06421,1.518 0.0898,0.30294 1.41899,0.20228 1.77285,0.30294 0.35433,0.10161 0.88704,0.40551 0.97483,0.91122 0.0898,0.50665 0.62213,1.31622 0.62213,1.31622 0,0 1.06299,0.30437 1.15238,0.70842 0.0882,0.40408 0.53232,1.31574 0.53232,1.31574 l 0.88453,0.81006 0.0894,0.91164 0.97482,0.10115 0.26658,1.2132 1.59445,-0.10019 0.88832,-0.70842 c 1.15238,-0.70794 1.95046,-1.61964 2.03947,-2.02512 0.0877,-0.40455 0.26532,-1.9221 1.15237,-1.61868 0.88582,0.3039 0.26616,-2.22744 0.26616,-2.22744 0,0 -1.24096,-1.01232 -1.15322,-1.51944 0.089,-0.50521 -1.24011,-1.5171 -1.15238,-1.92258 0.0882,-0.40551 -1.15237,-1.21416 -1.06421,-1.61916 0.0877,-0.4055 -0.62048,-1.51944 -0.62048,-1.51944 l -1.33077,-1.41642 -0.17758,-0.9117 -1.06299,-0.10018 -2.1272,-2.93586 0.0882,-0.81054 -0.62048,-0.10066 0,-1.113 -0.61962,-0.4055 -0.97648,-0.10114 -1.9496,-2.42874 -0.17758,-1.11396 -0.97483,0 0.17675,-2.12628 c 0.62133,-0.91122 0.26574,-2.63196 0.26574,-2.63196 0,0 -1.24224,0.70842 -1.86102,0.40456 -0.62176,-0.30247 0.26491,-1.01232 0.26491,-1.01232 l 0,-0.8091 -0.53107,-0.60732 c 0,0 -1.50837,0.20323 -1.5961,-0.10019 -0.089,-0.30389 -0.35432,-1.62012 -0.35432,-1.62012 l -0.089,-1.72128 -0.61963,-0.30246 -0.0903,-0.60828 -0.97397,0.10067 0,-1.21416 -0.53274,-0.20228 -0.53148,-0.30389 -0.0886,-1.21512 -1.95046,-0.10018 -0.62048,-1.01232 -0.70864,-1.21506 -2.21658,-0.20228 -0.53232,-0.60636 -0.88624,-0.20323 -0.62048,-0.30389 -0.26616,0.50712 -1.68512,0.10019 -0.0877,0.60732 c -0.88624,0.50617 -4.43237,0.10066 -4.52261,0.40407 z"
     style="fill:#ffffff" />
  <path
     inkscape:connector-curvature="0"
     id="path191"
     d="m 279.56769,148.4797 c -0.14039,-0.79908 1.77451,-1.51848 2.21701,-0.9117 0.44416,0.60732 1.6847,0.71034 1.8623,3.74688 0.0627,1.08726 -1.59611,-1.11348 -1.59611,-1.11348 l -1.33077,-0.50617 c -0.70864,-0.20323 -1.06422,-0.708 -1.15238,-1.2156 z"
     style="fill:#ffffff" />
  <rect
     id="rect193"
     transform="matrix(-0.89123643,-0.45353901,0.36363609,-0.93154109,0,0)"
     height="0.97813022"
     width="0.54384172"
     y="-18.521429"
     x="-292.06506"
     style="fill:#ffffff" />
  <path
     inkscape:connector-curvature="0"
     id="path195"
     d="m 248.98102,139.7737 -1.15488,-1.31622 0,-1.11348 -0.35432,-0.40598 -0.35432,-1.41642 -1.15237,-0.40456 -1.15238,0.50521 -1.24138,0.91122 -1.32912,0.20371 -0.7103,0.91026 2.8375,0.30246 0.53106,1.01376 2.04112,0.20228 1.32827,1.518 c 1.15488,0.4055 1.41979,-0.20228 0.71115,-0.91026 z"
     style="fill:#ffffff" />
  <path
     inkscape:connector-curvature="0"
     id="path197"
     d="m 248.80502,134.8117 c -0.19512,-0.88974 -1.33077,1.113 -0.1759,1.51704 1.15237,0.40694 2.30309,0 2.30309,0 l 0.26658,-0.60684 4.43152,0.10162 c 0.35683,-0.40551 0.53232,-1.01232 0.53232,-1.01232 0,0 1.06464,-0.40551 1.50672,-0.20324 0.44415,0.20324 0.0903,-1.41642 -0.35432,-1.21416 -0.44249,0.20228 -1.32869,0.10114 -1.32869,0.10114 l -1.59654,0 c -0.0882,-0.70794 -1.50672,-0.4055 -1.5953,0 -0.0898,0.40456 -0.61963,0.50569 -0.61963,0.50569 l -2.03947,0.20323 c -0.17799,0.6078 -1.24053,1.01232 -1.3304,0.6078 z"
     style="fill:#ffffff" />
  <path
     inkscape:connector-curvature="0"
     id="path199"
     d="m 240.02636,151.8937 c 1.36341,0.48661 1.86101,0.12642 1.95125,-0.27813 0.0882,-0.4055 0.17591,-0.50712 0.70864,-0.60732 0.53148,-0.10162 -0.089,-1.31622 -0.62048,-1.21512 -0.53273,0.10114 -1.06464,-0.20227 -1.15237,-0.70842 -0.0907,-0.50569 -0.97648,-1.8219 -1.06464,-0.8091 -0.0886,1.01232 -0.62048,1.01232 -0.53232,1.7208 0.0894,0.70704 0.35557,1.76946 0.70992,1.89732 z"
     style="fill:#ffffff" />
  <path
     inkscape:connector-curvature="0"
     id="path201"
     d="m 229.83436,153.0337 c -0.0639,-0.35827 1.77285,-0.40455 2.03946,-0.10209 0.26658,0.30437 0.0882,0.81006 0.88624,0.81006 0.7968,0 0.44291,0.6078 0.35433,0.9117 -0.0882,0.30341 -0.97397,0.20227 -1.06464,-0.10019 -0.0877,-0.30437 -1.41856,-0.40694 -1.41856,-0.40694 0,0 -0.70864,-0.6078 -0.7968,-1.11252 z"
     style="fill:#ffffff" />
  <polygon
     id="polygon205"
     transform="matrix(0.41783466,0,0,0.477066,26.095687,94.857701)"
     points="557.59,79.105 558,79.51 558.44,79.154 560.57,77.455 559.77,76.462 558.09,77.802 557.01,76.721 556.11,77.62 "
     style="fill:#ffffff" />
  <polygon
     id="polygon207"
     transform="matrix(0.41783466,0,0,0.477066,26.095687,94.857701)"
     points="548.07,74.105 548.41,73.89 550.75,72.403 550.07,71.33 548.07,72.599 546.71,71.752 546.04,72.832 547.74,73.89 "
     style="fill:#ffffff" />
  <polygon
     id="polygon209"
     transform="matrix(0.41783466,0,0,0.477066,26.095687,94.857701)"
     points="540.49,117.45 541.81,119.52 542.88,118.84 541.4,116.51 541.23,116.25 540.92,116.22 538.8,116 538.67,117.27 "
     style="fill:#ffffff" />
  <path
     inkscape:connector-curvature="0"
     id="path211"
     d="m 222.91702,178.5397 0.0907,1.11396 1.32832,0 c 0.53232,0 -0.44248,-0.70842 -0.44248,-0.70842 0,0 -1.06422,0.10162 -0.97648,-0.4055 z"
     style="fill:#ffffff" />
  <rect
     id="rect213"
     transform="matrix(0.58783698,-0.80897941,0.72598915,0.68770615,0,0)"
     height="0.73307043"
     width="0.57818937"
     y="289.11179"
     x="25.033239"
     style="fill:#ffffff" />
  <rect
     id="rect215"
     transform="matrix(0.65949338,-0.75171037,0.6582277,0.7528189,0,0)"
     height="0.80723095"
     width="0.5712049"
     y="264.28085"
     x="52.308914"
     style="fill:#ffffff" />
  <polygon
     id="polygon219"
     transform="matrix(0.41783466,0,0,0.477066,26.095687,94.857701)"
     points="496.27,410.06 497.18,410.96 498.24,409.9 498.86,409.28 498.07,408.88 495.95,407.82 495.38,408.96 496.71,409.62 "
     style="fill:#ffffff" />
  <polygon
     id="polygon221"
     transform="matrix(0.41783466,0,0,0.477066,26.095687,94.857701)"
     points="479.59,394.69 481.08,395.75 481.82,394.72 481,394.13 481.64,393.6 480.83,392.62 479.55,393.68 478.92,394.21 "
     style="fill:#ffffff" />
  <path
     inkscape:connector-curvature="0"
     id="path223"
     d="m 293.26902,263.4277 c -0.11741,-0.51571 -0.63429,-0.7275 -0.69274,-0.74898 l -0.16922,0.57725 0,-0.004 c 0.0422,0.0181 0.10362,0.0544 0.16504,0.0997 l 0.10864,0.52477 c -0.0397,0.0673 -0.0832,0.13024 -0.11742,0.17556 l 0.39026,0.41075 c 0.28454,-0.35637 0.38984,-0.70176 0.31547,-1.03524 z"
     style="fill:#ffffff" />
  <polygon
     id="polygon225"
     transform="matrix(0.41783466,0,0,0.477066,26.095687,94.857701)"
     points="641.38,349.34 639.31,349.19 639.47,347.28 641.54,347.6 "
     style="fill:#ffffff" />
  <path
     inkscape:connector-curvature="0"
     id="path227"
     d="m 314.63436,253.6237 c 0.37897,-0.26954 0.86368,-0.76044 0.79808,0.38022 -0.0673,1.13826 -0.46589,0.75996 -0.79808,1.13826 -0.33218,0.38023 -0.53191,-1.13826 0,-1.51848 z"
     style="fill:#ffffff" />
  <path
     inkscape:connector-curvature="0"
     id="path231"
     d="m 319.14636,249.3277 c -0.008,-0.02 -0.0121,-0.0902 -0.0159,-0.14121 -0.0117,-0.16697 -0.0309,-0.39454 -0.13621,-0.63354 l -0.47507,0.27145 c 0.0589,0.13549 0.0706,0.27861 0.0806,0.416 0.0134,0.17747 0.0309,0.38023 0.18175,0.50855 0.0953,0.0816 0.21561,0.10496 0.35893,0.0739 l -0.10154,-0.58774 c 0.041,0.007 0.0948,0.0491 0.10738,0.0925 z"
     style="fill:#ffffff" />
  <path
     inkscape:connector-curvature="0"
     id="path233"
     d="m 317.96236,249.8257 c 0.13496,0.61542 0.33217,1.22178 0.34095,1.24704 l 0.49889,-0.21373 c -0.004,-0.005 -0.19722,-0.59919 -0.32466,-1.18218 l -0.51518,0.14885 z"
     style="fill:#ffffff" />
  <path
     inkscape:connector-curvature="0"
     id="path235"
     d="m 316.02636,252.2137 -0.52982,-0.0596 c -0.0414,0.47755 0.0598,1.0677 0.47884,1.16358 l 0.10404,-0.59538 c 0.004,0 0.009,0.004 0.01,0.004 -0.043,-0.043 -0.0823,-0.2872 -0.0631,-0.5119 z"
     style="fill:#ffffff" />
  <path
     inkscape:connector-curvature="0"
     id="path237"
     d="m 313.69569,240.1357 c -0.0276,-0.19465 -0.1312,-0.34588 -0.29081,-0.42554 -0.3936,-0.19464 -1.05712,0.12738 -1.38219,0.37545 l 0.29416,0.50569 c 0.33677,-0.25666 0.77882,-0.38022 0.87744,-0.32345 -0.009,-0.004 -0.0209,-0.0215 -0.0242,-0.0334 l 0.52564,-0.0987 z"
     style="fill:#ffffff" />
  <path
     inkscape:connector-curvature="0"
     id="path241"
     d="m 289.14102,207.7957 c -0.35432,0.4055 -1.15237,0.6078 -1.15237,0.6078 l -0.26657,1.11348 -0.44207,0.40455 c 0,0 0.0877,0.30342 0,1.01232 -0.089,0.708 -0.88704,1.11348 -0.88704,1.11348 l -0.35433,0.50617 c 0,0 -2.13723,0.13024 -2.39376,0 -0.79808,-0.40455 -0.26532,-1.61964 0.26658,-1.51848 0.53106,0.10161 -0.0898,-1.72128 -0.0898,-1.72128 l 0.7103,-0.10067 c 0,0 0.0877,-1.82286 0.35432,-1.82286 0.26616,0 -0.0882,-0.60684 -0.44416,-0.91074 -0.35432,-0.30246 -0.79723,-1.31478 -1.15323,-1.21416 -0.35432,0.10067 -1.77285,0 -1.77285,0 l -0.26616,0.6078 -0.97563,0.2018 c 0,0 0.084,0.78288 -0.0865,1.0128 -0.53397,0.708 -2.57173,2.22648 -1.6864,-0.30389 l 0.26533,-0.60636 0,-0.9117 -1.59403,-0.10018 c 0,0 -0.79808,-0.30437 -0.79808,-0.70938 0,-0.40503 -0.089,-0.91026 -0.089,-0.91026 l -1.86229,-2.32806 -2.21536,-0.30342 -0.17841,-0.50712 -1.32832,-0.20228 c -1.59696,-0.91026 -3.0159,-0.10113 -2.74934,1.41738 0.26575,1.51944 0.70822,2.12628 -0.17674,2.12628 -0.88789,0 -1.06464,-0.80958 -1.06464,-0.80958 0,0 -0.70821,-0.30436 -0.70821,0.10019 0,0.4055 -0.26658,1.21512 0,1.61964 0.26491,0.40455 -0.35599,1.01232 -0.62213,0.70842 -0.26407,-0.30389 -0.97398,-1.2132 -0.79638,-1.51704 0.17675,-0.3039 -1.24261,-2.22792 0.17675,-2.53134 1.41899,-0.3039 -0.0886,-1.21512 0.44415,-1.41642 l 0.70822,-0.40551 0.70864,0 0.44374,-0.40551 -1.15238,-0.20132 -0.70821,-0.10161 -1.33077,-0.10114 c -1.32912,1.01232 -1.59446,2.22744 -1.59446,2.22744 -0.71072,1.518 -2.39376,-0.6078 -1.77285,-1.41738 0.61963,-0.81006 -1.95125,-0.10161 -2.39499,0.30342 -0.44416,0.40455 -1.7737,0.20227 -1.7737,0.20227 -0.26533,0.9117 -1.5063,-0.10018 -1.15238,-0.70794 0.35474,-0.60732 0.35474,-1.01232 0.35474,-1.01232 l -0.44248,-0.10161 -0.53148,1.11348 c -1.24139,0 -1.59696,0.8091 -1.3312,1.31574 0.26574,0.50521 -0.35432,-0.10114 -0.53232,0.60732 -0.17591,0.70842 0.0898,0.70842 0.62214,1.01232 0.53232,0.30389 -0.26658,0.30389 0.0882,0.8091 0.35432,0.50712 1.41856,0 0.79845,0.70938 -0.62048,0.708 -1.86309,0.4055 -1.86309,0.4055 -0.0882,0.9093 -1.77285,0.708 -1.94875,0.40456 -0.17841,-0.3039 -1.50714,-2.12628 -1.50714,-2.12628 l -1.68678,-0.10114 c -0.17591,-1.41642 0.79888,-0.70842 1.15323,-1.8219 0.35641,-1.11396 0.53355,-2.9349 0.53355,-2.9349 0,0 -1.42022,-0.10114 -1.50838,0.40455 -0.0877,0.50664 -0.97482,0.81006 -0.97482,0.81006 0,0 -0.70992,0.30294 -0.44374,0.70842 0.26616,0.40551 -0.53232,0.60636 -0.53232,0.60636 0,0 0.1383,0.65406 -0.0882,0.91122 -0.70821,0.81102 -2.48277,0.10066 -2.74768,-0.20228 l -1.06464,-0.50617 -1.06421,-0.80958 -1.24054,0.60636 -0.35432,0.40551 -1.33077,0 -0.0878,1.2132 2.39376,0.30341 0.17758,2.50554 -0.97648,-0.37831 -0.62048,0 -0.26532,-0.6078 -0.53232,-0.10162 0,2.22648 0.53232,0.50713 0.44416,0.50473 0.88661,0.10162 0.17758,1.21416 2.21536,0.10257 0.26616,0.50521 1.33077,0.10161 2.57093,2.93442 -0.17757,0.9117 -0.44416,0.30389 c 0.17842,0.70842 -1.15115,0.3039 -1.15115,0.3039 l 0,0.60636 0.61883,0.10113 0.62213,0.40455 0.88582,-1.72032 c 0.97482,-0.70842 1.41728,0.3039 1.50752,0.91122 0.0877,0.60732 -0.44457,0.50569 -0.44457,0.50569 l 0,1.41834 0.53231,0.20132 c 0.88789,1.21506 -0.35432,1.92402 -0.35432,1.92402 l -0.26657,1.01184 c -0.26616,0.91122 -1.24096,0.708 -1.24096,0.708 l -0.35349,0.6078 -1.0655,0.30389 2.10507,0.30341 c 0.20014,-0.81006 0.73077,-1.01232 0.99696,-0.60732 0.26658,0.40551 0.26658,1.11396 0.26658,1.11396 l 0.53397,0.10115 -0.0903,1.113 0.53232,0.20323 0,3.2388 0.62048,0.80958 c 1.06422,-0.50474 1.06422,0.30437 0.53149,0.70842 -0.53149,0.40407 -0.17758,2.22744 -0.17758,2.22744 l -0.44332,0.50521 0,0.81054 -0.53148,0.40456 0,1.113 c -0.88704,-0.5057 -1.95126,-0.30437 -2.21787,0 -0.79637,-0.6078 -2.48107,-0.40455 -2.48107,0.10209 0.53107,0.80958 -0.61962,1.01232 -0.61962,1.01232 l -0.62214,0.80958 c 0.44416,1.0128 -0.44206,1.113 -0.44206,1.113 l 0,1.92402 -1.06464,1.11348 0.0898,2.63196 c 0,0.70842 1.32912,0.8091 1.59402,0.40456 0.26658,-0.40456 1.3312,0.81054 1.3312,0.81054 l 0.79638,0 0.17841,-1.82286 -0.53274,-0.3039 0,-2.93586 0.88704,-1.11396 c 1.06421,-0.40455 0.70992,2.6334 0.70992,2.93682 0.0882,1.113 0.53023,1.01232 0.97483,0.8091 0.88624,-0.40455 0.17591,1.11492 -0.53232,1.01232 -0.70864,-0.10018 -0.26658,1.01232 -0.26658,1.01232 l 0.44458,0.20324 -0.79888,0.70842 -0.70742,0.9117 -0.88874,-0.30438 -1.06256,-0.10018 -0.35474,-0.71034 -0.62176,-0.10066 -0.0882,1.41642 -0.44248,0.60732 -1.06422,1.2165 c 1.41899,0 -0.17841,1.11108 -0.53232,1.11108 0.79766,0.30389 -0.0882,1.21602 -2.1272,0.50808 l 0,0.70752 -0.71029,0.10161 0.62213,0.80862 0.70822,0.10161 -0.26616,1.7208 c 0,1.31574 -2.92523,0.40361 -3.19184,0.10115 l -0.0882,1.82238 -0.53231,0.0997 0.0882,1.21602 -0.0882,1.72128 0.97482,-0.20275 0,0.7089 2.39504,0.10162 3.45755,-4.15146 2.03861,-0.50521 c 0.17674,-1.01376 1.06256,0.20275 1.06256,0.20275 0.88704,-0.10353 1.06464,0.60636 1.06464,0.60636 l 1.15323,0.20275 c 0.97397,0.30437 0.38524,0.41075 0.44248,0.81102 0.0878,0.60636 0.53149,0.4036 0.53149,0.4036 l 0.17841,-1.31574 0.53232,0.10113 -0.53232,-0.7089 -0.97648,-0.50712 -1.06298,-0.50522 c -0.70992,-1.113 0.17716,-0.91026 0.88704,-0.80862 l 1.15237,0 c 0,0 1.33077,2.02326 1.33077,2.5299 0,0.50712 0.62048,0.60828 0.62048,0.60828 l 0.79638,-0.10161 0.26657,0.70752 0.79766,0 0.26657,0.60636 1.59611,0 0.0886,-0.91026 -1.5088,-0.30198 -0.0877,-1.01376 -1.06299,-0.3039 c -0.356,-1.71936 0.2649,-2.22648 0.70821,-1.41546 l 0.5319,0.0992 -0.17758,-1.51848 0.62006,-0.20275 -0.17675,-2.12628 -0.53148,-0.20085 0,-0.70938 2.21536,0.10305 c -0.17591,-1.31766 0.0894,-1.9245 0.0894,-1.9245 l 0.62048,0 0.0882,0.5076 2.71259,0.28767 1.91787,-2.475 c -0.0965,-0.18892 0.19262,-0.30437 -0.018,-0.54719 -0.26657,-0.30342 -0.62213,0 -1.06714,-0.30342 -0.44207,-0.30198 0,-2.02422 -0.0877,-2.42874 -0.0882,-0.40455 1.5088,-1.01376 1.24261,-0.10114 -0.26615,0.9117 0,1.31622 0,1.31622 1.15238,-1.21512 2.12763,0.10018 2.03947,0.40455 -0.0907,0.30341 0.61963,0.60732 1.06213,0.30341 0.44416,-0.30341 0.97606,0.9117 0.79851,1.51752 -0.17842,0.60732 -1.77243,0.50712 -1.86059,-0.10066 -0.0907,-0.6078 -0.35683,-0.40455 -0.53232,-0.10066 -0.17841,0.30389 -0.97482,0.50522 -1.41898,0.20132 -0.0898,-0.0615 -0.13287,-0.11259 -0.15795,-0.16125 l -1.91786,2.475 0.12451,0.0143 c 1.06299,0.70938 0.53232,1.62012 0.17842,1.82238 -0.356,0.20276 -0.97648,0.20276 -0.97648,0.20276 l -0.17591,0.40551 -2.3056,0.20131 -0.17842,1.01328 c -1.15237,-0.20466 -1.59445,1.21416 -1.32869,1.92162 0.26657,0.70752 0,1.31574 0,1.31574 l 0.9752,0.50713 1.2401,-0.4036 c 0.17841,-1.01376 0.97483,-1.2165 1.68512,-1.82238 0.70822,-0.6078 1.8623,1.11108 1.5063,1.9221 -0.35432,0.80862 -0.35432,1.113 -0.35432,1.113 l 0.0877,0.91164 -0.88581,0.40407 -0.70864,0.40551 -0.0903,0.50664 -2.39291,0 -0.44248,0.50522 -1.15323,0.10353 -0.35599,0.60636 -0.79637,0.10161 c 0,0 -1.33077,0.7089 -0.79808,1.51848 0.5319,0.81054 -2.21579,0.7089 -2.83792,-0.4055 -0.17758,1.01136 -1.15237,0.10113 -1.15237,0.10113 l -0.97483,-0.30436 -0.0882,-1.51662 c -0.17758,-1.01328 -1.86229,-1.01328 -1.77285,-0.3039 0.0882,0.7089 -3.19307,0.3039 -3.19307,0.3039 l -1.06299,0.58107 -0.97648,0.63354 -0.0877,0.50521 -1.59696,0.20276 -0.70821,0.4055 -0.26575,-0.6078 -0.70864,0 -0.70992,1.11444 c -1.86144,0.10162 -3.63429,1.31622 -3.45754,1.82238 0.17757,0.50521 -0.70822,1.01376 -0.70822,1.01376 l -0.79888,0.30007 -0.53065,0.91218 -1.06421,0.40551 -0.17842,2.12676 -0.53064,0.40359 0,0.91212 -0.62176,0.20085 0,0.50712 -0.88624,0.10114 0.53064,1.51896 0.71158,0.4055 c 1.24096,0.20085 0.70821,1.92354 0.70821,1.92354 l 0.70864,0.0997 0.35599,1.113 0.70821,1.61964 c 0.26658,1.2165 1.06464,0.91218 1.41899,0.81102 0.35432,-0.0997 0.70821,1.21416 0.70821,1.21416 l 3.54571,0.10162 c 0,0 -0.17591,0.4055 0.44457,0.6078 0.61963,0.20084 4.69814,0.40551 4.87654,0.10161 -0.17842,-0.91212 2.21493,-1.11492 3.19141,-0.30437 0.97397,0.80862 2.30475,0.30437 2.30475,0.30437 l 1.32954,1.82004 0.88832,2.22792 1.5063,0.50521 1.06298,0.30437 0.356,1.7208 0.79637,0.10162 0.26658,1.11444 c 0.97606,0.8091 -0.26658,2.53038 -0.26658,2.53038 l 0,2.226 0.70992,0.4055 -0.0894,0.81102 1.15403,1.31382 1.32912,0.10305 3.36981,4.04838 2.65867,0.91026 0.44248,1.62012 0.71072,-0.10161 0.53148,-0.50522 2.1272,-0.10114 1.06464,-1.11492 1.15237,-0.20084 9.84107,-9.4146 -0.8879,-0.6078 0,-2.226 c 1.59611,-1.31574 1.6847,-3.64524 0.17758,-3.84756 -1.1432,-0.15361 -0.61962,-1.51848 0.44457,-1.7208 l 0.61963,-0.30246 0,-0.91212 2.03904,-2.12436 0,-1.62012 -4.43152,-4.15146 c -1.95125,-0.80862 0,-5.6685 1.32832,-5.56692 1.33077,0.0997 -0.0877,-7.4904 -0.0877,-7.4904 l -0.7103,-0.40407 0.17842,-2.43066 -0.97483,0 -1.59653,2.3295 -0.44248,1.6182 c -0.17758,2.1282 -5.67467,1.7208 -5.94133,1.4169 -0.26616,-0.3039 -2.1272,-1.21416 -2.1272,-1.21416 0,0 -1.41856,-1.31574 -1.6847,-0.91026 -0.26616,0.4055 -1.50629,-0.50712 -1.50629,-0.20275 0,0.30388 -1.15237,-0.70752 -1.15237,-0.70752 l -1.77286,-0.70938 1.33078,-0.30437 -0.26658,-1.21416 2.30309,1.31574 c 0.26658,0.4036 1.41899,0.30437 1.41899,0.30437 l 0.35432,0.50664 c 0,0 0.71029,-0.10304 1.15488,0.50522 0.44249,0.6078 2.74683,0.10161 2.74683,0.10161 l 0.62048,0.60636 0.97482,0.40551 2.74934,0.10161 0.0882,-1.9221 0.53232,-0.6078 -0.089,-1.21602 0.62048,-0.60636 0,-1.01136 0.53232,-0.20275 0.0882,-2.226 0.44248,-0.10162 0,-4.8594 -1.32954,-1.41786 c -0.0877,0.50712 -1.5063,0.50712 -1.5063,0.50712 0,0 -0.35432,0.70752 -0.62048,0.70752 -0.26532,0 0.35474,0.91026 0.17675,1.51848 -0.17675,0.60636 -0.88662,0.60636 -0.88662,0.60636 l -1.33077,0.40599 -0.35433,0.50664 -1.41898,0 -0.17591,-1.31574 1.59446,-0.50712 0.88661,-0.50474 0.44415,-1.01376 c 0.0878,-1.01088 1.15238,-0.91074 1.15238,-0.91074 0,0 2.03904,-1.92354 2.1272,-2.83284 0.0903,-0.91164 0.79888,-3.4425 2.03946,-3.4425 l 2.3056,0 c 0.88582,-0.40598 0.62006,-1.72128 0.62006,-1.72128 l 1.1528,-0.20132 0.17758,0.70842 c 0,0 1.59654,0.20228 1.77286,-0.10161 0.17841,-0.30247 0.53231,-1.01232 0.97648,-0.70848 0.4429,0.30342 1.86144,-0.7089 1.86144,-0.7089 0.0882,-0.70842 2.30474,-0.40455 2.30474,-0.40455 l 0.26658,-0.91074 c 0,0 -1.50672,-2.32812 -1.77286,-2.32812 -0.26657,0 -1.68469,-1.41834 -1.86272,-0.91164 -1.41685,-0.40456 -1.32912,-2.63196 -1.32912,-2.63196 l -0.53232,-1.41642 c 0,-0.81102 -1.32826,-2.53134 -1.5961,-2.32806 -1.33078,-1.11348 -0.35433,-2.4297 0,-2.53086 0.35432,-0.10066 1.24224,-1.51848 1.24224,-1.51848 l 0.44248,-1.41738 1.50715,-0.50474 0.17758,-1.31622 -0.79637,-0.10161 c 0,0 0.88496,-1.82238 1.32912,-1.82238 0.44415,0 3.36981,0 3.63386,-0.20324 0.26616,-0.20132 0.79766,-1.82094 0.79766,-2.12484 0,-0.30388 0.71114,-0.4055 0.9752,-0.50712 0.26616,-0.10018 0.88661,-0.91026 1.06421,-1.31574 0.17758,-0.40741 -0.44165,-2.93874 -0.79723,-2.53368 z"
     style="fill:#ffffff" />
  <path
     inkscape:connector-curvature="0"
     id="path245"
     d="m 240.02636,244.2877 c 0.13287,-0.1498 0.26657,0.45608 0.53231,0.38023 0.26408,-0.0759 0.39862,0.53193 0.13329,0.53193 -0.26657,0 -0.26657,0.38022 -0.26657,0.53192 0,0.15219 0,0.5305 -0.20015,0.75852 -0.1993,0.22804 -0.39944,0.0759 -0.66602,-0.0759 -0.26533,-0.15171 -0.39694,-0.15171 -0.73078,-0.15171 -0.33175,0 -0.0673,0.6078 -0.0673,0.6078 0,0 -1.39637,-0.0759 -1.12981,-0.30438 0.26616,-0.22612 0.53232,-0.30388 0.33343,-0.45607 -0.20014,-0.15171 0,-0.30246 0,-0.60636 0,-0.30437 0.66517,-0.1517 0.46421,-0.38022 -0.19805,-0.22804 0.004,-1.10868 0.33218,-0.6078 l 0.20056,-0.53241 c -0.20056,-0.22708 -0.066,-0.30389 -0.46505,-0.45321 -0.39861,-0.15218 -0.0677,-1.06386 -0.0677,-1.06386 l 0.0677,-0.60732 c 0.13287,-0.75756 1.46198,-0.83484 1.52928,-0.15218 0.0656,0.68364 0,1.13922 0,1.13922 l 0.39945,0.15123 c 0,0 -0.0673,0.45798 -0.39945,0.45798 -0.33384,0 0,0.2247 -0.20013,0.45369 l 0.20056,0.37879 z"
     style="fill:#ffffff" />
  <path
     inkscape:connector-curvature="0"
     id="path247"
     d="m 235.63702,245.0497 c 0.20015,-0.45608 0.66475,-2.4297 1.1975,-1.8219 0.53023,0.60732 0.86368,0 0.86368,0 0,0 0.26616,0.30437 0.13287,0.9117 -0.13287,0.60636 -0.26658,1.21464 -0.6,1.29048 -0.33134,0.0759 -0.59792,0.30389 -0.99488,0.37975 -0.39861,0.0763 -0.59914,-0.75996 -0.59914,-0.75996 z"
     style="fill:#ffffff" />
</svg>
