<?xml version="1.0" encoding="UTF-8" standalone="no"?>
<svg
   xmlns:dc="http://purl.org/dc/elements/1.1/"
   xmlns:cc="http://creativecommons.org/ns#"
   xmlns:rdf="http://www.w3.org/1999/02/22-rdf-syntax-ns#"
   xmlns:svg="http://www.w3.org/2000/svg"
   xmlns="http://www.w3.org/2000/svg"
   xmlns:sodipodi="http://sodipodi.sourceforge.net/DTD/sodipodi-0.dtd"
   xmlns:inkscape="http://www.inkscape.org/namespaces/inkscape"
   version="1.1"
   width="512"
   height="512"
   id="svg2"
   inkscape:version="0.48.2 r9819"
   sodipodi:docname="cd.svg">
  <metadata
     id="metadata14">
    <rdf:RDF>
      <cc:Work
         rdf:about="">
        <dc:format>image/svg+xml</dc:format>
        <dc:type
           rdf:resource="http://purl.org/dc/dcmitype/StillImage" />
      </cc:Work>
    </rdf:RDF>
  </metadata>
  <defs
     id="defs12">
    <clipPath
       clipPathUnits="userSpaceOnUse"
       id="clipPath3008">
      <rect
         style="fill:#ffffff;fill-opacity:1;stroke:none"
         id="rect3010"
         width="600"
         height="600"
         x="0"
         y="-88" />
    </clipPath>
  </defs>
  <sodipodi:namedview
     pagecolor="#ffffff"
     bordercolor="#666666"
     borderopacity="1"
     objecttolerance="10"
     gridtolerance="10"
     guidetolerance="10"
     inkscape:pageopacity="0"
     inkscape:pageshadow="2"
     inkscape:window-width="1280"
     inkscape:window-height="776"
     id="namedview10"
     showgrid="false"
     inkscape:zoom="0.39333333"
     inkscape:cx="400"
     inkscape:cy="300"
     inkscape:window-x="0"
     inkscape:window-y="24"
     inkscape:window-maximized="1"
     inkscape:current-layer="svg2" />
  <g
     id="flag"
     transform="matrix(0.85333333,0,0,0.85333333,0,75.093335)"
     clip-path="url(#clipPath3008)"
     inkscape:label="#g2997">
    <rect
       id="rect4"
       style="fill:#007fff"
       y="-88"
       x="0"
       height="600"
       width="800" />
    <path
       inkscape:connector-curvature="0"
       id="path6"
       style="fill:#f7d618"
       d="m 36,32 84,0 26,-84 26,84 84,0 -68,52 26,84 L 146,116 78,168 104,84 36,32 z M 750,-88 0,362 l 0,150 0,0 50,0 750,-450 0,-150 -50,0" />
    <path
       inkscape:connector-curvature="0"
       id="path8"
       style="fill:#ce1021"
       d="M 800,-88 0,392 l 0,120 0,0 0,0 800,-480 0,-120" />
  </g>
</svg>
