<?xml version="1.0" encoding="UTF-8" standalone="no"?>
<svg
   xmlns:dc="http://purl.org/dc/elements/1.1/"
   xmlns:cc="http://creativecommons.org/ns#"
   xmlns:rdf="http://www.w3.org/1999/02/22-rdf-syntax-ns#"
   xmlns:svg="http://www.w3.org/2000/svg"
   xmlns="http://www.w3.org/2000/svg"
   xmlns:xlink="http://www.w3.org/1999/xlink"
   xmlns:sodipodi="http://sodipodi.sourceforge.net/DTD/sodipodi-0.dtd"
   xmlns:inkscape="http://www.inkscape.org/namespaces/inkscape"
   width="512"
   height="512"
   viewBox="0 0 170.66667 170.66667"
   id="svg2"
   version="1.1"
   inkscape:version="0.48.2 r9819"
   sodipodi:docname="ge.svg">
  <metadata
     id="metadata27">
    <rdf:RDF>
      <cc:Work
         rdf:about="">
        <dc:format>image/svg+xml</dc:format>
        <dc:type
           rdf:resource="http://purl.org/dc/dcmitype/StillImage" />
      </cc:Work>
    </rdf:RDF>
  </metadata>
  <sodipodi:namedview
     pagecolor="#ffffff"
     bordercolor="#666666"
     borderopacity="1"
     objecttolerance="10"
     gridtolerance="10"
     guidetolerance="10"
     inkscape:pageopacity="0"
     inkscape:pageshadow="2"
     inkscape:window-width="1280"
     inkscape:window-height="776"
     id="namedview25"
     showgrid="false"
     inkscape:zoom="0.73950205"
     inkscape:cx="449.99999"
     inkscape:cy="300"
     inkscape:window-x="0"
     inkscape:window-y="24"
     inkscape:window-maximized="1"
     inkscape:current-layer="svg2" />
  <defs
     id="defs4">
    <g
       id="smallcross">
      <clipPath
         id="vclip">
        <path
           d="m -109,104 a 104,104 0 0 0 0,-208 h 218 a 104,104 0 0 0 0,208 z"
           id="path8"
           inkscape:connector-curvature="0" />
      </clipPath>
      <path
         id="varm"
         d="M -55,74 A 55,55 0 0 1 55,74 V -74 a 55,55 0 0 1 -110,0 z"
         clip-path="url(#vclip)"
         inkscape:connector-curvature="0" />
      <use
         xlink:href="#varm"
         transform="matrix(0,1,-1,0,0,0)"
         id="use11"
         x="0"
         y="0"
         width="300"
         height="200" />
    </g>
  </defs>
  <g
     id="flag"
     transform="matrix(0.53483757,0,0,0.53483757,5.1076988,47.575751)"
     inkscape:label="#g3004">
    <rect
       y="-29.333334"
       x="0"
       id="rect13"
       style="fill:#ffffff"
       height="200"
       width="300" />
    <path
       inkscape:connector-curvature="0"
       id="path15"
       style="fill:#ff0000"
       d="m 130,-29.333334 0,80 -130,0 0,40 130,0 0,80.000004 40,0 0,-80.000004 130,0 0,-40 -130,0 0,-80 -40,0 z" />
    <use
       height="200"
       width="300"
       y="0"
       x="0"
       style="fill:#ff0000"
       id="use17"
       transform="translate(64.45,10.116666)"
       xlink:href="#smallcross" />
    <use
       height="200"
       width="300"
       y="0"
       x="0"
       style="fill:#ff0000"
       id="use19"
       transform="translate(235.55,131.21667)"
       xlink:href="#smallcross" />
    <use
       height="200"
       width="300"
       y="0"
       x="0"
       style="fill:#ff0000"
       id="use21"
       transform="translate(235.55,10.116666)"
       xlink:href="#smallcross" />
    <use
       height="200"
       width="300"
       y="0"
       x="0"
       style="fill:#ff0000"
       id="use23"
       transform="translate(64.45,131.21667)"
       xlink:href="#smallcross" />
  </g>
</svg>
