<?xml version="1.0" encoding="UTF-8" standalone="no"?>
<!-- Created with Sodipodi ("http://www.sodipodi.com/") -->
<svg id="svg548" xmlns:rdf="http://www.w3.org/1999/02/22-rdf-syntax-ns#" xmlns="http://www.w3.org/2000/svg" height="512" width="512" version="1" y="0" x="0" xmlns:cc="http://creativecommons.org/ns#" xmlns:xlink="http://www.w3.org/1999/xlink" xmlns:dc="http://purl.org/dc/elements/1.1/">
 <metadata id="metadata3599">
  <rdf:RDF>
   <cc:Work rdf:about="">
    <dc:format>image/svg+xml</dc:format>
    <dc:type rdf:resource="http://purl.org/dc/dcmitype/StillImage"/>
   </cc:Work>
  </rdf:RDF>
 </metadata>
 <g id="flag" fill-rule="evenodd">
  <rect id="rect781" height="512" width="512" y=".0000030175" x="0" stroke-width="1pt" fill="#da2d1c"/>
  <g id="g7276" transform="matrix(.75289 0 0 .75289 150.58 .00041262)">
   <rect id="rect578" height="256" width="402.29" y=".000019424" x="-200" stroke-width="1pt" fill="#2042a1"/>
   <g id="g714" fill="#fff" transform="matrix(.42119 0 0 .42220 -154.43 11.807)">
    <g id="g641" stroke-width="1pt">
     <path id="path577" d="m453.31 281.15c0 43.546-35.87 78.888-80.066 78.888-44.195 0-80.065-35.342-80.065-78.888s35.87-78.887 80.065-78.887c44.196 0 80.066 35.341 80.066 78.887zm-249.62-17.661 9.419-36.5 25.904 10.597 14.129-29.436-22.372-14.129 22.372-30.613 21.194 21.193 23.548-21.193-14.129-23.549 34.145-17.661 8.242 29.435 31.791-9.419-3.532-27.081 36.5-1.177-2.355 28.258 32.968 10.597 8.242-29.436 32.968 16.484-15.307 24.726 25.904 20.016 20.016-21.193 22.371 28.258-23.548 16.484 15.306 29.436 25.904-9.42 8.242 36.5-27.081 2.355-1.178 32.968 27.081 2.355-8.242 37.678-27.08-11.775-11.775 30.614 22.371 14.129-22.371 29.435-18.839-21.193-25.903 21.193 15.306 24.726-34.145 16.484-9.419-28.258-31.791 8.242 3.532 28.258-37.677 1.178 3.532-28.259-30.613-8.242-10.597 27.081-31.791-16.484 15.307-23.548-27.081-20.017-20.016 20.017-23.549-28.258 24.726-17.662-15.306-28.258-24.726 9.419-10.597-36.5 29.436-2.355v-32.968l-29.436-3.532z"/>
     <polygon id="polygon579" transform="matrix(.83426 0 0 .81345 73.853 71.379)" points="380.16 -6.6901 390.91 29.178 390.91 29.178 360.23 7.705 329.44 29.004 340.38 -6.8029 310.61 -29.508 348.05 -30.164 360.44 -65.496 372.63 -30.095 410.06 -29.226"/>
     <polygon id="polygon580" transform="matrix(.83426 0 0 .81345 70.321 514.09)" points="380.16 -6.6901 390.91 29.178 390.91 29.178 360.23 7.705 329.44 29.004 340.38 -6.8029 310.61 -29.508 348.05 -30.164 360.44 -65.496 372.63 -30.095 410.06 -29.226"/>
     <polygon id="polygon581" transform="matrix(.83426 0 0 .81345 177.47 92.573)" points="380.16 -6.6901 390.91 29.178 390.91 29.178 360.23 7.705 329.44 29.004 340.38 -6.8029 310.61 -29.508 348.05 -30.164 360.44 -65.496 372.63 -30.095 410.06 -29.226"/>
     <polygon id="polygon582" transform="matrix(.83426 0 0 .81345 173.93 495.25)" points="380.16 -6.6901 390.91 29.178 390.91 29.178 360.23 7.705 329.44 29.004 340.38 -6.8029 310.61 -29.508 348.05 -30.164 360.44 -65.496 372.63 -30.095 410.06 -29.226"/>
     <polygon id="polygon583" transform="matrix(.83426 0 0 .81345 -25.051 92.573)" points="380.16 -6.6901 390.91 29.178 390.91 29.178 360.23 7.705 329.44 29.004 340.38 -6.8029 310.61 -29.508 348.05 -30.164 360.44 -65.496 372.63 -30.095 410.06 -29.226"/>
     <polygon id="polygon584" transform="matrix(.83426 0 0 .81345 -28.583 490.54)" points="380.16 -6.6901 390.91 29.178 390.91 29.178 360.23 7.705 329.44 29.004 340.38 -6.8029 310.61 -29.508 348.05 -30.164 360.44 -65.496 372.63 -30.095 410.06 -29.226"/>
     <polygon id="polygon585" transform="matrix(.83426 0 0 .81345 -105.12 149.09)" points="380.16 -6.6901 390.91 29.178 390.91 29.178 360.23 7.705 329.44 29.004 340.38 -6.8029 310.61 -29.508 348.05 -30.164 360.44 -65.496 372.63 -30.095 410.06 -29.226"/>
     <polygon id="polygon586" transform="matrix(.83426 0 0 .81345 -105.12 422.25)" points="380.16 -6.6901 390.91 29.178 390.91 29.178 360.23 7.705 329.44 29.004 340.38 -6.8029 310.61 -29.508 348.05 -30.164 360.44 -65.496 372.63 -30.095 410.06 -29.226"/>
     <polygon id="polygon587" transform="matrix(.83426 0 0 .81345 -145.15 233.86)" points="380.16 -6.6901 390.91 29.178 390.91 29.178 360.23 7.705 329.44 29.004 340.38 -6.8029 310.61 -29.508 348.05 -30.164 360.44 -65.496 372.63 -30.095 410.06 -29.226"/>
     <polygon id="polygon588" transform="matrix(.83426 0 0 .81345 -145.15 328.06)" points="380.16 -6.6901 390.91 29.178 390.91 29.178 360.23 7.705 329.44 29.004 340.38 -6.8029 310.61 -29.508 348.05 -30.164 360.44 -65.496 372.63 -30.095 410.06 -29.226"/>
     <polygon id="polygon589" transform="matrix(-.83426 0 0 .81345 844.63 153.8)" points="380.16 -6.6901 390.91 29.178 390.91 29.178 360.23 7.705 329.44 29.004 340.38 -6.8029 310.61 -29.508 348.05 -30.164 360.44 -65.496 372.63 -30.095 410.06 -29.226"/>
     <polygon id="polygon590" transform="matrix(-.83426 0 0 .81345 851.7 426.96)" points="380.16 -6.6901 390.91 29.178 390.91 29.178 360.23 7.705 329.44 29.004 340.38 -6.8029 310.61 -29.508 348.05 -30.164 360.44 -65.496 372.63 -30.095 410.06 -29.226"/>
     <polygon id="polygon591" transform="matrix(-.83426 0 0 .81345 887.02 240.93)" points="380.16 -6.6901 390.91 29.178 390.91 29.178 360.23 7.705 329.44 29.004 340.38 -6.8029 310.61 -29.508 348.05 -30.164 360.44 -65.496 372.63 -30.095 410.06 -29.226"/>
     <polygon id="polygon592" transform="matrix(-.83426 0 0 .81345 894.08 332.77)" points="380.16 -6.6901 390.91 29.178 390.91 29.178 360.23 7.705 329.44 29.004 340.38 -6.8029 310.61 -29.508 348.05 -30.164 360.44 -65.496 372.63 -30.095 410.06 -29.226"/>
    </g>
    <g id="g657" stroke="#2042a1" transform="translate(0 -.000015259)">
     <path id="path596" d="m659.34 228.82c-58.743 66.52-125.15 86.43-133.44 83.515-5.85-6.672 81.913-61.578 63.944-94.257-17.481-30.474 25.417-32.303 43.615-32.303 14.728 2.355 50.37 15.055 25.884 43.045z" transform="matrix(.32804 -.27966 .53187 .60314 148.12 249)" stroke-width="5.1709"/>
     <path id="path594" d="m489.91 218.33c0 104.64 48.241 151.33 30.732 159.62-17.704 9.039-50.699-39.674-65.203-141.61-18.098-128.21 39.585-145.7 62.625-118.86-27.599 30.613-30.509 36.239-28.154 100.85z" transform="matrix(.71069 .44808 -.39374 .89221 162.72 -138.07)" stroke-width="4"/>
     <path id="path597" d="m659.34 228.82c-58.743 66.52-125.15 86.43-133.44 83.515-5.85-6.672 78.36-36.986 63.944-94.257-8.699-32.444 20.251-14.798 38.449-14.798 14.728 2.355 55.536-2.45 31.05 25.54z" transform="matrix(.45194 -.16867 .49972 .75969 65.475 244.68)" stroke-width="5.1709"/>
     <path id="path598" d="m511.04 209.26c12.375 37.794 36.741 75.557 19.232 83.852-17.704 9.039-45.465-49.74-56.006-98.588-12.683-59.93 19.011-106.25 43.805-77.036-24.061 29.454-17.487 61.631-7.031 91.772z" transform="matrix(.74666 .66520 -.66520 .74666 168.21 -129.15)" stroke-width="4"/>
     <path id="path599" d="m646.23 228.25c-59.066 58.266-115.23 87.23-120.33 84.088-9.764-2.631 72.915-49.768 63.906-84.095-7.025-32.565 8.225-21.092 28.741-25.019 23.764 2.841 54.499-2.535 27.685 25.026z" transform="matrix(-.41860 -.30731 -.69677 .86785 702.36 270.34)" stroke-width="5.1709"/>
     <path id="path600" d="m511.04 209.26c12.375 37.794 36.741 75.557 19.232 83.852-17.704 9.039-43.915-50.473-56.006-98.588-8.185-39.32 2.241-54.87 23.585-73.338-16.919 28.09 2.733 57.933 13.189 88.074z" transform="matrix(-.56768 .87884 .68944 .93932 481.97 -301.75)" stroke-width="4"/>
     <path id="path602" d="m511.04 209.26c12.375 37.794 36.741 75.557 19.232 83.852-17.704 9.039-43.915-50.473-56.006-98.588-8.185-39.32 16.179-58.154 37.523-76.622-26.824 37.879-11.205 61.217-0.749 91.358z" transform="matrix(-.66952 .99107 .59334 1.234 557.4 -446.51)" stroke-width="4"/>
     <path id="path601" d="m634.09 224.33c-36.813 34.048-138.18 41.329-142.29 35.672-4.653-5.871 76.045-15.168 98.743-36.001 22.804-21.97 4.517-23.58-8.457-45.548 28.83 4.003 84.145 17.808 52.005 45.877z" transform="matrix(-.086864 -.58786 -1.1817 .25513 600.61 524.39)" stroke-width="5.1709"/>
    </g>
    <g id="g673" stroke="#2042a1" stroke-width="1pt">
     <ellipse id="path672" d="m 383.84154,394.76855 c 0,13.98093 -5.27153,25.31472 -11.77428,25.31472 -6.50275,0 -11.77428,-11.33379 -11.77428,-25.31472 0,-13.98092 5.27153,-25.31471 11.77428,-25.31471 6.50275,0 11.77428,11.33379 11.77428,25.31471 z" rx="11.774" ry="25.315" transform="matrix(.90870 -.41345 .35982 .70563 -131.62 28.079)" cy="394.77" cx="372.07"/>
     <ellipse id="path670" d="m 383.84154,394.76855 c 0,13.98093 -5.27153,25.31472 -11.77428,25.31472 -6.50275,0 -11.77428,-11.33379 -11.77428,-25.31472 0,-13.98092 5.27153,-25.31471 11.77428,-25.31471 6.50275,0 11.77428,11.33379 11.77428,25.31471 z" rx="11.774" ry="25.315" transform="matrix(.94212 -.33027 .29506 .73506 -118.82 11.709)" cy="394.77" cx="372.07"/>
     <ellipse id="path671" d="m 383.84154,394.76855 c 0,13.98093 -5.27153,25.31472 -11.77428,25.31472 -6.50275,0 -11.77428,-11.33379 -11.77428,-25.31472 0,-13.98092 5.27153,-25.31471 11.77428,-25.31471 6.50275,0 11.77428,11.33379 11.77428,25.31471 z" rx="11.774" ry="25.315" transform="matrix(.99483 -.083577 .10140 .78556 -43.401 -107.49)" cy="394.77" cx="372.07"/>
     <ellipse id="path668" d="m 383.84154,394.76855 c 0,13.98093 -5.27153,25.31472 -11.77428,25.31472 -6.50275,0 -11.77428,-11.33379 -11.77428,-25.31472 0,-13.98092 5.27153,-25.31471 11.77428,-25.31471 6.50275,0 11.77428,11.33379 11.77428,25.31471 z" rx="11.774" ry="25.315" transform="matrix(.98625 -.15485 .15758 .77624 -75.624 -45.598)" cy="394.77" cx="372.07"/>
     <ellipse id="path666" d="m 383.84154,394.76855 c 0,13.98093 -5.27153,25.31472 -11.77428,25.31472 -6.50275,0 -11.77428,-11.33379 -11.77428,-25.31472 0,-13.98092 5.27153,-25.31471 11.77428,-25.31471 6.50275,0 11.77428,11.33379 11.77428,25.31471 z" rx="11.774" ry="25.315" transform="matrix(.98625 -.15485 .15758 .77624 -75.624 -20.872)" cy="394.77" cx="372.07"/>
     <ellipse id="path669" d="m 383.84154,394.76855 c 0,13.98093 -5.27153,25.31472 -11.77428,25.31472 -6.50275,0 -11.77428,-11.33379 -11.77428,-25.31472 0,-13.98092 5.27153,-25.31471 11.77428,-25.31471 6.50275,0 11.77428,11.33379 11.77428,25.31471 z" rx="11.774" ry="25.315" transform="matrix(.99358 .097306 -.042017 .79096 20.064 -149.23)" cy="394.77" cx="372.07"/>
     <ellipse id="path667" d="m 383.84154,394.76855 c 0,13.98093 -5.27153,25.31472 -11.77428,25.31472 -6.50275,0 -11.77428,-11.33379 -11.77428,-25.31472 0,-13.98092 5.27153,-25.31471 11.77428,-25.31471 6.50275,0 11.77428,11.33379 11.77428,25.31471 z" rx="11.774" ry="25.315" transform="matrix(.99358 .097306 -.042017 .79096 20.064 -124.51)" cy="394.77" cx="372.07"/>
     <ellipse id="path638" d="m 383.84154,394.76855 c 0,13.98093 -5.27153,25.31472 -11.77428,25.31472 -6.50275,0 -11.77428,-11.33379 -11.77428,-25.31472 0,-13.98092 5.27153,-25.31471 11.77428,-25.31471 6.50275,0 11.77428,11.33379 11.77428,25.31471 z" rx="11.774" ry="25.315" transform="matrix(.99714 .048767 -.0034176 .79207 -29.284 -76.769)" cy="394.77" cx="372.07"/>
     <ellipse id="path639" d="m 383.84154,394.76855 c 0,13.98093 -5.27153,25.31472 -11.77428,25.31472 -6.50275,0 -11.77428,-11.33379 -11.77428,-25.31472 0,-13.98092 5.27153,-25.31471 11.77428,-25.31471 6.50275,0 11.77428,11.33379 11.77428,25.31471 z" rx="11.774" ry="25.315" transform="matrix(.99714 .048767 -.0034176 .79207 -11.623 -76.713)" cy="394.77" cx="372.07"/>
     <ellipse id="path640" d="m 383.84154,394.76855 c 0,13.98093 -5.27153,25.31472 -11.77428,25.31472 -6.50275,0 -11.77428,-11.33379 -11.77428,-25.31472 0,-13.98092 5.27153,-25.31471 11.77428,-25.31471 6.50275,0 11.77428,11.33379 11.77428,25.31471 z" rx="11.774" ry="25.315" transform="matrix(.95309 .29715 -.20184 .76593 103.12 -158.75)" cy="394.77" cx="372.07"/>
     <ellipse id="path635" d="m 383.84154,394.76855 c 0,13.98093 -5.27153,25.31472 -11.77428,25.31472 -6.50275,0 -11.77428,-11.33379 -11.77428,-25.31472 0,-13.98092 5.27153,-25.31471 11.77428,-25.31471 6.50275,0 11.77428,11.33379 11.77428,25.31471 z" rx="11.774" ry="25.315" transform="matrix(.99714 .048767 -.0034176 .79207 -30.462 -49.688)" cy="394.77" cx="372.07"/>
     <ellipse id="path636" d="m 383.84154,394.76855 c 0,13.98093 -5.27153,25.31472 -11.77428,25.31472 -6.50275,0 -11.77428,-11.33379 -11.77428,-25.31472 0,-13.98092 5.27153,-25.31471 11.77428,-25.31471 6.50275,0 11.77428,11.33379 11.77428,25.31471 z" rx="11.774" ry="25.315" transform="matrix(.99714 .048767 -.0034176 .79207 -12.8 -56.697)" cy="394.77" cx="372.07"/>
     <ellipse id="path637" d="m 383.84154,394.76855 c 0,13.98093 -5.27153,25.31472 -11.77428,25.31472 -6.50275,0 -11.77428,-11.33379 -11.77428,-25.31472 0,-13.98092 5.27153,-25.31471 11.77428,-25.31471 6.50275,0 11.77428,11.33379 11.77428,25.31471 z" rx="11.774" ry="25.315" transform="matrix(.95309 .29715 -.20184 .76593 101.95 -134.02)" cy="394.77" cx="372.07"/>
     <ellipse id="path603" d="m 383.84154,394.76855 c 0,13.98093 -5.27153,25.31472 -11.77428,25.31472 -6.50275,0 -11.77428,-11.33379 -11.77428,-25.31472 0,-13.98092 5.27153,-25.31471 11.77428,-25.31471 6.50275,0 11.77428,11.33379 11.77428,25.31471 z" rx="11.774" ry="25.315" transform="matrix(1.2895 -.094097 .12188 .99556 -152.3 63.843)" cy="394.77" cx="372.07"/>
     <ellipse id="path632" d="m 383.84154,394.76855 c 0,13.98093 -5.27153,25.31472 -11.77428,25.31472 -6.50275,0 -11.77428,-11.33379 -11.77428,-25.31472 0,-13.98092 5.27153,-25.31471 11.77428,-25.31471 6.50275,0 11.77428,11.33379 11.77428,25.31471 z" rx="11.774" ry="25.315" transform="matrix(.99714 .048767 -.0034176 .79207 -38.704 -22.607)" cy="394.77" cx="372.07"/>
     <ellipse id="path633" d="m 383.84154,394.76855 c 0,13.98093 -5.27153,25.31472 -11.77428,25.31472 -6.50275,0 -11.77428,-11.33379 -11.77428,-25.31472 0,-13.98092 5.27153,-25.31471 11.77428,-25.31471 6.50275,0 11.77428,11.33379 11.77428,25.31471 z" rx="11.774" ry="25.315" transform="matrix(.99714 .048767 -.0034176 .79207 -17.51 -28.439)" cy="394.77" cx="372.07"/>
     <ellipse id="path634" d="m 383.84154,394.76855 c 0,13.98093 -5.27153,25.31472 -11.77428,25.31472 -6.50275,0 -11.77428,-11.33379 -11.77428,-25.31472 0,-13.98092 5.27153,-25.31471 11.77428,-25.31471 6.50275,0 11.77428,11.33379 11.77428,25.31471 z" rx="11.774" ry="25.315" transform="matrix(.95309 .29715 -.20184 .76593 93.706 -106.94)" cy="394.77" cx="372.07"/>
     <ellipse id="path629" d="m 383.84154,394.76855 c 0,13.98093 -5.27153,25.31472 -11.77428,25.31472 -6.50275,0 -11.77428,-11.33379 -11.77428,-25.31472 0,-13.98092 5.27153,-25.31471 11.77428,-25.31471 6.50275,0 11.77428,11.33379 11.77428,25.31471 z" rx="11.774" ry="25.315" transform="matrix(.97813 .19985 -.12384 .78233 25.314 -50.872)" cy="394.77" cx="372.07"/>
     <ellipse id="path630" d="m 383.84154,394.76855 c 0,13.98093 -5.27153,25.31472 -11.77428,25.31472 -6.50275,0 -11.77428,-11.33379 -11.77428,-25.31472 0,-13.98092 5.27153,-25.31471 11.77428,-25.31471 6.50275,0 11.77428,11.33379 11.77428,25.31471 z" rx="11.774" ry="25.315" transform="matrix(.97813 .19985 -.12384 .78233 42.761 -48.131)" cy="394.77" cx="372.07"/>
     <ellipse id="path631" d="m 383.84154,394.76855 c 0,13.98093 -5.27153,25.31472 -11.77428,25.31472 -6.50275,0 -11.77428,-11.33379 -11.77428,-25.31472 0,-13.98092 5.27153,-25.31471 11.77428,-25.31471 6.50275,0 11.77428,11.33379 11.77428,25.31471 z" rx="11.774" ry="25.315" transform="matrix(.89681 .43865 -.31599 .72632 169.01 -114.08)" cy="394.77" cx="372.07"/>
     <ellipse id="path609" d="m 383.84154,394.76855 c 0,13.98093 -5.27153,25.31472 -11.77428,25.31472 -6.50275,0 -11.77428,-11.33379 -11.77428,-25.31472 0,-13.98092 5.27153,-25.31471 11.77428,-25.31471 6.50275,0 11.77428,11.33379 11.77428,25.31471 z" rx="11.774" ry="25.315" transform="matrix(.99556 -.074334 .094097 .78647 -47.269 111.36)" cy="394.77" cx="372.07"/>
     <ellipse id="path610" d="m 383.84154,394.76855 c 0,13.98093 -5.27153,25.31472 -11.77428,25.31472 -6.50275,0 -11.77428,-11.33379 -11.77428,-25.31472 0,-13.98092 5.27153,-25.31471 11.77428,-25.31471 6.50275,0 11.77428,11.33379 11.77428,25.31471 z" rx="11.774" ry="25.315" transform="matrix(.93394 .35275 -.24659 .75271 143.12 -34.215)" cy="394.77" cx="372.07"/>
     <ellipse id="path611" d="m 383.84154,394.76855 c 0,13.98093 -5.27153,25.31472 -11.77428,25.31472 -6.50275,0 -11.77428,-11.33379 -11.77428,-25.31472 0,-13.98092 5.27153,-25.31471 11.77428,-25.31471 6.50275,0 11.77428,11.33379 11.77428,25.31471 z" rx="11.774" ry="25.315" transform="matrix(.99729 .045637 -.00093178 .79208 6.0861 60.981)" cy="394.77" cx="372.07"/>
     <ellipse id="path612" d="m 383.84154,394.76855 c 0,13.98093 -5.27153,25.31472 -11.77428,25.31472 -6.50275,0 -11.77428,-11.33379 -11.77428,-25.31472 0,-13.98092 5.27153,-25.31471 11.77428,-25.31471 6.50275,0 11.77428,11.33379 11.77428,25.31471 z" rx="11.774" ry="25.315" transform="matrix(.99729 .045637 -.00093178 .79208 -17.463 32.723)" cy="394.77" cx="372.07"/>
     <ellipse id="path613" d="m 383.84154,394.76855 c 0,13.98093 -5.27153,25.31472 -11.77428,25.31472 -6.50275,0 -11.77428,-11.33379 -11.77428,-25.31472 0,-13.98092 5.27153,-25.31471 11.77428,-25.31471 6.50275,0 11.77428,11.33379 11.77428,25.31471 z" rx="11.774" ry="25.315" transform="matrix(.99729 .045637 -.00093178 .79208 .19896 32.723)" cy="394.77" cx="372.07"/>
     <ellipse id="path616" d="m 383.84154,394.76855 c 0,13.98093 -5.27153,25.31472 -11.77428,25.31472 -6.50275,0 -11.77428,-11.33379 -11.77428,-25.31472 0,-13.98092 5.27153,-25.31471 11.77428,-25.31471 6.50275,0 11.77428,11.33379 11.77428,25.31471 z" rx="11.774" ry="25.315" transform="matrix(.95402 .29416 -.19944 .76656 109.97 -76.749)" cy="394.77" cx="372.07"/>
     <ellipse id="path614" d="m 383.84154,394.76855 c 0,13.98093 -5.27153,25.31472 -11.77428,25.31472 -6.50275,0 -11.77428,-11.33379 -11.77428,-25.31472 0,-13.98092 5.27153,-25.31471 11.77428,-25.31471 6.50275,0 11.77428,11.33379 11.77428,25.31471 z" rx="11.774" ry="25.315" transform="matrix(.95402 .29416 -.19944 .76656 114.68 -52.023)" cy="394.77" cx="372.07"/>
     <ellipse id="path615" d="m 383.84154,394.76855 c 0,13.98093 -5.27153,25.31472 -11.77428,25.31472 -6.50275,0 -11.77428,-11.33379 -11.77428,-25.31472 0,-13.98092 5.27153,-25.31471 11.77428,-25.31471 6.50275,0 11.77428,11.33379 11.77428,25.31471 z" rx="11.774" ry="25.315" transform="matrix(.95402 .29416 -.19944 .76656 128.81 -47.314)" cy="394.77" cx="372.07"/>
     <ellipse id="path617" d="m 383.84154,394.76855 c 0,13.98093 -5.27153,25.31472 -11.77428,25.31472 -6.50275,0 -11.77428,-11.33379 -11.77428,-25.31472 0,-13.98092 5.27153,-25.31471 11.77428,-25.31471 6.50275,0 11.77428,11.33379 11.77428,25.31471 z" rx="11.774" ry="25.315" transform="matrix(.95402 .29416 -.19944 .76656 120.57 -105.01)" cy="394.77" cx="372.07"/>
     <ellipse id="path628" d="m 383.84154,394.76855 c 0,13.98093 -5.27153,25.31472 -11.77428,25.31472 -6.50275,0 -11.77428,-11.33379 -11.77428,-25.31472 0,-13.98092 5.27153,-25.31471 11.77428,-25.31471 6.50275,0 11.77428,11.33379 11.77428,25.31471 z" rx="11.774" ry="25.315" transform="matrix(.99581 .071019 -.021103 .79180 53.457 -141.45)" cy="394.77" cx="372.07"/>
     <ellipse id="path618" d="m 383.84154,394.76855 c 0,13.98093 -5.27153,25.31472 -11.77428,25.31472 -6.50275,0 -11.77428,-11.33379 -11.77428,-25.31472 0,-13.98092 5.27153,-25.31471 11.77428,-25.31471 6.50275,0 11.77428,11.33379 11.77428,25.31471 z" rx="11.774" ry="25.315" transform="matrix(.95402 .29416 -.19944 .76656 126.46 -79.104)" cy="394.77" cx="372.07"/>
     <ellipse id="path619" d="m 383.84154,394.76855 c 0,13.98093 -5.27153,25.31472 -11.77428,25.31472 -6.50275,0 -11.77428,-11.33379 -11.77428,-25.31472 0,-13.98092 5.27153,-25.31471 11.77428,-25.31471 6.50275,0 11.77428,11.33379 11.77428,25.31471 z" rx="11.774" ry="25.315" transform="matrix(.95402 .29416 -.19944 .76656 140.58 -75.572)" cy="394.77" cx="372.07"/>
     <ellipse id="path626" d="m 383.84154,394.76855 c 0,13.98093 -5.27153,25.31472 -11.77428,25.31472 -6.50275,0 -11.77428,-11.33379 -11.77428,-25.31472 0,-13.98092 5.27153,-25.31471 11.77428,-25.31471 6.50275,0 11.77428,11.33379 11.77428,25.31471 z" rx="11.774" ry="25.315" transform="matrix(.99581 .071019 -.021103 .79180 41.682 -116.72)" cy="394.77" cx="372.07"/>
     <ellipse id="path627" d="m 383.84154,394.76855 c 0,13.98093 -5.27153,25.31472 -11.77428,25.31472 -6.50275,0 -11.77428,-11.33379 -11.77428,-25.31472 0,-13.98092 5.27153,-25.31471 11.77428,-25.31471 6.50275,0 11.77428,11.33379 11.77428,25.31471 z" rx="11.774" ry="25.315" transform="matrix(.99122 0.119 -.059293 .78985 78.482 -133.81)" cy="394.77" cx="372.07"/>
     <ellipse id="path624" d="m 383.84154,394.76855 c 0,13.98093 -5.27153,25.31472 -11.77428,25.31472 -6.50275,0 -11.77428,-11.33379 -11.77428,-25.31472 0,-13.98092 5.27153,-25.31471 11.77428,-25.31471 6.50275,0 11.77428,11.33379 11.77428,25.31471 z" rx="11.774" ry="25.315" transform="matrix(.99581 .071019 -.021103 .79180 39.328 -94.353)" cy="394.77" cx="372.07"/>
     <ellipse id="path625" d="m 383.84154,394.76855 c 0,13.98093 -5.27153,25.31472 -11.77428,25.31472 -6.50275,0 -11.77428,-11.33379 -11.77428,-25.31472 0,-13.98092 5.27153,-25.31471 11.77428,-25.31471 6.50275,0 11.77428,11.33379 11.77428,25.31471 z" rx="11.774" ry="25.315" transform="matrix(.99122 0.119 -.059293 .78985 76.127 -109.08)" cy="394.77" cx="372.07"/>
     <ellipse id="path620" d="m 383.84154,394.76855 c 0,13.98093 -5.27153,25.31472 -11.77428,25.31472 -6.50275,0 -11.77428,-11.33379 -11.77428,-25.31472 0,-13.98092 5.27153,-25.31471 11.77428,-25.31471 6.50275,0 11.77428,11.33379 11.77428,25.31471 z" rx="11.774" ry="25.315" transform="matrix(.99581 .071019 -.021103 .79180 41.682 -64.917)" cy="394.77" cx="372.07"/>
     <ellipse id="path621" d="m 383.84154,394.76855 c 0,13.98093 -5.27153,25.31472 -11.77428,25.31472 -6.50275,0 -11.77428,-11.33379 -11.77428,-25.31472 0,-13.98092 5.27153,-25.31471 11.77428,-25.31471 6.50275,0 11.77428,11.33379 11.77428,25.31471 z" rx="11.774" ry="25.315" transform="matrix(.95402 .29416 -.19944 .76656 137.05 -109.72)" cy="394.77" cx="372.07"/>
     <ellipse id="path622" d="m 383.84154,394.76855 c 0,13.98093 -5.27153,25.31472 -11.77428,25.31472 -6.50275,0 -11.77428,-11.33379 -11.77428,-25.31472 0,-13.98092 5.27153,-25.31471 11.77428,-25.31471 6.50275,0 11.77428,11.33379 11.77428,25.31471 z" rx="11.774" ry="25.315" transform="matrix(.95402 .29416 -.19944 .76656 152.36 -105.01)" cy="394.77" cx="372.07"/>
     <ellipse id="path623" d="m 383.84154,394.76855 c 0,13.98093 -5.27153,25.31472 -11.77428,25.31472 -6.50275,0 -11.77428,-11.33379 -11.77428,-25.31472 0,-13.98092 5.27153,-25.31471 11.77428,-25.31471 6.50275,0 11.77428,11.33379 11.77428,25.31471 z" rx="11.774" ry="25.315" transform="matrix(.99122 0.119 -.059293 .78985 80.837 -82.002)" cy="394.77" cx="372.07"/>
    </g>
   </g>
  </g>
 </g>
</svg>
