<?xml version="1.0" encoding="UTF-8" standalone="no"?>
<!-- Created with Inkscape (http://www.inkscape.org/) -->

<svg
   xmlns:dc="http://purl.org/dc/elements/1.1/"
   xmlns:cc="http://creativecommons.org/ns#"
   xmlns:rdf="http://www.w3.org/1999/02/22-rdf-syntax-ns#"
   xmlns:svg="http://www.w3.org/2000/svg"
   xmlns="http://www.w3.org/2000/svg"
   xmlns:sodipodi="http://sodipodi.sourceforge.net/DTD/sodipodi-0.dtd"
   xmlns:inkscape="http://www.inkscape.org/namespaces/inkscape"
   version="1.0"
   width="640"
   height="480"
   id="svg2"
   inkscape:version="0.48.1 r9760"
   sodipodi:docname="bq.svg">
  <sodipodi:namedview
     pagecolor="#ffffff"
     bordercolor="#666666"
     borderopacity="1"
     objecttolerance="10"
     gridtolerance="10"
     guidetolerance="10"
     inkscape:pageopacity="0"
     inkscape:pageshadow="2"
     inkscape:window-width="1280"
     inkscape:window-height="746"
     id="namedview12"
     showgrid="false"
     inkscape:zoom="0.475"
     inkscape:cx="182.63158"
     inkscape:cy="326.31579"
     inkscape:window-x="0"
     inkscape:window-y="24"
     inkscape:window-maximized="1"
     inkscape:current-layer="svg2" />
  <metadata
     id="metadata14">
    <rdf:RDF>
      <cc:Work
         rdf:about="">
        <dc:format>image/svg+xml</dc:format>
        <dc:type
           rdf:resource="http://purl.org/dc/dcmitype/StillImage" />
      </cc:Work>
    </rdf:RDF>
  </metadata>
  <defs
     id="defs4">
    <clipPath
       id="clipPath3053"
       clipPathUnits="userSpaceOnUse">
      <rect
         y="-2.3437501e-06"
         width="600"
         style="fill:#000000;fill-opacity:0.67000002;stroke:none"
         x="150"
         height="600"
         id="rect3055" />
    </clipPath>
  </defs>
  <g
     id="flag"
     transform="matrix(0.83333333,0,0,0.9375,106.66667,-1.875e-6)"
     inkscape:label="#g3473">
    <rect
       width="768"
       height="512"
       x="-128"
       y="2e-06"
       style="fill:#dc171d"
       id="red bg" />
    <path
       d="m -110.93333,17.066669 356.69333,0 0,109.226661 L 32.426666,245.76 l -143.359996,0 0,-228.693331"
       style="fill:#012a87"
       id="ul blue"
       inkscape:connector-curvature="0" />
    <path
       d="m 622.93333,17.066669 -356.69333,0 0,109.226661 213.33333,119.46667 143.36,0 0,-228.693331"
       style="fill:#012a87"
       id="ur blue"
       inkscape:connector-curvature="0" />
    <path
       d="m -110.93333,494.93333 356.69333,0 0,-109.22666 L 32.426666,266.24 l -143.359996,0 0,228.69333"
       style="fill:#012a87"
       id="ll blue"
       inkscape:connector-curvature="0" />
    <path
       d="m 622.93333,494.93333 -356.69333,0 0,-109.22666 213.33333,-119.46667 143.36,0 0,228.69333"
       style="fill:#012a87"
       id="lr blue"
       inkscape:connector-curvature="0" />
    <path
       d="M 256,144.03157 56.056319,256 256,367.96843 455.94368,256 256,144.03157 z"
       style="fill:#ffffff"
       id="white diamond"
       inkscape:connector-curvature="0" />
    <path
       d="m 256,170.23999 6.88448,21.18554 22.27608,8.4e-4 -18.02123,13.09423 6.88288,21.18607 L 256,212.6138 l -18.02221,13.09287 6.88288,-21.18607 -18.02123,-13.09423 22.27608,-8.4e-4 L 256,170.23999 z"
       style="fill:#f9d90f"
       id="star"
       inkscape:connector-curvature="0" />
    <path
       d="m 112.19391,287.44713 c 2.31365,-7.55049 7.35078,-10.89645 14.16038,-9.38237 4.21438,-15.98355 23.66983,-18.83397 31.39047,-10.97143 l 19.00595,19.08929 c 4.12817,1.92063 10.41706,2.64086 14.78531,2.64086 5.40081,0.0849 4.79674,2.56458 9.30954,2.65081 12.02893,0.22985 43.64184,0.39057 49.37142,0 2.3459,-0.15992 54.72778,-57.90476 54.72778,-57.90476 4.36825,-5.38413 15.74603,-7.11112 21.94286,-2.74286 5.79048,5.48571 11.88571,6.09524 16.15238,2.43809 3.75873,-5.5873 12.28129,-6.2371 17.67618,-3.04762 l 59.26458,45.9221 -79.93042,44.71409 -168.15637,0 -59.70006,-33.4062 z"
       style="fill:#008830"
       id="island"
       inkscape:connector-curvature="0" />
  </g>
</svg>
