<?xml version="1.0" encoding="UTF-8" standalone="no"?>
<!-- Created with Sodipodi ("http://www.sodipodi.com/") -->

<svg
   xmlns:dc="http://purl.org/dc/elements/1.1/"
   xmlns:cc="http://creativecommons.org/ns#"
   xmlns:rdf="http://www.w3.org/1999/02/22-rdf-syntax-ns#"
   xmlns:svg="http://www.w3.org/2000/svg"
   xmlns="http://www.w3.org/2000/svg"
   xmlns:sodipodi="http://sodipodi.sourceforge.net/DTD/sodipodi-0.dtd"
   xmlns:inkscape="http://www.inkscape.org/namespaces/inkscape"
   id="svg548"
   sodipodi:version="0.33pre"
   width="640"
   height="480"
   sodipodi:docname="cd.svg"
   version="1.1"
   inkscape:version="0.48.1 r9760">
  <sodipodi:namedview
     id="base"
     showgrid="false"
     inkscape:zoom="0.44080424"
     inkscape:cx="83.937489"
     inkscape:cy="248.03149"
     inkscape:window-width="1280"
     inkscape:window-height="746"
     inkscape:window-x="0"
     inkscape:window-y="24"
     inkscape:window-maximized="1"
     inkscape:current-layer="svg548" />
  <metadata
     id="metadata13">
    <rdf:RDF>
      <cc:Work
         rdf:about="">
        <dc:format>image/svg+xml</dc:format>
        <dc:type
           rdf:resource="http://purl.org/dc/dcmitype/StillImage" />
      </cc:Work>
    </rdf:RDF>
  </metadata>
  <defs
     id="defs550" />
  <g
     id="flag"
     inkscape:label="#g3132">
    <rect
       sodipodi:fill-cmyk="(1 0.8 0 0)"
       y="0"
       x="0"
       height="480"
       width="640"
       id="rect551"
       style="font-size:12px;fill:#0033ff;fill-opacity:1;fill-rule:evenodd;stroke-width:1pt"
       inkscape:label="#rect551" />
    <g
       transform="translate(0,-31.778747)"
       id="g3124">
      <polygon
         d="m 192.26143,142.48953 -29.10156,-21.17346 -29.16367,21.08783 11.14428,-34.22019 -29.06779,-21.219794 35.98911,0.02422 11.19878,-34.202391 11.09821,34.235161 35.98902,0.08156 -29.13003,21.134274 z"
         inkscape:randomized="0"
         inkscape:rounded="0"
         inkscape:flatsided="false"
         sodipodi:type="star"
         style="font-size:12px;fill:#ffde00;fill-opacity:1;fill-rule:evenodd;stroke-width:1pt"
         id="polygon556"
         sodipodi:sides="5"
         sodipodi:cx="163.18774"
         sodipodi:cy="102.34911"
         sodipodi:r1="49.563419"
         sodipodi:r2="18.966976"
         sodipodi:arg1="0.94394743"
         sodipodi:arg2="1.572266"
         points="192.261,142.49 163.16,121.316 133.996,142.404 145.14,108.184 116.073,86.9639 152.062,86.9881 163.261,52.7857 174.359,87.0209 210.348,87.1025 181.218,108.237 192.261,142.49 "
         transform="matrix(0.67929077,0,0,0.68033483,-52.284072,397.78567)"
         sodipodi:fill-cmyk="(0 0.13 1 0)" />
      <polygon
         d="m 192.26143,142.48953 -29.10156,-21.17346 -29.16367,21.08783 11.14428,-34.22019 -29.06779,-21.219794 35.98911,0.02422 11.19878,-34.202391 11.09821,34.235161 35.98902,0.08156 -29.13003,21.134274 z"
         inkscape:randomized="0"
         inkscape:rounded="0"
         inkscape:flatsided="false"
         sodipodi:type="star"
         style="font-size:12px;fill:#ffde00;fill-opacity:1;fill-rule:evenodd;stroke-width:1pt"
         id="polygon557"
         sodipodi:sides="5"
         sodipodi:cx="163.18774"
         sodipodi:cy="102.34911"
         sodipodi:r1="49.563419"
         sodipodi:r2="18.966976"
         sodipodi:arg1="0.94394743"
         sodipodi:arg2="1.572266"
         points="192.261,142.49 163.16,121.316 133.996,142.404 145.14,108.184 116.073,86.9639 152.062,86.9881 163.261,52.7857 174.359,87.0209 210.348,87.1025 181.218,108.237 192.261,142.49 "
         transform="matrix(0.67929077,0,0,0.68033483,-52.284072,320.75469)"
         sodipodi:fill-cmyk="(0 0.13 1 0)" />
      <polygon
         d="m 192.26143,142.48953 -29.10156,-21.17346 -29.16367,21.08783 11.14428,-34.22019 -29.06779,-21.219794 35.98911,0.02422 11.19878,-34.202391 11.09821,34.235161 35.98902,0.08156 -29.13003,21.134274 z"
         inkscape:randomized="0"
         inkscape:rounded="0"
         inkscape:flatsided="false"
         sodipodi:type="star"
         style="font-size:12px;fill:#ffde00;fill-opacity:1;fill-rule:evenodd;stroke-width:1pt"
         id="polygon558"
         sodipodi:sides="5"
         sodipodi:cx="163.18774"
         sodipodi:cy="102.34911"
         sodipodi:r1="49.563419"
         sodipodi:r2="18.966976"
         sodipodi:arg1="0.94394743"
         sodipodi:arg2="1.572266"
         points="192.261,142.49 163.16,121.316 133.996,142.404 145.14,108.184 116.073,86.9639 152.062,86.9881 163.261,52.7857 174.359,87.0209 210.348,87.1025 181.218,108.237 192.261,142.49 "
         transform="matrix(0.67929077,0,0,0.68033483,-52.284072,245.16623)"
         sodipodi:fill-cmyk="(0 0.13 1 0)" />
      <polygon
         d="m 192.26143,142.48953 -29.10156,-21.17346 -29.16367,21.08783 11.14428,-34.22019 -29.06779,-21.219794 35.98911,0.02422 11.19878,-34.202391 11.09821,34.235161 35.98902,0.08156 -29.13003,21.134274 z"
         inkscape:randomized="0"
         inkscape:rounded="0"
         inkscape:flatsided="false"
         sodipodi:type="star"
         style="font-size:12px;fill:#ffde00;fill-opacity:1;fill-rule:evenodd;stroke-width:1pt"
         id="polygon559"
         sodipodi:sides="5"
         sodipodi:cx="163.18774"
         sodipodi:cy="102.34911"
         sodipodi:r1="49.563419"
         sodipodi:r2="18.966976"
         sodipodi:arg1="0.94394743"
         sodipodi:arg2="1.572266"
         points="192.261,142.49 163.16,121.316 133.996,142.404 145.14,108.184 116.073,86.9639 152.062,86.9881 163.261,52.7857 174.359,87.0209 210.348,87.1025 181.218,108.237 192.261,142.49 "
         transform="matrix(0.67929077,0,0,0.68033483,-52.284072,168.13524)"
         sodipodi:fill-cmyk="(0 0.13 1 0)" />
      <polygon
         d="m 192.26143,142.48953 -29.10156,-21.17346 -29.16367,21.08783 11.14428,-34.22019 -29.06779,-21.219794 35.98911,0.02422 11.19878,-34.202391 11.09821,34.235161 35.98902,0.08156 -29.13003,21.134274 z"
         inkscape:randomized="0"
         inkscape:rounded="0"
         inkscape:flatsided="false"
         sodipodi:type="star"
         style="font-size:12px;fill:#ffde00;fill-opacity:1;fill-rule:evenodd;stroke-width:1pt"
         id="polygon560"
         sodipodi:sides="5"
         sodipodi:cx="163.18774"
         sodipodi:cy="102.34911"
         sodipodi:r1="49.563419"
         sodipodi:r2="18.966976"
         sodipodi:arg1="0.94394743"
         sodipodi:arg2="1.572266"
         points="192.261,142.49 163.16,121.316 133.996,142.404 145.14,108.184 116.073,86.9639 152.062,86.9881 163.261,52.7857 174.359,87.0209 210.348,87.1025 181.218,108.237 192.261,142.49 "
         transform="matrix(0.67929077,0,0,0.68033483,-52.284072,90.527458)"
         sodipodi:fill-cmyk="(0 0.13 1 0)" />
      <polygon
         d="m 192.26143,142.48953 -29.10156,-21.17346 -29.16367,21.08783 11.14428,-34.22019 -29.06779,-21.219794 35.98911,0.02422 11.19878,-34.202391 11.09821,34.235161 35.98902,0.08156 -29.13003,21.134274 z"
         inkscape:randomized="0"
         inkscape:rounded="0"
         inkscape:flatsided="false"
         sodipodi:type="star"
         style="font-size:12px;fill:#ffde00;fill-opacity:1;fill-rule:evenodd;stroke-width:1pt"
         id="polygon561"
         sodipodi:sides="5"
         sodipodi:cx="163.18774"
         sodipodi:cy="102.34911"
         sodipodi:r1="49.563419"
         sodipodi:r2="18.966976"
         sodipodi:arg1="0.94394743"
         sodipodi:arg2="1.572266"
         points="192.261,142.49 163.16,121.316 133.996,142.404 145.14,108.184 116.073,86.9639 152.062,86.9881 163.261,52.7857 174.359,87.0209 210.348,87.1025 181.218,108.237 192.261,142.49 "
         transform="matrix(0.67929077,0,0,0.68033483,-52.284072,12.91925)"
         sodipodi:fill-cmyk="(0 0.13 1 0)" />
    </g>
    <polygon
       sodipodi:fill-cmyk="(0 0.13 1 0)"
       transform="matrix(3.3082688,0,0,3.3133508,-155.45897,-83.507751)"
       points="192.261,142.49 163.16,121.316 133.996,142.404 145.14,108.184 116.073,86.9639 152.062,86.9881 163.261,52.7857 174.359,87.0209 210.348,87.1025 181.218,108.237 192.261,142.49 "
       sodipodi:arg2="1.572266"
       sodipodi:arg1="0.94394743"
       sodipodi:r2="18.966976"
       sodipodi:r1="49.563419"
       sodipodi:cy="102.34911"
       sodipodi:cx="163.18774"
       sodipodi:sides="5"
       id="polygon555"
       style="font-size:12px;fill:#ffde00;fill-opacity:1;fill-rule:evenodd;stroke-width:1pt"
       sodipodi:type="star"
       inkscape:flatsided="false"
       inkscape:rounded="0"
       inkscape:randomized="0"
       d="m 192.26143,142.48953 -29.10156,-21.17346 -29.16367,21.08783 11.14428,-34.22019 -29.06779,-21.219794 35.98911,0.02422 11.19878,-34.202391 11.09821,34.235161 35.98902,0.08156 -29.13003,21.134274 z" />
  </g>
</svg>
