<?xml version="1.0" encoding="UTF-8" standalone="no"?>
<svg
   xmlns:dc="http://purl.org/dc/elements/1.1/"
   xmlns:cc="http://creativecommons.org/ns#"
   xmlns:rdf="http://www.w3.org/1999/02/22-rdf-syntax-ns#"
   xmlns:svg="http://www.w3.org/2000/svg"
   xmlns="http://www.w3.org/2000/svg"
   xmlns:xlink="http://www.w3.org/1999/xlink"
   xmlns:sodipodi="http://sodipodi.sourceforge.net/DTD/sodipodi-0.dtd"
   xmlns:inkscape="http://www.inkscape.org/namespaces/inkscape"
   width="640"
   height="480"
   viewBox="0 0 213.33333 160"
   id="svg2"
   version="1.1"
   inkscape:version="0.48.2 r9819"
   sodipodi:docname="ge.svg">
  <metadata
     id="metadata27">
    <rdf:RDF>
      <cc:Work
         rdf:about="">
        <dc:format>image/svg+xml</dc:format>
        <dc:type
           rdf:resource="http://purl.org/dc/dcmitype/StillImage" />
      </cc:Work>
    </rdf:RDF>
  </metadata>
  <sodipodi:namedview
     pagecolor="#ffffff"
     bordercolor="#666666"
     borderopacity="1"
     objecttolerance="10"
     gridtolerance="10"
     guidetolerance="10"
     inkscape:pageopacity="0"
     inkscape:pageshadow="2"
     inkscape:window-width="1280"
     inkscape:window-height="776"
     id="namedview25"
     showgrid="false"
     inkscape:zoom="0.39590181"
     inkscape:cx="320"
     inkscape:cy="-244.25688"
     inkscape:window-x="0"
     inkscape:window-y="24"
     inkscape:window-maximized="1"
     inkscape:current-layer="svg2" />
  <defs
     id="defs4">
    <g
       id="smallcross">
      <clipPath
         id="vclip">
        <path
           d="m -109,104 a 104,104 0 0 0 0,-208 h 218 a 104,104 0 0 0 0,208 z"
           id="path8"
           inkscape:connector-curvature="0" />
      </clipPath>
      <path
         id="varm"
         d="M -55,74 A 55,55 0 0 1 55,74 V -74 a 55,55 0 0 1 -110,0 z"
         clip-path="url(#vclip)"
         inkscape:connector-curvature="0" />
      <use
         xlink:href="#varm"
         transform="matrix(0,1,-1,0,0,0)"
         id="use11"
         x="0"
         y="0"
         width="300"
         height="200" />
    </g>
    <clipPath
       clipPathUnits="userSpaceOnUse"
       id="clipPath3028">
      <rect
         style="fill:#000000;fill-opacity:1;stroke:none"
         id="rect3030"
         width="213.33333"
         height="160"
         x="-1.6666667e-06"
         y="0" />
    </clipPath>
  </defs>
  <g
     id="flag"
     clip-path="url(#clipPath3028)"
     inkscape:label="#g3018">
    <rect
       y="13.192315"
       x="6.3846216"
       id="rect13"
       style="fill:#ffffff"
       height="133.7094"
       width="200.56409" />
    <path
       inkscape:connector-curvature="0"
       id="path15"
       style="fill:#ff0000"
       d="m 93.295725,13.192315 0,53.483756 -86.9111033,0 0,26.741878 86.9111033,0 0,53.483751 26.741875,0 0,-53.483751 86.91111,0 0,-26.741878 -86.91111,0 0,-53.483756 -26.741875,0 z" />
    <use
       height="200"
       width="300"
       y="0"
       x="0"
       style="fill:#ff0000"
       id="use17"
       transform="matrix(0.66854695,0,0,0.66854695,49.472473,39.566492)"
       xlink:href="#smallcross" />
    <use
       height="200"
       width="300"
       y="0"
       x="0"
       style="fill:#ff0000"
       id="use19"
       transform="matrix(0.66854695,0,0,0.66854695,163.86086,120.52753)"
       xlink:href="#smallcross" />
    <use
       height="200"
       width="300"
       y="0"
       x="0"
       style="fill:#ff0000"
       id="use21"
       transform="matrix(0.66854695,0,0,0.66854695,163.86086,39.566492)"
       xlink:href="#smallcross" />
    <use
       height="200"
       width="300"
       y="0"
       x="0"
       style="fill:#ff0000"
       id="use23"
       transform="matrix(0.66854695,0,0,0.66854695,49.472473,120.52753)"
       xlink:href="#smallcross" />
  </g>
</svg>
