<?xml version="1.0" encoding="UTF-8" standalone="no"?>
<!-- Created with Sodipodi ("http://www.sodipodi.com/") -->

<!--

<rdf:RDF xmlns="http://web.resource.org/cc/"
    xmlns:dc="http://purl.org/dc/elements/1.1/"
    xmlns:rdf="http://www.w3.org/1999/02/22-rdf-syntax-ns#">
<Work rdf:about="">
   <dc:title>SVG graphic of Kyrgyzstan's Flag</dc:title>
   <dc:rights><Agent>
      <dc:title>Andrew Duhan</dc:title>
   </Agent></dc:rights>
   <license rdf:resource="http://web.resource.org/cc/PublicDomain" />
</Work>

<License rdf:about="http://web.resource.org/cc/PublicDomain">
   <permits rdf:resource="http://web.resource.org/cc/Reproduction" />
   <permits rdf:resource="http://web.resource.org/cc/Distribution" />
   <permits rdf:resource="http://web.resource.org/cc/DerivativeWorks" />
</License>

</rdf:RDF>

-->

<svg
   xmlns:dc="http://purl.org/dc/elements/1.1/"
   xmlns:cc="http://creativecommons.org/ns#"
   xmlns:rdf="http://www.w3.org/1999/02/22-rdf-syntax-ns#"
   xmlns:svg="http://www.w3.org/2000/svg"
   xmlns="http://www.w3.org/2000/svg"
   xmlns:sodipodi="http://sodipodi.sourceforge.net/DTD/sodipodi-0.dtd"
   xmlns:inkscape="http://www.inkscape.org/namespaces/inkscape"
   id="svg719"
   sodipodi:version="0.32"
   width="640"
   height="480"
   sodipodi:docname="kg.svg"
   version="1.1"
   inkscape:version="0.48.1 r9760">
  <sodipodi:namedview
     id="base"
     showgrid="false"
     inkscape:zoom="0.5248"
     inkscape:cx="312.5"
     inkscape:cy="208.125"
     inkscape:window-width="1280"
     inkscape:window-height="746"
     inkscape:window-x="0"
     inkscape:window-y="24"
     inkscape:window-maximized="1"
     inkscape:current-layer="svg719" />
  <metadata
     id="metadata4668">
    <rdf:RDF>
      <cc:Work
         rdf:about="">
        <dc:format>image/svg+xml</dc:format>
        <dc:type
           rdf:resource="http://purl.org/dc/dcmitype/StillImage" />
      </cc:Work>
    </rdf:RDF>
  </metadata>
  <defs
     id="defs721">
    <clipPath
       clipPathUnits="userSpaceOnUse"
       id="clipPath5662">
      <rect
         id="rect5664"
         height="416.25"
         x="104.0625"
         style="fill:#000000;fill-opacity:0.67000002;stroke:none"
         width="416.25"
         y="-2.2162354e-05" />
    </clipPath>
    <clipPath
       clipPathUnits="userSpaceOnUse"
       id="clipPath5745">
      <rect
         id="rect5747"
         height="512"
         x="-84.948967"
         style="fill:#000000;fill-opacity:0.67000002;stroke:none"
         width="682.66669"
         y="1.2500002e-05" />
    </clipPath>
  </defs>
  <g
     transform="matrix(0.9375,0,0,0.9375,79.639654,-1.1718751e-5)"
     id="flag"
     clip-path="url(#clipPath5745)"
     inkscape:label="#g5710">
    <rect
       style="font-size:12px;fill:#be0027;fill-opacity:1;fill-rule:evenodd;stroke-width:1pt"
       id="rect724"
       width="768.76874"
       height="512"
       x="-128"
       y="1.2500001e-05" />
    <path
       inkscape:connector-curvature="0"
       style="fill:#ffff00;fill-opacity:1;fill-rule:evenodd;stroke:none"
       d="m 105.45221,261.14013 c 13.65825,-16.61033 41.95017,-0.39853 65.04522,-12.35934 -27.35833,1.50432 -42.26999,-13.12934 -63.88407,-11.07765 22.39515,-13.75666 41.46062,4.49945 66.50157,-2.83891 -33.1653,-2.78971 -31.72739,-17.61526 -61.88404,-19.72107 26.78759,-11.42452 40.03625,11.75047 66.27648,6.47979 -30.92665,-7.13909 -35.04479,-25.35583 -58.03897,-29.21198 33.60811,-5.07264 31.41743,14.79357 64.36378,17.22042 -33.44082,-14.34461 -24.67563,-26.79743 -52.64528,-37.72256 31.29688,-0.73925 29.22182,20.9511 60.92953,26.63999 -27.1443,-17.22042 -23.79124,-32.93528 -46.14949,-45.23189 26.52436,0.47971 29.11358,27.62893 56.18408,36.04111 -24.14795,-19.16018 -17.79731,-35.31416 -38.66354,-52.42388 26.38292,6.18828 22.54153,29.61051 50.01917,44.55169 -20.36314,-22.61534 -12.54999,-38.80499 -30.31408,-57.31756 25.37428,8.17171 15.73454,30.43156 42.06456,51.59546 -15.0937,-24.85522 -5.77499,-40.70662 -20.62883,-61.67654 23.55876,12.16586 12.15146,34.87172 34.02263,57.5584 -10.29535,-25.50837 0.0148,-41.35238 -10.50692,-63.94115 20.15158,15.05668 8.16617,39.32333 24.42225,62.47249 -5.92629,-31.91928 7.84144,-37.17028 3.55724,-65.12357 15.3065,18.79018 -1.80199,37.58074 9.94849,65.2601 -1.43053,-31.47646 15.29419,-38.79514 12.39378,-64.0666 15.16873,22.64534 -8.50689,42.35288 1.39485,66.60538 2.56093,-29.86389 22.18482,-37.59709 22.48987,-60.83605 11.93252,21.33241 -14.1109,36.67212 -9.88329,64.95543 8.56962,-31.19603 29.47644,-35.05094 31.94265,-56.02517 7.23504,24.67785 -21.26476,36.15034 -19.59807,63.50129 8.48844,-27.73595 34.62043,-30.98938 39.96245,-51.47553 3.29648,26.10739 -22.40131,30.74214 -29.63512,59.58512 13.51188,-23.54032 37.14322,-25.47147 47.78298,-44.0892 -0.83519,25.81464 -29.84422,29.19968 -38.74841,53.37223 16.72472,-20.50952 37.69058,-16.94981 54.4153,-35.13457 -1.76509,23.29922 -31.29319,21.98186 -47.00929,46.10398 18.13557,-16.7321 45.43485,-11.7185 59.3305,-26.12461 -0.67405,20.60792 -36.90828,19.05932 -53.99586,37.47902 21.07534,-11.54507 47.75715,-4.76391 63.22478,-15.48731 -2.82661,18.06791 -41.07563,13.84522 -59.35633,27.94628 25.21069,-6.98534 44.67715,3.8094 65.1018,-3.99514 -9.93988,17.58697 -44.6341,6.4552 -63.0538,17.88833 21.87854,-3.70485 45.12611,9.54995 65.09073,5.29774 -6.56221,15.20071 -44.57998,-0.91883 -65.09073,8.53764 24.50958,-0.21526 40.40279,15.43441 63.13375,14.39873 -12.36303,13.7628 -45.78787,-5.16244 -65.2617,-1.92992 23.75926,4.9152 41.91081,24.60183 59.92583,25.55018 -14.78373,11.35195 -42.42251,-14.49713 -64.8644,-11.21541 23.10488,6.18459 42.51598,32.47156 55.77448,33.04845 -14.28434,9.76151 -42.51722,-22.46404 -61.86067,-21.31888 23.49603,10.62008 34.27232,37.51468 49.69813,41.29579 -19.09868,6.12801 -37.8677,-29.2169 -58.39075,-30.44201 23.77156,14.99284 25.11475,37.91814 43.4176,48.12369 -19.25735,4.70733 -32.96358,-35.16655 -53.25907,-38.53191 19.48859,14.32738 22.42836,44.93053 35.35106,54.60841 -19.60668,1.03568 -26.69165,-40.714 -46.78665,-46.67841 17.2155,14.37905 13.09367,45.57876 26.47885,58.86308 -20.42465,-4.18948 -17.79238,-40.53809 -39.11741,-52.77812 15.32002,19.32008 7.52655,46.84569 17.51194,62.33669 -19.87114,-8.03825 -11.24002,-40.56762 -30.21077,-58.99101 10.34947,20.58332 -0.77369,44.58736 7.38756,64.48678 -18.15278,-8.85375 -5.94351,-47.38444 -19.85637,-62.66634 6.39492,23.78632 -5.39984,43.47049 -0.64577,64.79429 -18.55869,-21.52552 2.81677,-43.18881 -13.28063,-65.12517 4.27312,25.17749 -13.33599,42.69681 -10.56719,63.77091 -14.71608,-17.18967 7.9054,-44.77432 -3.52773,-66.4782 2.46129,24.75435 -20.27581,46.43855 -18.7149,62.02918 -11.97804,-19.96708 13.29785,-43.58242 6.53022,-66.28509 -1.4256,23.5723 -24.37058,36.38183 -28.69168,57.8557 -7.71228,-23.68915 19.56363,-40.8124 17.20935,-64.09072 -7.81069,22.14546 -29.98198,31.02382 -37.79267,52.48538 -6.39492,-23.62272 25.91427,-36.16657 26.76792,-61.02056 -9.98662,23.30907 -36.52206,28.42723 -45.27864,46.26512 -3.26942,-23.49972 33.80738,-34.00664 35.18747,-56.2751 -11.93621,21.38161 -40.96861,22.24878 -50.99089,39.25395 -1.51909,-23.41608 37.58233,-26.31649 43.72141,-50.82484 -11.88332,18.27824 -43.73494,15.90675 -56.98729,30.76674 2.08982,-21.72233 44.38809,-23.06552 51.12866,-42.59963 -15.72347,15.1675 -44.96252,8.88205 -61.42647,20.91297 9.16372,-21.33487 48.83834,-16.81205 57.80772,-32.26738 -17.5636,9.16373 -48.67967,0.28045 -63.99723,9.44417 13.92148,-20.2057 44.80261,-8.13542 62.28011,-22.04951 -28.42845,4.14274 -45.50619,-7.16985 -65.18175,-1.93361 z"
       id="path733"
       sodipodi:nodetypes="ccccccccccccccccccccccccccccccccccccccccccccccccccccccccccccccccccccccccccccccccc" />
    <path
       sodipodi:type="arc"
       style="fill:#ffff00;fill-opacity:1;fill-rule:evenodd;stroke:none"
       id="path731"
       d="m 380.21672,199.25284 c 0,38.55857 -31.25789,69.81647 -69.81645,69.81647 -38.55856,0 -69.81645,-31.2579 -69.81645,-69.81647 0,-38.55858 31.25789,-69.81648 69.81645,-69.81648 38.55856,0 69.81645,31.2579 69.81645,69.81648 z"
       sodipodi:cx="310.40027"
       sodipodi:cy="199.25284"
       sodipodi:rx="69.816452"
       sodipodi:ry="69.816475"
       transform="matrix(1.4211865,0,0,1.4211853,-184.43294,-27.06313)" />
    <path
       sodipodi:type="arc"
       style="fill:#be0027;fill-opacity:1;fill-rule:evenodd;stroke:none"
       id="path727"
       d="m 380.21672,199.25284 c 0,38.55857 -31.25789,69.81647 -69.81645,69.81647 -38.55856,0 -69.81645,-31.2579 -69.81645,-69.81647 0,-38.55858 31.25789,-69.81648 69.81645,-69.81648 38.55856,0 69.81645,31.2579 69.81645,69.81648 z"
       sodipodi:cx="310.40027"
       sodipodi:cy="199.25284"
       sodipodi:rx="69.816452"
       sodipodi:ry="69.816475"
       transform="matrix(1.2355725,0,0,1.2355725,-126.62523,10.114141)" />
    <path
       sodipodi:type="arc"
       style="fill:#ffff00;fill-opacity:1;fill-rule:evenodd;stroke:none"
       id="path726"
       d="m 380.21672,199.25284 c 0,38.55857 -31.25789,69.81647 -69.81645,69.81647 -38.55856,0 -69.81645,-31.2579 -69.81645,-69.81647 0,-38.55858 31.25789,-69.81648 69.81645,-69.81648 38.55856,0 69.81645,31.2579 69.81645,69.81648 z"
       sodipodi:cx="310.40027"
       sodipodi:cy="199.25284"
       sodipodi:rx="69.816452"
       sodipodi:ry="69.816475"
       transform="matrix(1.0610411,0,0,1.0610411,-72.257267,45.083357)" />
    <path
       inkscape:connector-curvature="0"
       style="fill:#be0027;fill-opacity:1;fill-rule:evenodd;stroke:none"
       d="m 194.03651,207.95117 c 20.50091,-0.45142 46.03264,1.41823 62.85945,14.8932 17.85881,-11.15391 39.00548,-16.31142 60.53962,-14.31262 3.67533,6.70489 7.34943,13.40978 11.02476,20.11468 -15.98916,-1.61257 -31.59086,0.64576 -50.09543,8.12434 23.59689,18.69646 35.39534,42.80874 34.62165,72.14372 -2.70729,3.35184 -6.9632,7.09113 -9.67049,10.44296 3.9324,-28.49611 -11.08873,-60.27885 -32.88117,-76.97774 17.72966,25.59569 28.30422,48.67598 25.33862,80.45995 -3.15872,1.86965 -6.89924,4.51298 -10.05795,6.38263 4.6409,-28.04469 -1.93238,-60.92585 -22.62887,-80.07372 11.92638,17.53653 23.85398,48.99947 16.43936,81.04052 -3.22391,0.96681 -8.18708,3.67533 -11.41099,4.64214 8.31746,-26.239 3.09352,-59.0562 -10.83165,-78.71946 -13.79601,19.79364 -18.31022,50.02901 -10.44541,77.94577 -3.86845,-0.96681 -6.76886,-2.12796 -10.6373,-3.09476 -5.6729,-30.04348 2.19314,-63.95664 15.86124,-81.61987 -13.9264,8.05916 -27.07912,42.61439 -23.40502,77.94577 -3.35183,-1.54738 -5.9312,-2.70852 -9.28303,-4.2559 -4.51298,-26.36939 7.41339,-60.66631 24.5637,-80.46118 -19.47138,12.24986 -35.26619,42.29458 -32.49371,74.65913 -2.9656,-2.64334 -5.73809,-3.93241 -8.70369,-6.57574 -3.41702,-28.23903 12.89441,-56.66995 32.10625,-73.6911 -16.18228,-7.22151 -30.04349,-8.63973 -50.09421,-8.31746 3.15872,-6.51178 6.12555,-14.18348 9.28427,-20.69526 z"
       id="path729"
       sodipodi:nodetypes="ccccccccccccccccccccccccc" />
  </g>
</svg>
