<?xml version="1.0" encoding="UTF-8" standalone="no"?>
<!-- Created with Sodipodi ("http://www.sodipodi.com/") -->

<svg
   xmlns:dc="http://purl.org/dc/elements/1.1/"
   xmlns:cc="http://creativecommons.org/ns#"
   xmlns:rdf="http://www.w3.org/1999/02/22-rdf-syntax-ns#"
   xmlns:svg="http://www.w3.org/2000/svg"
   xmlns="http://www.w3.org/2000/svg"
   xmlns:sodipodi="http://sodipodi.sourceforge.net/DTD/sodipodi-0.dtd"
   xmlns:inkscape="http://www.inkscape.org/namespaces/inkscape"
   inkscape:version="0.48.1 r9760"
   sodipodi:docname="ls.svg"
   sodipodi:version="0.32-hydra1"
   id="svg378"
   height="480"
   width="640"
   y="0"
   x="0"
   version="1">
  <sodipodi:namedview
     id="base"
     showgrid="false"
     inkscape:zoom="0.30856401"
     inkscape:cx="531.49426"
     inkscape:cy="372.04724"
     inkscape:window-width="1280"
     inkscape:window-height="746"
     inkscape:window-x="0"
     inkscape:window-y="24"
     inkscape:window-maximized="1"
     inkscape:current-layer="svg378" />
  <metadata
     id="metadata3349">
    <rdf:RDF>
      <cc:Work
         rdf:about="">
        <dc:format>image/svg+xml</dc:format>
        <dc:type
           rdf:resource="http://purl.org/dc/dcmitype/StillImage" />
      </cc:Work>
    </rdf:RDF>
  </metadata>
  <defs
     id="defs380">
    <clipPath
       clipPathUnits="userSpaceOnUse"
       id="clipPath3438">
      <rect
         id="rect3440"
         height="480"
         x="0"
         style="fill:#000000;fill-opacity:0.67000002;stroke:none"
         width="640"
         y="0" />
    </clipPath>
  </defs>
  <g
     id="flag"
     clip-path="url(#clipPath3438)"
     inkscape:label="#g3404">
    <rect
       y="32"
       x="3.2917016e-09"
       height="480"
       width="480"
       id="rect628"
       style="font-size:12px;fill:#ffffff;fill-rule:evenodd;stroke-width:1pt" />
    <g
       id="g3396"
       transform="matrix(1.3414825,0,0,1.0076361,-3.9115926,-35.90966)">
      <path
         inkscape:connector-curvature="0"
         style="font-size:12px;fill:#3662a2;fill-rule:evenodd;stroke-width:1.03874998pt"
         d="M 479.59846,510.93136 480,35.63753 2.915873,512 479.59846,510.93136 z"
         id="path624"
         sodipodi:nodetypes="cccc" />
      <path
         inkscape:connector-curvature="0"
         style="font-size:12px;fill:#38a100;fill-rule:evenodd;stroke-width:1.03874998pt"
         d="M 479.59846,511.76459 479.36384,192.09954 160.08089,512 479.59846,511.76459 z"
         id="path575"
         sodipodi:nodetypes="cccc" />
    </g>
    <g
       id="g3400"
       transform="matrix(1.3302034,0,0,1.3302034,-14.159247,-67.826535)">
      <path
         inkscape:connector-curvature="0"
         style="font-size:12px;fill:#826006;fill-rule:evenodd;stroke-width:0.995191pt"
         d="m 117.4947,84.375015 c 1.42498,0.467554 7.33327,16.404305 7.5842,29.359435 1.87976,6.883 3.79436,7.37648 3.22475,16.39082 -0.87731,4.8439 -2.84286,4.06271 -2.46678,8.26669 -0.21481,2.53194 4.72779,3.87564 8.01575,5.03742 2.15005,0.44769 2.5184,1.13084 4.89745,0.64057 3.1383,-1.12889 9.50653,-14.31431 9.50653,-14.31431 -6.35726,-19.72008 8.78792,-26.85078 17.72226,-21.16699 8.93436,5.68444 11.65723,24.18338 -9.5233,26.0696 -3.44279,4.51426 -4.6594,5.53219 -7.73064,10.83603 -1.00438,2.35067 -1.3495,3.73179 -0.0509,4.2743 22.09397,11.39211 36.31216,37.12626 39.26662,56.29285 1.06309,4.21947 0.5309,7.53453 -1.06373,10.4877 -3.30797,5.54575 -9.09691,5.48511 -13.11383,4.70134 -2.30357,-1.08502 -9.0511,-9.75489 -9.22786,-14.79619 -0.79731,-5.60509 -1.88685,-11.04633 -8.88725,-18.5499 -4.78455,-3.94788 -11.86689,-3.03638 -14.5259,0.51994 -3.78081,5.18385 -2.95124,10.09614 -1.32693,14.64653 7.32553,13.14026 10.87346,23.4138 18.19898,36.55406 1.91975,5.48447 0.38382,10.60769 -0.88634,11.66303 -1.71333,1.71785 -3.5918,3.07317 -6.10309,2.44034 -1.18179,-0.54186 -4.68521,-2.98284 -5.78056,-1.62689 -1.15727,1.80816 0.76119,3.52601 1.11534,4.61103 4.84391,7.95577 10.14194,20.24517 13.7202,28.71119 3.72146,6.60045 -0.81732,10.79089 -4.71683,5.72766 -7.44292,-14.46526 -11.82301,-23.87632 -19.26658,-38.34222 -2.18488,-4.84068 -5.38383,-10.06453 -8.17573,-12.73129 -1.91525,-1.91846 -8.7518,-3.19637 -10.41353,-2.81255 -1.34885,0.0761 -1.44626,1.04826 -1.41723,2.53129 -0.35479,18.44411 -0.0819,37.01595 -0.43672,55.45942 0.16837,3.23701 -2.70611,5.13482 -3.91628,4.92001 -2.24552,-71.84701 -1.99716,-145.94276 5.77798,-215.800915 z"
         id="path749"
         sodipodi:nodetypes="cccccccscccccccccccccccccccccccc" />
      <path
         inkscape:connector-curvature="0"
         style="font-size:12px;fill:#826006;fill-rule:evenodd;stroke-width:1pt"
         d="m 117.4747,84.2709 c -1.43917,0.467618 -0.93988,0.935107 -1.74622,2.169853 -1.39144,1.417369 -1.17856,3.346092 -1.43208,5.786362 0,0 -5.47221,4.2921 -5.72573,8.234185 -1.89782,6.88235 1.78946,22.14428 1.78946,22.14428 0.88569,4.8439 0.37995,9.17626 0,13.38023 -0.35802,2.53195 -1.43143,4.3401 -3.7576,5.78636 -3.45956,2.35067 -7.276486,1.98944 -10.914736,1.80881 0,0 -2.862862,-0.72378 -3.220881,-1.08503 -0.358019,-0.36188 -8.231212,-18.80599 -8.231212,-18.80599 5.60703,-0.72314 10.497371,-0.72249 16.104409,-1.44627 -11.094078,-7.23327 -22.36684,-14.64653 -33.46085,-21.8798 -0.835056,13.14027 -0.954331,27.36426 -1.789321,40.50389 3.101347,-3.85693 6.918927,-9.16077 10.019824,-13.01835 3.102186,5.30384 4.950984,11.1502 8.052525,16.45404 1.014065,2.35067 0.596054,4.88261 -0.715393,5.42512 -22.30736,11.39146 -36.025682,35.08006 -39.007949,54.24665 -1.073606,4.21883 -0.536835,7.53453 1.073606,10.4877 3.340027,5.54511 9.18522,5.48447 13.241027,4.70134 2.326157,-1.08501 5.189148,-5.33351 5.457501,-9.40267 0.805253,-5.6051 1.788998,-16.63595 8.857133,-24.13951 4.831,-3.94789 12.883526,-2.29068 15.567701,1.26564 3.817579,5.18321 3.250555,10.45738 1.610118,15.00777 -7.39648,13.14026 -14.434296,25.82769 -21.830325,38.96731 -1.938399,5.48511 -0.387563,10.60833 0.894919,11.66304 1.730103,1.71849 4.801326,2.71191 7.336488,2.07973 1.192751,-0.54251 2.743523,-0.9044 3.578255,0 0.627018,1.26629 -0.715393,2.17005 -1.073412,3.25507 -4.890991,7.95577 -9.781983,15.91217 -14.672459,23.86794 -3.757652,6.60045 2.504778,11.57337 6.441891,6.51014 7.515175,-14.46591 13.891139,-26.24699 21.406959,-40.71225 2.461618,-4.84067 4.163986,-7.37971 9.282692,-9.27882 1.55077,-0.5122 4.49362,-1.0231 6.17083,-0.63992 1.3624,0.0768 1.46046,1.04825 1.43143,2.53194 0.35802,18.44346 0.0826,37.01529 0.44059,55.45941 -0.1703,3.23701 2.19069,4.68327 3.41312,4.46781 2.26681,-71.847 3.14088,-143.94946 5.40769,-215.79601 z"
         id="path751"
         sodipodi:nodetypes="ccccccccccccccccccccccccccccccccccccc" />
    </g>
  </g>
</svg>
